<?xml version="1.0" encoding="UTF-8" standalone="no"?>
<!-- Created with Inkscape (http://www.inkscape.org/) -->

<svg xmlns:dc="http://purl.org/dc/elements/1.1/" xmlns:cc="http://creativecommons.org/ns#" xmlns:rdf="http://www.w3.org/1999/02/22-rdf-syntax-ns#"
    xmlns="http://www.w3.org/2000/svg" xmlns:sodipodi="http://sodipodi.sourceforge.net/DTD/sodipodi-0.dtd"
    xmlns:inkscape="http://www.inkscape.org/namespaces/inkscape" width="164.965mm" height="164.965mm"
    viewBox="0 0 164.965 164.965" version="1.1" id="svg1658" inkscape:version="0.92.4 (5da689c313, 2019-01-14)"
    sodipodi:docname="circle_border_gold.svg">
  <defs
     id="defs1652" />
  <sodipodi:namedview
     id="base"
     pagecolor="#ffffff"
     bordercolor="#666666"
     borderopacity="1.0"
     inkscape:pageopacity="0.0"
     inkscape:pageshadow="2"
     inkscape:zoom="0.35"
     inkscape:cx="700.31632"
     inkscape:cy="-402.54083"
     inkscape:document-units="mm"
     inkscape:current-layer="layer1"
     showgrid="false"
     fit-margin-top="0"
     fit-margin-left="0"
     fit-margin-right="0"
     fit-margin-bottom="0"
     inkscape:window-width="1920"
     inkscape:window-height="1137"
     inkscape:window-x="-8"
     inkscape:window-y="-8"
     inkscape:window-maximized="1" />
  <metadata
     id="metadata1655">
    <rdf:RDF>
      <cc:Work
         rdf:about="">
        <dc:format>image/svg+xml</dc:format>
        <dc:type
           rdf:resource="http://purl.org/dc/dcmitype/StillImage" />
        <dc:title></dc:title>
      </cc:Work>
    </rdf:RDF>
  </metadata>
  <g
     inkscape:label="Ebene 1"
     inkscape:groupmode="layer"
     id="layer1"
     transform="translate(207.9706,122.63726)">
    <circle
       style="fill:#ffab40;fill-opacity:1;stroke:#33333d;stroke-width:4.96500063;stroke-linecap:round;stroke-miterlimit:4;stroke-dasharray:none;stroke-opacity:1"
       id="path854-8"
       cx="-125.4881"
       cy="-40.154762"
       r="80"
       inkscape:export-xdpi="19.708424"
       inkscape:export-ydpi="19.708424" />
    <circle
       style="fill:#ffffff;fill-opacity:1;stroke:#ffffff;stroke-width:4.97830391;stroke-miterlimit:4;stroke-dasharray:none;stroke-opacity:1"
       id="path916"
       cx="-135.13605"
       cy="-46.612709"
       r="21.699015"
       inkscape:export-xdpi="19.708424"
       inkscape:export-ydpi="19.708424" />
    <path
       style="fill:#ffffff;fill-opacity:1;stroke:#ffffff;stroke-width:0.29343718;stroke-opacity:1"
       inkscape:connector-curvature="0"
       d="m -153.04426,-48.399738 h -39.3976 c -2.17568,0 -3.93994,0.76268 -3.93994,1.703239 0,0.94056 1.76426,1.70325 3.93994,1.70325 h 39.3976 c 2.17571,0 3.93821,-0.76269 3.93821,-1.70325 0,-0.940559 -1.7625,-1.703239 -3.93821,-1.703239 z m 0,0"
       id="path819-8-7"
       inkscape:export-xdpi="19.708424"
       inkscape:export-ydpi="19.708424" />
    <path
       style="fill:#ffffff;fill-opacity:1;stroke:#ffffff;stroke-width:0.28017691;stroke-opacity:1"
       inkscape:connector-curvature="0"
       d="m -134.77556,-101.84875 v 39.208952 c 0,2.16535 0.69864,3.921238 1.5602,3.921238 0.86155,0 1.5595,-1.755888 1.5595,-3.921238 v -39.208952 c 0,-2.16535 -0.69795,-3.92123 -1.5595,-3.92123 -0.86156,0 -1.5602,1.75588 -1.5602,3.92123 z m 0,0"
       id="path821-3-8"
       inkscape:export-xdpi="19.708424"
       inkscape:export-ydpi="19.708424" />
    <path
       style="fill:#33333d;fill-opacity:1;stroke:#33333d;stroke-width:0.25290149;stroke-opacity:1"
       inkscape:connector-curvature="0"
       d="m -165.34388,-13.22946 c 0.44257,0.39417 1.02345,0.59571 1.6152,0.56112 0.59175,-0.0346 1.14597,-0.30327 1.53915,-0.74684 l 17.86018,-20.092829 c 0.5305,-0.597681 0.7014,-1.433441 0.4485,-2.192139 -0.25289,-0.757722 -0.89107,-1.32379 -1.67447,-1.48481 -0.78341,-0.160041 -1.59249,0.109649 -2.12299,0.708319 l -17.86019,20.092829 c -0.39319,0.44357 -0.59372,1.02543 -0.55717,1.61718 0.0366,0.59176 0.30723,1.14498 0.75179,1.53717 z m 0,0"
       id="path823-4-9"
       inkscape:export-xdpi="19.708424"
       inkscape:export-ydpi="19.708424" />
    <path
       style="fill:#33333d;fill-opacity:1;stroke:#33333d;stroke-width:0.25290149;stroke-opacity:1"
       inkscape:connector-curvature="0"
       d="m -99.116293,-84.107079 c -8e-4,-0.924679 -0.57002,-1.752539 -1.433437,-2.08347 -0.86244,-0.331941 -1.83946,-0.0968 -2.45788,0.58977 l -20.09283,22.324481 c -0.55223,0.58978 -0.74291,1.432448 -0.49889,2.203 0.24499,0.769569 0.88714,1.347499 1.67844,1.510509 0.79131,0.162991 1.60928,-0.114599 2.13781,-0.72611 l 20.092817,-22.32448 c 0.37047,-0.408991 0.57496,-0.942459 0.57397,-1.4937 z m 0,0"
       id="path825-1-6"
       inkscape:export-xdpi="19.708424"
       inkscape:export-ydpi="19.708424" />
    <path
       style="fill:#ffffff;fill-opacity:1;stroke:#ffffff;stroke-width:0.29589286;stroke-opacity:1"
       inkscape:connector-curvature="0"
       d="m -135.12654,18.57219 c 0.84524,0 1.53064,-1.99618 1.53064,-4.45788 v -40.119029 c 0,-2.46171 -0.6854,-4.457891 -1.53064,-4.457891 -0.84526,0 -1.53066,1.996181 -1.53066,4.457891 V 14.11431 c 0,2.4617 0.6854,4.45788 1.53066,4.45788 z m 0,0"
       id="path827-7-6"
       inkscape:export-xdpi="19.708424"
       inkscape:export-ydpi="19.708424" />
    <path
       style="fill:#ffffff;fill-opacity:1;stroke:#ffffff;stroke-width:0.28235328;stroke-opacity:1"
       inkscape:connector-curvature="0"
       d="m -79.268563,-51.008519 h -34.433697 c -2.37699,0 -4.30257,0.646361 -4.30257,1.443461 0,0.797099 1.92558,1.44345 4.30257,1.44345 h 34.433697 c 2.37694,0 4.30443,-0.646351 4.30443,-1.44345 0,-0.7971 -1.92749,-1.443461 -4.30443,-1.443461 z m 0,0"
       id="path829-8-6"
       inkscape:export-xdpi="19.708424"
       inkscape:export-ydpi="19.708424" />
    <path
       style="fill:#ffffff;fill-opacity:1;stroke:#ffffff;stroke-width:0.27725217;stroke-opacity:1"
       inkscape:connector-curvature="0"
       d="m -159.82069,-93.297551 c -0.26529,1.316641 0.6009,2.596251 1.93677,2.858141 l 2.41609,0.473651 c 1.33479,0.261679 2.6323,-0.593751 2.89759,-1.910392 0.26529,-1.316609 -0.60196,-2.596449 -1.93676,-2.858108 l -2.4161,-0.47366 c -1.33586,-0.261901 -2.63229,0.593759 -2.89759,1.910368 z m 0,0"
       id="path831-9-0"
       inkscape:export-xdpi="19.708424"
       inkscape:export-ydpi="19.708424" />
    <path
       style="fill:#ffffff;fill-opacity:1;stroke:#ffffff;stroke-width:0.27725217;stroke-opacity:1"
       inkscape:connector-curvature="0"
       d="m -151.12921,-99.02786 -0.48041,2.38425 c -0.2653,1.316631 0.60219,2.59541 1.93697,2.857091 1.3348,0.261659 2.63208,-0.592741 2.89736,-1.90935 l 0.48042,-2.384251 c 0.26529,-1.31663 -0.60197,-2.59645 -1.93675,-2.85814 -1.33481,-0.26167 -2.6323,0.59378 -2.89759,1.9104 z m 0,0"
       id="path833-5-1"
       inkscape:export-xdpi="19.708424"
       inkscape:export-ydpi="19.708424" />
    <path
       style="fill:#ffffff;fill-opacity:1;stroke:#ffffff;stroke-width:0.27725217;stroke-opacity:1"
       inkscape:connector-curvature="0"
       d="m -143.38195,-87.596399 c 1.33479,0.261678 2.6323,-0.59377 2.89758,-1.910382 0.26529,-1.316638 -0.60198,-2.596459 -1.93677,-2.85814 l -2.41716,-0.473869 c -1.33481,-0.26167 -2.63231,0.593781 -2.89759,1.910379 -0.26528,1.316641 0.60197,2.596452 1.93677,2.858141 z m 0,0"
       id="path835-1-4"
       inkscape:export-xdpi="19.708424"
       inkscape:export-ydpi="19.708424" />
    <path
       style="fill:#ffffff;fill-opacity:1;stroke:#ffffff;stroke-width:0.27725217;stroke-opacity:1"
       inkscape:connector-curvature="0"
       d="m -153.53106,-87.107629 -0.48041,2.38428 c -0.2653,1.316619 0.60197,2.596448 1.93676,2.85814 1.3348,0.26166 2.63229,-0.593781 2.89759,-1.91039 l 0.48041,-2.384282 c 0.2653,-1.316609 -0.60198,-2.596459 -1.93676,-2.858137 -1.3348,-0.261663 -2.63229,0.593788 -2.89759,1.910389 z m 0,0"
       id="path837-4-7"
       inkscape:export-xdpi="19.708424"
       inkscape:export-ydpi="19.708424" />
    <path
       style="fill:#ffffff;fill-opacity:1;stroke:#ffffff;stroke-width:0.29851216;stroke-opacity:1"
       inkscape:connector-curvature="0"
       d="m -86.566513,-40.934358 c -1.22221,-0.773202 -2.82281,-0.380722 -3.57448,0.87648 -0.75168,1.257199 -0.37013,2.903638 0.85206,3.676838 l 2.21329,1.40018 c 1.22219,0.7732 2.8228,0.380741 3.57446,-0.876459 0.75169,-1.257199 0.37014,-2.903651 -0.85206,-3.676869 z m 0,0"
       id="path847-2-4"
       inkscape:export-xdpi="19.708424"
       inkscape:export-ydpi="19.708424" />
    <path
       style="fill:#ffffff;fill-opacity:1;stroke:#ffffff;stroke-width:0.29851216;stroke-opacity:1"
       inkscape:connector-curvature="0"
       d="m -76.352223,-37.610278 1.36121,-2.276671 c 0.75168,-1.257189 0.37012,-2.90363 -0.85207,-3.67683 -1.22219,-0.7732 -2.8228,-0.380741 -3.57448,0.87648 l -1.36119,2.276639 c -0.75169,1.25722 -0.37014,2.903662 0.85207,3.676861 1.2222,0.7732 2.8228,0.380731 3.57446,-0.876479 z m 0,0"
       id="path849-1-3"
       inkscape:export-xdpi="19.708424"
       inkscape:export-ydpi="19.708424" />
    <path
       style="fill:#ffffff;fill-opacity:1;stroke:#ffffff;stroke-width:0.29851216;stroke-opacity:1"
       inkscape:connector-curvature="0"
       d="m -72.435783,-28.856999 c 0.75169,-1.2572 0.37014,-2.903659 -0.85206,-3.676859 l -2.21326,-1.400181 c -1.22221,-0.773221 -2.82184,-0.380111 -3.57352,0.877089 -0.75167,1.257202 -0.3711,2.903032 0.8511,3.676232 l 2.21328,1.40018 c 1.2222,0.773208 2.8228,0.38073 3.57446,-0.876461 z m 0,0"
       id="path851-8-2"
       inkscape:export-xdpi="19.708424"
       inkscape:export-ydpi="19.708424" />
    <path
       style="fill:#ffffff;fill-opacity:1;stroke:#ffffff;stroke-width:0.29851216;stroke-opacity:1"
       inkscape:connector-curvature="0"
       d="m -86.223583,-31.30399 -1.36119,2.276652 c -0.75168,1.257199 -0.36953,2.90263 0.85266,3.67584 1.2222,0.7732 2.82221,0.381728 3.57388,-0.875482 l 1.36121,-2.276639 c 0.75167,-1.25721 0.37012,-2.903649 -0.85208,-3.676859 -1.2222,-0.7732 -2.8228,-0.380722 -3.57448,0.876488 z m 0,0"
       id="path853-6-2"
       inkscape:export-xdpi="19.708424"
       inkscape:export-ydpi="19.708424" />
    <path
       style="fill:#ffffff;fill-opacity:1;stroke:#ffffff;stroke-width:0.25290149;stroke-opacity:1"
       inkscape:connector-curvature="0"
       d="m -178.87722,-41.299509 c 1.2329,0 2.23264,0.999749 2.23264,2.232641 0,1.23289 -0.99974,2.232639 -2.23264,2.232639 -1.2329,0 -2.23265,-0.999749 -2.23265,-2.232639 0,-1.232892 0.99975,-2.232641 2.23265,-2.232641 z m 0,0"
       id="path857-0-4"
       inkscape:export-xdpi="19.708424"
       inkscape:export-ydpi="19.708424" />
    <path
       style="fill:#ffffff;fill-opacity:1;stroke:#ffffff;stroke-width:0.25290149;stroke-opacity:1"
       inkscape:connector-curvature="0"
       d="m -71.913333,-61.434658 c 1.23289,0 2.23265,0.99976 2.23265,2.232649 0,1.2329 -0.99976,2.23265 -2.23265,2.23265 -1.23289,0 -2.23264,-0.99975 -2.23264,-2.23265 0,-1.232889 0.99975,-2.232649 2.23264,-2.232649 z m 0,0"
       id="path861-2-8"
       inkscape:export-xdpi="19.708424"
       inkscape:export-ydpi="19.708424" />
    <path
       style="fill:#33333d;fill-opacity:1;stroke:#33333d;stroke-width:0.25290149;stroke-opacity:1"
       inkscape:connector-curvature="0"
       d="m -67.861223,-84.107079 c 1.23289,0 2.23166,0.998759 2.23166,2.232649 0,1.232882 -0.99877,2.231649 -2.23166,2.231649 -1.23289,0 -2.23264,-0.998767 -2.23264,-2.231649 0,-1.23389 0.99975,-2.232649 2.23264,-2.232649 z m 0,0"
       id="path863-5-3"
       inkscape:export-xdpi="19.708424"
       inkscape:export-ydpi="19.708424" />
    <path
       style="fill:#33333d;fill-opacity:1;stroke:#33333d;stroke-width:0.25290149;stroke-opacity:1"
       inkscape:connector-curvature="0"
       d="m -150.38036,-16.60048 c 1.2329,0 2.23265,0.99975 2.23265,2.23265 0,1.23289 -0.99975,2.23264 -2.23265,2.23264 -1.23289,0 -2.23263,-0.99975 -2.23263,-2.23264 0,-1.2329 0.99974,-2.23265 2.23263,-2.23265 z m 0,0"
       id="path865-0-0"
       inkscape:export-xdpi="19.708424"
       inkscape:export-ydpi="19.708424" />
    <path
       style="fill:#33333d;fill-opacity:1;stroke:#33333d;stroke-width:0.25290152;stroke-opacity:1"
       inkscape:connector-curvature="0"
       d="m -172.78553,-1.2741501 c 1.2329,0 2.23264,0.99975003 2.23264,2.23264003 0,1.23288997 -0.99974,2.23263997 -2.23264,2.23263997 -1.2329,0 -2.23265,-0.99975 -2.23265,-2.23263997 0,-1.23289 0.99975,-2.23264003 2.23265,-2.23264003 z m 0,0"
       id="path865-9-9-3"
       inkscape:export-xdpi="19.708424"
       inkscape:export-ydpi="19.708424" />
    <path
       style="fill:#ffffff;fill-opacity:1;stroke:#ffffff;stroke-width:0.26235619;stroke-opacity:1"
       inkscape:connector-curvature="0"
       d="m -124.93051,15.96235 c -1.24669,0.32039 -1.99399,1.57644 -1.66887,2.80501 0.32511,1.22858 1.59968,1.96502 2.84637,1.64463 l 2.25761,-0.58018 c 1.24669,-0.3204 1.99399,-1.57644 1.66888,-2.80501 -0.32512,-1.22858 -1.59969,-1.96503 -2.84638,-1.64464 z m 0,0"
       id="path847-3-4-4"
       inkscape:export-xdpi="19.708424"
       inkscape:export-ydpi="19.708424" />
    <path
       style="fill:#ffffff;fill-opacity:1;stroke:#ffffff;stroke-width:0.26235619;stroke-opacity:1"
       inkscape:connector-curvature="0"
       d="m -116.48878,11.41676 -0.58874,-2.2248101 c -0.32511,-1.22857 -1.59969,-1.96502 -2.84637,-1.64463 -1.24669,0.32039 -1.99397,1.57643 -1.66887,2.8050101 l 0.58874,2.22481 c 0.32511,1.22859 1.59968,1.96503 2.84637,1.64463 1.24669,-0.32039 1.99398,-1.57643 1.66887,-2.80501 z m 0,0"
       id="path849-7-4-1"
       inkscape:export-xdpi="19.708424"
       inkscape:export-ydpi="19.708424" />
    <path
       style="fill:#ffffff;fill-opacity:1;stroke:#ffffff;stroke-width:0.26235619;stroke-opacity:1"
       inkscape:connector-curvature="0"
       d="m -108.53944,14.12608 c -0.32511,-1.22857 -1.59967,-1.96501 -2.84636,-1.64463 l -2.25762,0.58021 c -1.24667,0.32037 -1.99299,1.57617 -1.66788,2.80475 0.32512,1.22857 1.5987,1.96527 2.84538,1.64488 l 2.25761,-0.58019 c 1.24669,-0.32039 1.99399,-1.57643 1.66887,-2.80502 z m 0,0"
       id="path851-7-4-6"
       inkscape:export-xdpi="19.708424"
       inkscape:export-ydpi="19.708424" />
    <path
       style="fill:#ffffff;fill-opacity:1;stroke:#ffffff;stroke-width:0.26235619;stroke-opacity:1"
       inkscape:connector-curvature="0"
       d="m -118.64904,21.47642 0.58874,2.22483 c 0.32512,1.22856 1.59942,1.96403 2.84611,1.64364 1.24668,-0.32038 1.99426,-1.57546 1.66914,-2.80403 l -0.58875,-2.22481 c -0.32511,-1.22858 -1.59968,-1.96502 -2.84637,-1.64463 -1.24668,0.32039 -1.99397,1.57643 -1.66887,2.805 z m 0,0"
       id="path853-8-1-8"
       inkscape:export-xdpi="19.708424"
       inkscape:export-ydpi="19.708424" />
    <path
       style="fill:#33333d;fill-opacity:1;stroke:#33333d;stroke-width:0.25290152;stroke-opacity:1"
       inkscape:connector-curvature="0"
       d="m -172.82197,-65.835319 c 1.23291,0 2.23265,0.999738 2.23265,2.232638 0,1.232893 -0.99974,2.232653 -2.23265,2.232653 -1.23288,0 -2.23264,-0.99976 -2.23264,-2.232653 0,-1.2329 0.99976,-2.232638 2.23264,-2.232638 z m 0,0"
       id="path857-3-4-2"
       inkscape:export-xdpi="19.708424"
       inkscape:export-ydpi="19.708424" />
    <path
       style="fill:#ffffff;fill-opacity:1;stroke:#ffffff;stroke-width:0.25290152;stroke-opacity:1"
       inkscape:connector-curvature="0"
       d="m -152.70374,-56.638408 c 1.23289,0 2.23263,0.999749 2.23263,2.232639 0,1.2329 -0.99974,2.232649 -2.23263,2.232649 -1.2329,0 -2.23266,-0.999749 -2.23266,-2.232649 0,-1.23289 0.99976,-2.232639 2.23266,-2.232639 z m 0,0"
       id="path857-7-9-2"
       inkscape:export-xdpi="19.708424"
       inkscape:export-ydpi="19.708424" />
    <path
       style="fill:#33333d;fill-opacity:1;stroke:#33333d;stroke-width:0.25290152;stroke-opacity:1"
       inkscape:connector-curvature="0"
       d="m -119.5566,-16.01879 c 1.2329,0 2.23266,0.99975 2.23266,2.23264 0,1.2329 -0.99976,2.23265 -2.23266,2.23265 -1.23289,0 -2.23265,-0.99975 -2.23265,-2.23265 0,-1.23289 0.99976,-2.23264 2.23265,-2.23264 z m 0,0"
       id="path857-8-3-6"
       inkscape:export-xdpi="19.708424"
       inkscape:export-ydpi="19.708424" />
    <path
       style="fill:#33333d;fill-opacity:1;stroke:#33333d;stroke-width:0.25290152;stroke-opacity:1"
       inkscape:connector-curvature="0"
       d="m -118.79019,-83.4627 c 1.23289,0 2.23265,0.999742 2.23265,2.232642 0,1.232889 -0.99976,2.232639 -2.23265,2.232639 -1.2329,0 -2.23264,-0.99975 -2.23264,-2.232639 0,-1.2329 0.99974,-2.232642 2.23264,-2.232642 z m 0,0"
       id="path857-6-7-8"
       inkscape:export-xdpi="19.708424"
       inkscape:export-ydpi="19.708424" />
    <path
       style="fill:#33333d;fill-opacity:1;stroke:#33333d;stroke-width:0.25290152;stroke-opacity:1"
       inkscape:connector-curvature="0"
       d="m -167.72707,-81.089131 c -0.92468,7.94e-4 -1.75254,0.570032 -2.08348,1.433452 -0.33193,0.862431 -0.0968,1.83946 0.58978,2.457871 l 22.32447,20.092839 c 0.58978,0.55223 1.43246,0.7429 2.20301,0.49889 0.76957,-0.245009 1.3475,-0.88714 1.51051,-1.67844 0.16299,-0.791299 -0.11461,-1.60928 -0.72612,-2.137809 l -22.32447,-20.092821 c -0.40899,-0.370469 -0.94247,-0.574961 -1.4937,-0.573982 z m 0,0"
       id="path825-2-6-1"
       inkscape:export-xdpi="19.708424"
       inkscape:export-ydpi="19.708424" />
    <path
       inkscape:connector-curvature="0"
       style="fill:#33333d;fill-opacity:1;stroke:#33333d;stroke-width:0.23;stroke-linecap:round;stroke-miterlimit:4;stroke-dasharray:none;stroke-opacity:1"
       d="m -129.85736,-51.035099 c -1.18449,0 -2.32068,0.471231 -3.15743,1.30897 l -3.16103,3.161041 c -0.83775,0.83675 -1.30951,1.97294 -1.30951,3.157439 0,1.184479 0.47176,2.320719 1.30951,3.158459 l 15.6874,15.682761 8.53436,-9.661419 c 0.12745,-0.122502 0.268,-0.229401 0.42013,-0.317301 l -15.16547,-15.18098 c -0.83774,-0.837739 -1.97348,-1.30897 -3.15796,-1.30897 z"
       id="path1083-3"
       inkscape:export-xdpi="19.708424"
       inkscape:export-ydpi="19.708424" />
    <path
       inkscape:connector-curvature="0"
       style="fill:#33333d;fill-opacity:1;stroke:#33333d;stroke-width:0.23;stroke-linecap:round;stroke-miterlimit:4;stroke-dasharray:none;stroke-opacity:1"
       d="m -108.47571,-31.50451 c -0.0385,0.0761 -0.0817,0.151141 -0.12921,0.22325 l -8.7183,9.87795 42.814417,42.81599 a 79.999999,79.999999 0 0 0 9.58546,-9.36119 z"
       id="path854-0-5"
       inkscape:export-xdpi="19.708424"
       inkscape:export-ydpi="19.708424" />
    <path
       style="fill:#000000;fill-opacity:1;stroke:#ffab40;stroke-width:2.20500016;stroke-linecap:round;stroke-linejoin:miter;stroke-miterlimit:4;stroke-dasharray:none;stroke-opacity:1"
       d="m -132.24535,-46.495019 c 0,0 0.7322,-1.03316 1.21404,-1.246589 0.49257,-0.218192 1.61453,-0.69038 2.97123,0.633399 l 13.10899,12.7908"
       id="path1072-0-6"
       inkscape:connector-curvature="0"
       sodipodi:nodetypes="cssc"
       inkscape:export-xdpi="19.708424"
       inkscape:export-ydpi="19.708424" />
    <path
       style="color:#000000;font-style:normal;font-variant:normal;font-weight:normal;font-stretch:normal;font-size:medium;line-height:normal;font-family:sans-serif;font-variant-ligatures:normal;font-variant-position:normal;font-variant-caps:normal;font-variant-numeric:normal;font-variant-alternates:normal;font-feature-settings:normal;text-indent:0;text-align:start;text-decoration:none;text-decoration-line:none;text-decoration-style:solid;text-decoration-color:#000000;letter-spacing:normal;word-spacing:normal;text-transform:none;writing-mode:lr-tb;direction:ltr;text-orientation:mixed;dominant-baseline:auto;baseline-shift:baseline;text-anchor:start;white-space:normal;shape-padding:0;clip-rule:nonzero;display:inline;overflow:visible;visibility:visible;opacity:1;isolation:auto;mix-blend-mode:normal;color-interpolation:sRGB;color-interpolation-filters:linearRGB;solid-color:#000000;solid-opacity:1;vector-effect:none;fill:#ffab40;fill-opacity:1;fill-rule:nonzero;stroke:none;stroke-width:2.20500016;stroke-linecap:round;stroke-linejoin:miter;stroke-miterlimit:4;stroke-dasharray:none;stroke-dashoffset:0;stroke-opacity:1;color-rendering:auto;image-rendering:auto;shape-rendering:auto;text-rendering:auto;enable-background:accumulate"
       d="m -108.70069,-28.874459 c -0.98981,-5.29e-4 -1.47892,1.202309 -0.76953,1.89258 l 40.673677,40.726689 c 0.85165,-0.74305 1.12132,-1.07579 1.57157,-1.54066 l -40.684707,-40.744628 c -0.20771,-0.213651 -0.49305,-0.334121 -0.79101,-0.333981 z"
       id="path1072-4-7-5"
       inkscape:connector-curvature="0"
       sodipodi:nodetypes="cccccc"
       inkscape:export-xdpi="19.708424"
       inkscape:export-ydpi="19.708424" />
    <path
       style="fill:#ffffff;fill-opacity:1;stroke:#ffffff;stroke-width:0.25290149;stroke-opacity:1"
       inkscape:connector-curvature="0"
       d="m -117.47803,-94.898179 c 1.2329,0 2.23166,0.999749 2.23166,2.232639 0,1.2329 -0.99876,2.232652 -2.23166,2.232652 -1.23389,0 -2.23265,-0.999752 -2.23265,-2.232652 0,-1.23289 0.99876,-2.232639 2.23265,-2.232639 z m 0,0"
       id="path859-5-6-8"
       inkscape:export-xdpi="19.708424"
       inkscape:export-ydpi="19.708424" />
    <path
       style="fill:#ffffff;fill-opacity:1;stroke:#ffffff;stroke-width:0.25290149;stroke-opacity:1"
       inkscape:connector-curvature="0"
       d="m -191.32717,-56.036928 c 1.2329,0 2.23166,0.999749 2.23166,2.232639 0,1.2329 -0.99876,2.232649 -2.23166,2.232649 -1.23389,0 -2.23264,-0.999749 -2.23264,-2.232649 0,-1.23289 0.99875,-2.232639 2.23264,-2.232639 z m 0,0"
       id="path859-5-6-0"
       inkscape:export-xdpi="19.708424"
       inkscape:export-ydpi="19.708424" />
    <path
       style="fill:#ffffff;fill-opacity:1;stroke:#ffffff;stroke-width:0.25290149;stroke-opacity:1"
       inkscape:connector-curvature="0"
       d="m -165.37274,-34.28146 c 1.23291,0 2.23166,0.999752 2.23166,2.232641 0,1.2329 -0.99875,2.23265 -2.23166,2.23265 -1.23388,0 -2.23264,-0.99975 -2.23264,-2.23265 0,-1.232889 0.99876,-2.232641 2.23264,-2.232641 z m 0,0"
       id="path859-5-6-2"
       inkscape:export-xdpi="19.708424"
       inkscape:export-ydpi="19.708424" />
    <path
       style="fill:#ffffff;fill-opacity:1;stroke:#ffffff;stroke-width:0.25290149;stroke-opacity:1"
       inkscape:connector-curvature="0"
       d="m -162.85209,9.8448799 c 1.2329,0 2.23167,0.9997501 2.23167,2.2326401 0,1.2329 -0.99877,2.23265 -2.23167,2.23265 -1.23389,0 -2.23264,-0.99975 -2.23264,-2.23265 0,-1.23289 0.99875,-2.2326401 2.23264,-2.2326401 z m 0,0"
       id="path859-5-6-15"
       inkscape:export-xdpi="19.708424"
       inkscape:export-ydpi="19.708424" />
    <path
       style="fill:#ffffff;fill-opacity:1;stroke:#ffffff;stroke-width:0.25290149;stroke-opacity:1"
       inkscape:connector-curvature="0"
       d="m -143.67046,-0.37852007 c 1.2329,0 2.23167,0.99975 2.23167,2.23263997 0,1.2329 -0.99877,2.23265 -2.23167,2.23265 -1.23389,0 -2.23264,-0.99975 -2.23264,-2.23265 0,-1.23288997 0.99875,-2.23263997 2.23264,-2.23263997 z m 0,0"
       id="path859-5-6-83"
       inkscape:export-xdpi="19.708424"
       inkscape:export-ydpi="19.708424" />
    <path
       style="fill:#ffffff;fill-opacity:1;stroke:#ffffff;stroke-width:0.25290149;stroke-opacity:1"
       inkscape:connector-curvature="0"
       d="m -78.563593,-18.56601 c 1.2329,0 2.23166,0.99975 2.23166,2.23264 0,1.2329 -0.99876,2.23265 -2.23166,2.23265 -1.23389,0 -2.23264,-0.99975 -2.23264,-2.23265 0,-1.23289 0.99875,-2.23264 2.23264,-2.23264 z m 0,0"
       id="path859-5-6-6"
       inkscape:export-xdpi="19.708424"
       inkscape:export-ydpi="19.708424" />
    <path
       style="fill:#ffffff;fill-opacity:1;stroke:#ffffff;stroke-width:0.25290149;stroke-opacity:1"
       inkscape:connector-curvature="0"
       d="m -91.849173,-71.408019 c 1.2329,0 2.23166,0.99975 2.23166,2.232639 0,1.2329 -0.99876,2.23265 -2.23166,2.23265 -1.23389,0 -2.23264,-0.99975 -2.23264,-2.23265 0,-1.232889 0.99875,-2.232639 2.23264,-2.232639 z m 0,0"
       id="path859-5-6-09"
       inkscape:export-xdpi="19.708424"
       inkscape:export-ydpi="19.708424" />
    <path
       style="fill:#ffffff;fill-opacity:1;stroke:#ffffff;stroke-width:0.25290149;stroke-opacity:1"
       inkscape:connector-curvature="0"
       d="m -86.795493,-93.775661 c 1.2329,0 2.23166,0.999752 2.23166,2.232642 0,1.2329 -0.99876,2.232649 -2.23166,2.232649 -1.23389,0 -2.23264,-0.999749 -2.23264,-2.232649 0,-1.23289 0.99875,-2.232642 2.23264,-2.232642 z m 0,0"
       id="path859-5-6-3"
       inkscape:export-xdpi="19.708424"
       inkscape:export-ydpi="19.708424" />
    <path
       style="fill:#ffffff;fill-opacity:1;stroke:#ffffff;stroke-width:0.25290149;stroke-opacity:1"
       inkscape:connector-curvature="0"
       d="m -126.23131,-112.53771 c 1.2329,0 2.23166,0.99975 2.23166,2.23264 0,1.2329 -0.99876,2.23265 -2.23166,2.23265 -1.2339,0 -2.23265,-0.99975 -2.23265,-2.23265 0,-1.23289 0.99875,-2.23264 2.23265,-2.23264 z m 0,0"
       id="path859-5-6-80"
       inkscape:export-xdpi="19.708424"
       inkscape:export-ydpi="19.708424" />
    <path
       style="fill:#ffffff;fill-opacity:1;stroke:#ffffff;stroke-width:0.25290149;stroke-opacity:1"
       inkscape:connector-curvature="0"
       d="m -178.46895,-85.16958 c 1.2329,0 2.23166,0.99975 2.23166,2.232642 0,1.232897 -0.99876,2.232649 -2.23166,2.232649 -1.23389,0 -2.23263,-0.999752 -2.23263,-2.232649 0,-1.232892 0.99874,-2.232642 2.23263,-2.232642 z m 0,0"
       id="path859-5-6-14"
       inkscape:export-xdpi="19.708424"
       inkscape:export-ydpi="19.708424" />
    <path
       style="fill:#ffffff;fill-opacity:1;stroke:#ffffff;stroke-width:0.26741514;stroke-opacity:1"
       inkscape:connector-curvature="0"
       d="m -185.98606,-24.774248 c -1.11923,-0.677572 -2.58499,-0.333632 -3.27334,0.768088 -0.68835,1.10173 -0.33894,2.54457 0.78029,3.22215 l 2.02682,1.22703 c 1.11922,0.67758 2.58498,0.33365 3.27332,-0.76807 0.68836,-1.10173 0.33896,-2.544579 -0.78028,-3.222169 z m 0,0"
       id="path847-2-4-2"
       inkscape:export-xdpi="19.708424"
       inkscape:export-ydpi="19.708424" />
    <path
       style="fill:#ffffff;fill-opacity:1;stroke:#ffffff;stroke-width:0.26741514;stroke-opacity:1"
       inkscape:connector-curvature="0"
       d="m -176.63229,-21.86123 1.24653,-1.995128 c 0.68835,-1.10172 0.33895,-2.544551 -0.78028,-3.222131 -1.11923,-0.67759 -2.58499,-0.33366 -3.27334,0.768091 l -1.24651,1.995099 c -0.68837,1.101741 -0.33895,2.544569 0.78028,3.222159 1.11924,0.67757 2.58498,0.33364 3.27332,-0.76809 z m 0,0"
       id="path849-1-3-1"
       inkscape:export-xdpi="19.708424"
       inkscape:export-ydpi="19.708424" />
    <path
       style="fill:#ffffff;fill-opacity:1;stroke:#ffffff;stroke-width:0.26741514;stroke-opacity:1"
       inkscape:connector-curvature="0"
       d="m -173.04579,-14.19044 c 0.68835,-1.10172 0.33895,-2.54457 -0.78028,-3.22216 l -2.02681,-1.22702 c -1.11924,-0.6776 -2.5841,-0.33311 -3.27245,0.76862 -0.68836,1.10174 -0.33984,2.54403 0.77939,3.22161 l 2.02682,1.22703 c 1.11923,0.67759 2.58499,0.33364 3.27333,-0.76808 z m 0,0"
       id="path851-8-2-6"
       inkscape:export-xdpi="19.708424"
       inkscape:export-ydpi="19.708424" />
    <path
       style="fill:#ffffff;fill-opacity:1;stroke:#ffffff;stroke-width:0.26741514;stroke-opacity:1"
       inkscape:connector-curvature="0"
       d="m -185.67201,-16.33482 -1.24652,1.99511 c -0.68835,1.10173 -0.3384,2.54368 0.78083,3.22126 1.11923,0.67759 2.58444,0.33453 3.27279,-0.7672 l 1.24653,-1.99511 c 0.68834,-1.10173 0.33895,-2.54456 -0.78029,-3.22216 -1.11924,-0.67758 -2.58499,-0.33364 -3.27334,0.7681 z m 0,0"
       id="path853-6-2-0"
       inkscape:export-xdpi="19.708424"
       inkscape:export-ydpi="19.708424" />
    <circle
       style="fill:none;fill-opacity:1;stroke:#ffffff;stroke-width:4.69899988;stroke-miterlimit:4;stroke-dasharray:none;stroke-opacity:1"
       id="path916-6"
       cx="-135.01312"
       cy="-46.240181"
       r="33.453045"
       inkscape:export-xdpi="19.708424"
       inkscape:export-ydpi="19.708424" />
  </g>
</svg>
