<?xml version="1.0" encoding="UTF-8" standalone="no"?>
<!-- Created with Inkscape (http://www.inkscape.org/) -->

<svg xmlns:dc="http://purl.org/dc/elements/1.1/" xmlns:cc="http://creativecommons.org/ns#" xmlns:rdf="http://www.w3.org/1999/02/22-rdf-syntax-ns#"
    xmlns="http://www.w3.org/2000/svg" xmlns:sodipodi="http://sodipodi.sourceforge.net/DTD/sodipodi-0.dtd"
    xmlns:inkscape="http://www.inkscape.org/namespaces/inkscape" width="28cm" height="28cm" viewBox="0 0 280 280"
    version="1.1" id="svg936" inkscape:version="0.92.4 (5da689c313, 2019-01-14)" sodipodi:docname="circle_border_nobackground.svg">
  <defs
     id="defs930" />
  <sodipodi:namedview
     id="base"
     pagecolor="#ffffff"
     bordercolor="#666666"
     borderopacity="1.0"
     inkscape:pageopacity="0.0"
     inkscape:pageshadow="2"
     inkscape:zoom="0.7"
     inkscape:cx="744.52312"
     inkscape:cy="534.88061"
     inkscape:document-units="mm"
     inkscape:current-layer="layer1"
     showgrid="false"
     fit-margin-top="0"
     fit-margin-left="0"
     fit-margin-right="0"
     fit-margin-bottom="0"
     inkscape:window-width="1920"
     inkscape:window-height="1177"
     inkscape:window-x="1912"
     inkscape:window-y="-8"
     inkscape:window-maximized="1"
     units="cm" />
  <metadata
     id="metadata933">
    <rdf:RDF>
      <cc:Work
         rdf:about="">
        <dc:format>image/svg+xml</dc:format>
        <dc:type
           rdf:resource="http://purl.org/dc/dcmitype/StillImage" />
        <dc:title></dc:title>
      </cc:Work>
    </rdf:RDF>
  </metadata>
  <g
     inkscape:label="Ebene 1"
     inkscape:groupmode="layer"
     id="layer1"
     transform="translate(-17.303209,85.725821)">
    <circle
       style="fill:none;fill-opacity:1;stroke:#ffab40;stroke-width:8.42724323;stroke-linecap:round;stroke-miterlimit:4;stroke-dasharray:none;stroke-opacity:1"
       id="path854"
       cx="157.30321"
       cy="54.274178"
       inkscape:export-xdpi="19.708424"
       inkscape:export-ydpi="19.708424"
       r="135.78638" />
    <path
       style="fill:#d8d8d8;fill-opacity:1;stroke:#d8d8d8;stroke-width:0.33344305;stroke-opacity:1"
       inkscape:connector-curvature="0"
       d="M 114.21977,40.279706 H 84.247712 c -1.655168,0 -2.997349,1.294538 -2.997349,2.890961 0,1.59644 1.342181,2.890977 2.997349,2.890977 h 29.972058 c 1.65519,0 2.99603,-1.294537 2.99603,-2.890977 0,-1.596423 -1.34084,-2.890961 -2.99603,-2.890961 z m 0,0"
       id="path819-8"
       inkscape:export-xdpi="19.708424"
       inkscape:export-ydpi="19.708424" />
    <path
       style="fill:#d8d8d8;fill-opacity:1;stroke:#d8d8d8;stroke-width:0.32152802;stroke-opacity:1"
       inkscape:connector-curvature="0"
       d="m 141.53934,-10.699521 v 30.422292 c 0,1.680102 1.18583,3.042498 2.64817,3.042498 1.46234,0 2.647,-1.362396 2.647,-3.042498 v -30.422292 c 0,-1.680103 -1.18466,-3.042498 -2.647,-3.042498 -1.46234,0 -2.64817,1.362395 -2.64817,3.042498 z m 0,0"
       id="path821-3"
       inkscape:export-xdpi="19.708424"
       inkscape:export-ydpi="19.708424" />
    <path
       style="fill:#ffab40;fill-opacity:1;stroke:#ffab40;stroke-width:0.42925721;stroke-opacity:1"
       inkscape:connector-curvature="0"
       d="m 89.654827,99.975269 c 0.751204,0.669041 1.737149,1.011111 2.741544,0.952401 1.004395,-0.0587 1.945071,-0.51474 2.612445,-1.267631 L 125.32343,65.555883 c 0.90042,-1.014461 1.1905,-2.433021 0.76126,-3.720785 -0.42926,-1.286101 -1.51247,-2.246907 -2.84215,-2.520211 -1.3297,-0.271641 -2.70298,0.186111 -3.60342,1.202251 L 89.32451,94.621296 c -0.667374,0.752884 -1.007755,1.740492 -0.945719,2.744888 0.06212,1.004412 0.521488,1.943409 1.276036,2.609085 z m 0,0"
       id="path823-4"
       inkscape:export-xdpi="19.708424"
       inkscape:export-ydpi="19.708424" />
    <path
       style="fill:#ffab40;fill-opacity:1;stroke:#ffab40;stroke-width:0.42925721;stroke-opacity:1"
       inkscape:connector-curvature="0"
       d="m 202.06488,-20.327421 c -10e-4,-1.569469 -0.96752,-2.974621 -2.43303,-3.536335 -1.46383,-0.563412 -3.12216,-0.164302 -4.17183,1.001034 l -34.10415,37.89202 c -0.93731,1.001034 -1.26095,2.431323 -0.84676,3.739217 0.41581,1.306215 1.50575,2.287135 2.84884,2.563817 1.34312,0.276665 2.7315,-0.194514 3.62857,-1.232447 l 34.10414,-37.892004 c 0.62881,-0.694191 0.9759,-1.599649 0.97422,-2.535302 z m 0,0"
       id="path825-1"
       inkscape:export-xdpi="19.708424"
       inkscape:export-ydpi="19.708424" />
    <path
       style="fill:#d8d8d8;fill-opacity:1;stroke:#d8d8d8;stroke-width:0.33711633;stroke-opacity:1"
       inkscape:connector-curvature="0"
       d="m 141.09812,106.11988 c 1.51995,0 2.75251,-1.44092 2.75251,-3.21786 V 73.942779 c 0,-1.776934 -1.23256,-3.217849 -2.75251,-3.217849 -1.51999,0 -2.75252,1.440915 -2.75252,3.217849 v 28.959241 c 0,1.77694 1.23253,3.21786 2.75252,3.21786 z m 0,0"
       id="path827-7"
       inkscape:export-xdpi="19.708424"
       inkscape:export-ydpi="19.708424" />
    <path
       style="fill:#d8d8d8;fill-opacity:1;stroke:#d8d8d8;stroke-width:0.31464231;stroke-opacity:1"
       inkscape:connector-curvature="0"
       d="m 198.34482,35.851747 h -25.19219 c -1.73903,0 -3.14782,1.097086 -3.14782,2.450044 0,1.352925 1.40879,2.450011 3.14782,2.450011 h 25.19219 c 1.73902,0 3.1492,-1.097086 3.1492,-2.450011 0,-1.352958 -1.41018,-2.450044 -3.1492,-2.450044 z m 0,0"
       id="path829-8"
       inkscape:export-xdpi="19.708424"
       inkscape:export-ydpi="19.708424" />
    <path
       style="fill:#d8d8d8;fill-opacity:1;stroke:#d8d8d8;stroke-width:0.42925721;stroke-opacity:1"
       inkscape:connector-curvature="0"
       d="m 102.14485,-34.316983 c -0.40794,2.052498 0.92397,4.0473 2.97812,4.455559 l 3.71518,0.73839 c 2.05247,0.407936 4.04762,-0.925622 4.45556,-2.978118 0.40793,-2.052479 -0.92565,-4.047622 -2.97812,-4.455541 l -3.71519,-0.738389 c -2.05413,-0.408259 -4.04763,0.925621 -4.45555,2.978099 z m 0,0"
       id="path831-9"
       inkscape:export-xdpi="19.708424"
       inkscape:export-ydpi="19.708424" />
    <path
       style="fill:#d8d8d8;fill-opacity:1;stroke:#d8d8d8;stroke-width:0.42925721;stroke-opacity:1"
       inkscape:connector-curvature="0"
       d="m 115.50953,-43.250011 -0.7387,3.71683 c -0.40794,2.052495 0.92595,4.045993 2.97844,4.453928 2.05247,0.40792 4.04729,-0.924009 4.45521,-2.976489 l 0.73874,-3.716829 c 0.40791,-2.052496 -0.92565,-4.047622 -2.97812,-4.455559 -2.0525,-0.407918 -4.04762,0.92564 -4.45557,2.978119 z m 0,0"
       id="path833-5"
       inkscape:export-xdpi="19.708424"
       inkscape:export-ydpi="19.708424" />
    <path
       style="fill:#d8d8d8;fill-opacity:1;stroke:#d8d8d8;stroke-width:0.42925721;stroke-opacity:1"
       inkscape:connector-curvature="0"
       d="m 127.42233,-25.429442 c 2.05249,0.407937 4.04764,-0.925621 4.45556,-2.978099 0.40794,-2.052497 -0.92564,-4.04764 -2.97812,-4.455559 l -3.71683,-0.73873 c -2.05249,-0.407919 -4.04764,0.92564 -4.45556,2.978119 -0.40793,2.052495 0.92565,4.047623 2.97812,4.455558 z m 0,0"
       id="path835-1"
       inkscape:export-xdpi="19.708424"
       inkscape:export-ydpi="19.708424" />
    <path
       style="fill:#d8d8d8;fill-opacity:1;stroke:#d8d8d8;stroke-width:0.42925721;stroke-opacity:1"
       inkscape:connector-curvature="0"
       d="m 111.81627,-24.667476 -0.73872,3.716847 c -0.40793,2.052478 0.92563,4.047622 2.97812,4.455558 2.05249,0.407919 4.04762,-0.925639 4.45556,-2.978118 l 0.73871,-3.716846 c 0.40793,-2.052479 -0.92564,-4.047623 -2.97812,-4.455558 -2.05248,-0.40792 -4.04762,0.925639 -4.45555,2.978117 z m 0,0"
       id="path837-4"
       inkscape:export-xdpi="19.708424"
       inkscape:export-ydpi="19.708424" />
    <path
       style="fill:#d8d8d8;fill-opacity:1;stroke:#d8d8d8;stroke-width:0.42925721;stroke-opacity:1"
       inkscape:connector-curvature="0"
       d="m 204.41807,47.575831 c -1.7825,-1.096254 -4.11688,-0.539784 -5.21315,1.2427 -1.09626,1.782503 -0.5398,4.116874 1.24269,5.213145 l 3.22794,1.985213 c 1.78247,1.096273 4.11687,0.53982 5.21312,-1.242666 1.09629,-1.782501 0.53981,-4.11689 -1.24268,-5.213178 z m 0,0"
       id="path847-2"
       inkscape:export-xdpi="19.708424"
       inkscape:export-ydpi="19.708424" />
    <path
       style="fill:#d8d8d8;fill-opacity:1;stroke:#d8d8d8;stroke-width:0.42925721;stroke-opacity:1"
       inkscape:connector-curvature="0"
       d="m 219.31495,52.288824 1.98524,-3.227914 c 1.09627,-1.782503 0.5398,-4.116873 -1.24269,-5.213145 -1.78248,-1.096271 -4.11687,-0.539801 -5.21315,1.2427 l -1.98521,3.227914 c -1.09628,1.782501 -0.53982,4.116873 1.24269,5.213144 1.7825,1.096255 4.11688,0.539802 5.21312,-1.242699 z m 0,0"
       id="path849-1"
       inkscape:export-xdpi="19.708424"
       inkscape:export-ydpi="19.708424" />
    <path
       style="fill:#d8d8d8;fill-opacity:1;stroke:#d8d8d8;stroke-width:0.42925721;stroke-opacity:1"
       inkscape:connector-curvature="0"
       d="m 225.02682,64.699478 c 1.09629,-1.782484 0.53983,-4.116891 -1.24268,-5.213162 l -3.2279,-1.985213 c -1.78249,-1.096288 -4.11546,-0.538936 -5.21173,1.243565 -1.09627,1.782502 -0.54122,4.116007 1.24127,5.212262 l 3.22792,1.985231 c 1.7825,1.096272 4.11687,0.539802 5.21312,-1.242683 z m 0,0"
       id="path851-8"
       inkscape:export-xdpi="19.708424"
       inkscape:export-ydpi="19.708424" />
    <path
       style="fill:#d8d8d8;fill-opacity:1;stroke:#d8d8d8;stroke-width:0.42925721;stroke-opacity:1"
       inkscape:connector-curvature="0"
       d="m 204.91822,61.230068 -1.98521,3.227898 c -1.09627,1.782501 -0.53894,4.115447 1.24354,5.211718 1.78251,1.096271 4.11602,0.541227 5.21228,-1.241275 l 1.98523,-3.227896 c 1.09626,-1.782502 0.53982,-4.116873 -1.24269,-5.213162 -1.78251,-1.096271 -4.11688,-0.539801 -5.21315,1.242717 z m 0,0"
       id="path853-6"
       inkscape:export-xdpi="19.708424"
       inkscape:export-ydpi="19.708424" />
    <path
       style="fill:#d8d8d8;fill-opacity:1;stroke:#d8d8d8;stroke-width:0.42925721;stroke-opacity:1"
       inkscape:connector-curvature="0"
       d="m 62.873696,61.222566 c 2.092622,0 3.789525,1.696906 3.789525,3.789527 0,2.09262 -1.696903,3.789526 -3.789525,3.789526 -2.092639,0 -3.789543,-1.696906 -3.789543,-3.789526 0,-2.092621 1.696904,-3.789527 3.789543,-3.789527 z m 0,0"
       id="path857-0"
       inkscape:export-xdpi="19.708424"
       inkscape:export-ydpi="19.708424" />
    <path
       style="fill:#d8d8d8;fill-opacity:1;stroke:#d8d8d8;stroke-width:0.42925721;stroke-opacity:1"
       inkscape:connector-curvature="0"
       d="m 202.06488,2.408124 c 2.09263,0 3.78785,1.6969055 3.78785,3.7895263 0,2.0926378 -1.69522,3.7895434 -3.78785,3.7895434 -2.09432,0 -3.78953,-1.6969056 -3.78953,-3.7895434 0,-2.0926208 1.69521,-3.7895263 3.78953,-3.7895263 z m 0,0"
       id="path859-5"
       inkscape:export-xdpi="19.708424"
       inkscape:export-ydpi="19.708424" />
    <path
       style="fill:#d8d8d8;fill-opacity:1;stroke:#d8d8d8;stroke-width:0.42925721;stroke-opacity:1"
       inkscape:connector-curvature="0"
       d="m 243.74642,28.933212 c 2.09262,0 3.78954,1.696906 3.78954,3.789527 0,2.092635 -1.69692,3.789541 -3.78954,3.789541 -2.09263,0 -3.78953,-1.696906 -3.78953,-3.789541 0,-2.092621 1.6969,-3.789527 3.78953,-3.789527 z m 0,0"
       id="path861-2"
       inkscape:export-xdpi="19.708424"
       inkscape:export-ydpi="19.708424" />
    <path
       style="fill:#ffab40;fill-opacity:1;stroke:#ffab40;stroke-width:0.42925721;stroke-opacity:1"
       inkscape:connector-curvature="0"
       d="m 255.11503,-20.327421 c 2.09262,0 3.78787,1.695225 3.78787,3.789543 0,2.092622 -1.69525,3.787863 -3.78787,3.787863 -2.09262,0 -3.78953,-1.695241 -3.78953,-3.787863 0,-2.094318 1.69691,-3.789543 3.78953,-3.789543 z m 0,0"
       id="path863-5"
       inkscape:export-xdpi="19.708424"
       inkscape:export-ydpi="19.708424" />
    <path
       style="fill:#ffab40;fill-opacity:1;stroke:#ffab40;stroke-width:0.42925721;stroke-opacity:1"
       inkscape:connector-curvature="0"
       d="m 115.05287,94.253536 c 2.09264,0 3.78955,1.696905 3.78955,3.789543 0,2.092621 -1.69691,3.789531 -3.78955,3.789531 -2.09262,0 -3.78953,-1.69691 -3.78953,-3.789531 0,-2.092638 1.69691,-3.789543 3.78953,-3.789543 z m 0,0"
       id="path865-0"
       inkscape:export-xdpi="19.708424"
       inkscape:export-ydpi="19.708424" />
    <path
       style="fill:#ffab40;fill-opacity:1;stroke:#ffab40;stroke-width:0.42925727;stroke-opacity:1"
       inkscape:connector-curvature="0"
       d="m 77.02391,120.26736 c 2.092621,0 3.789527,1.69692 3.789527,3.78954 0,2.09261 -1.696906,3.78952 -3.789527,3.78952 -2.092638,0 -3.789542,-1.69691 -3.789542,-3.78952 0,-2.09262 1.696904,-3.78954 3.789542,-3.78954 z m 0,0"
       id="path865-9-9"
       inkscape:export-xdpi="19.708424"
       inkscape:export-ydpi="19.708424" />
    <path
       style="fill:#d8d8d8;fill-opacity:1;stroke:#d8d8d8;stroke-width:0.42925727;stroke-opacity:1"
       inkscape:connector-curvature="0"
       d="m 141.04886,143.70907 c -2.02493,0.52806 -3.2387,2.59826 -2.71064,4.62315 0.52805,2.02493 2.59823,3.23872 4.62314,2.71064 l 3.6669,-0.95624 c 2.02491,-0.52808 3.2387,-2.59825 2.71065,-4.62315 -0.52806,-2.02491 -2.59824,-3.2387 -4.62317,-2.71066 z m 0,0"
       id="path847-3-4"
       inkscape:export-xdpi="19.708424"
       inkscape:export-ydpi="19.708424" />
    <path
       style="fill:#d8d8d8;fill-opacity:1;stroke:#d8d8d8;stroke-width:0.42925727;stroke-opacity:1"
       inkscape:connector-curvature="0"
       d="m 154.76018,136.21713 -0.95625,-3.66689 c -0.52806,-2.0249 -2.59827,-3.23869 -4.62315,-2.71064 -2.02493,0.52805 -3.2387,2.59824 -2.71064,4.62315 l 0.95626,3.66689 c 0.52806,2.02494 2.59824,3.23871 4.62315,2.71064 2.02491,-0.52806 3.23868,-2.59825 2.71063,-4.62315 z m 0,0"
       id="path849-7-4"
       inkscape:export-xdpi="19.708424"
       inkscape:export-ydpi="19.708424" />
    <path
       style="fill:#d8d8d8;fill-opacity:1;stroke:#d8d8d8;stroke-width:0.42925727;stroke-opacity:1"
       inkscape:connector-curvature="0"
       d="m 167.67179,140.68257 c -0.52806,-2.0249 -2.59827,-3.23869 -4.62317,-2.71063 l -3.66689,0.95627 c -2.0249,0.52804 -3.23708,2.59781 -2.70903,4.62273 0.52808,2.02491 2.59664,3.2391 4.62155,2.71105 l 3.66689,-0.95626 c 2.02491,-0.52805 3.2387,-2.59824 2.71065,-4.62316 z m 0,0"
       id="path851-7-4"
       inkscape:export-xdpi="19.708424"
       inkscape:export-ydpi="19.708424" />
    <path
       style="fill:#d8d8d8;fill-opacity:1;stroke:#d8d8d8;stroke-width:0.42925727;stroke-opacity:1"
       inkscape:connector-curvature="0"
       d="m 151.25143,152.79724 0.95626,3.66691 c 0.52806,2.0249 2.59783,3.23708 4.62274,2.70902 2.0249,-0.52805 3.23911,-2.59665 2.71104,-4.62153 l -0.95626,-3.6669 c -0.52806,-2.02491 -2.59823,-3.2387 -4.62314,-2.71064 -2.0249,0.52806 -3.23869,2.59823 -2.71064,4.62314 z m 0,0"
       id="path853-8-1"
       inkscape:export-xdpi="19.708424"
       inkscape:export-ydpi="19.708424" />
    <path
       style="fill:#ffab40;fill-opacity:1;stroke:#ffab40;stroke-width:0.42925727;stroke-opacity:1"
       inkscape:connector-curvature="0"
       d="m 76.96206,10.685781 c 2.092638,0 3.789543,1.696905 3.789543,3.789542 0,2.092621 -1.696905,3.789527 -3.789543,3.789527 -2.092621,0 -3.789543,-1.696906 -3.789543,-3.789527 0,-2.092637 1.696922,-3.789542 3.789543,-3.789542 z m 0,0"
       id="path857-3-4"
       inkscape:export-xdpi="19.708424"
       inkscape:export-ydpi="19.708424" />
    <path
       style="fill:#d8d8d8;fill-opacity:1;stroke:#d8d8d8;stroke-width:0.42925727;stroke-opacity:1"
       inkscape:connector-curvature="0"
       d="m 111.10931,26.295969 c 2.09262,0 3.78954,1.696906 3.78954,3.789526 0,2.092638 -1.69692,3.789543 -3.78954,3.789543 -2.09263,0 -3.78954,-1.696905 -3.78954,-3.789543 0,-2.09262 1.69691,-3.789526 3.78954,-3.789526 z m 0,0"
       id="path857-7-9"
       inkscape:export-xdpi="19.708424"
       inkscape:export-ydpi="19.708424" />
    <path
       style="fill:#ffab40;fill-opacity:1;stroke:#ffab40;stroke-width:0.42925727;stroke-opacity:1"
       inkscape:connector-curvature="0"
       d="m 167.37095,95.240855 c 2.09262,0 3.78954,1.696905 3.78954,3.789527 0,2.092638 -1.69692,3.789538 -3.78954,3.789538 -2.09263,0 -3.78955,-1.6969 -3.78955,-3.789538 0,-2.092622 1.69692,-3.789527 3.78955,-3.789527 z m 0,0"
       id="path857-8-3"
       inkscape:export-xdpi="19.708424"
       inkscape:export-ydpi="19.708424" />
    <path
       style="fill:#ffab40;fill-opacity:1;stroke:#ffab40;stroke-width:0.42925727;stroke-opacity:1"
       inkscape:connector-curvature="0"
       d="m 168.6718,-19.233695 c 2.09261,0 3.78954,1.696904 3.78954,3.789526 0,2.092637 -1.69693,3.789526 -3.78954,3.789526 -2.09264,0 -3.78954,-1.696889 -3.78954,-3.789526 0,-2.092622 1.6969,-3.789526 3.78954,-3.789526 z m 0,0"
       id="path857-6-7"
       inkscape:export-xdpi="19.708424"
       inkscape:export-ydpi="19.708424" />
    <path
       style="fill:#ffab40;fill-opacity:1;stroke:#ffab40;stroke-width:0.42925727;stroke-opacity:1"
       inkscape:connector-curvature="0"
       d="m 85.609767,-15.204948 c -1.569469,0.0013 -2.97462,0.967512 -3.536351,2.433021 -0.563395,1.463844 -0.164302,3.1221698 1.001051,4.1718325 L 120.96647,25.504063 c 1.00104,0.937316 2.43133,1.260947 3.73924,0.846781 1.30621,-0.415845 2.28713,-1.505753 2.56381,-2.848866 0.27666,-1.343097 -0.19451,-2.731479 -1.23244,-3.628552 L 88.14507,-14.230732 c -0.694191,-0.628792 -1.599666,-0.975896 -2.535303,-0.974216 z m 0,0"
       id="path825-2-6"
       inkscape:export-xdpi="19.708424"
       inkscape:export-ydpi="19.708424" />
    <path
       style="fill:#ffab40;fill-opacity:1;stroke:#ffab40;stroke-width:0.39038584;stroke-linecap:round;stroke-miterlimit:4;stroke-dasharray:none;stroke-opacity:1"
       d="m 149.88682,35.806969 c -2.01045,0 -3.93896,0.79984 -5.35919,2.221741 l -5.36534,5.365343 c -1.42194,1.420239 -2.22261,3.348709 -2.22261,5.359197 0,2.010454 0.80067,3.939033 2.22261,5.360954 L 165.789,80.733025 180.27462,64.334398 c 0.21634,-0.207922 0.4549,-0.389352 0.71311,-0.538548 L 155.2469,38.02871 c -1.42193,-1.421901 -3.3496,-2.221741 -5.36008,-2.221741 z m 0.0526,3.276041 c 1.32689,0.05226 2.89116,0.667799 4.30665,2.048951 l 22.24726,21.71046 a 1.8712258,1.8712259 0 1 1 -2.61207,2.678721 l -22.25075,-21.71046 c -0.88725,-0.865689 -1.42671,-0.970661 -1.83669,-0.987637 -0.40997,-0.01612 -0.74626,0.110528 -1.14025,0.285065 0.29236,-0.129507 -0.32227,0.283989 -0.67362,0.695557 -0.35138,0.41155 -0.62013,0.789406 -0.62013,0.789406 a 1.8712258,1.8712259 0 1 1 -3.05238,-2.161223 c 0,0 0.3535,-0.498488 0.82801,-1.054298 0.47449,-0.555807 0.89225,-1.199335 2.00245,-1.691085 0.44204,-0.195822 1.47463,-0.655735 2.80153,-0.603457 z"
       id="path1083"
       inkscape:connector-curvature="0" />
    <path
       style="fill:#ffab40;fill-opacity:1;stroke:#ffab40;stroke-width:0.39038584;stroke-linecap:round;stroke-miterlimit:4;stroke-dasharray:none;stroke-opacity:1"
       d="m 186.17852,68.956818 c -0.0653,0.129171 -0.13865,0.256522 -0.21928,0.378916 l -14.79788,16.76614 72.67022,72.672856 a 135.78637,135.78638 0 0 0 16.26969,-15.88902 z m -0.38155,4.463664 c 0.50576,-2.38e-4 0.99034,0.203984 1.34287,0.566616 l 69.05474,69.157362 c -0.76423,0.78903 -1.22179,1.35349 -2.66732,2.61468 L 184.49095,76.632492 c -1.20407,-1.171614 -0.37399,-3.212912 1.30602,-3.21201 z"
       id="path854-0"
       inkscape:connector-curvature="0" />
  </g>
</svg>
