<?xml version="1.0" encoding="UTF-8" standalone="no"?>
<!-- Created with Inkscape (http://www.inkscape.org/) -->

<svg xmlns:dc="http://purl.org/dc/elements/1.1/" xmlns:cc="http://creativecommons.org/ns#" xmlns:rdf="http://www.w3.org/1999/02/22-rdf-syntax-ns#"
    xmlns="http://www.w3.org/2000/svg" xmlns:sodipodi="http://sodipodi.sourceforge.net/DTD/sodipodi-0.dtd"
    xmlns:inkscape="http://www.inkscape.org/namespaces/inkscape" width="164.965mm" height="164.965mm" viewBox="0 0 164.965 164.965"
    version="1.1" id="svg936" inkscape:version="0.92.4 (5da689c313, 2019-01-14)" sodipodi:docname="circle_border_outlines.svg">
  <defs
     id="defs930" />
  <sodipodi:namedview
     id="base"
     pagecolor="#ffffff"
     bordercolor="#666666"
     borderopacity="1.0"
     inkscape:pageopacity="0.0"
     inkscape:pageshadow="2"
     inkscape:zoom="0.98994949"
     inkscape:cx="466.45684"
     inkscape:cy="209.6123"
     inkscape:document-units="mm"
     inkscape:current-layer="layer1"
     showgrid="false"
     fit-margin-top="0"
     fit-margin-left="0"
     fit-margin-right="0"
     fit-margin-bottom="0"
     inkscape:window-width="1920"
     inkscape:window-height="1137"
     inkscape:window-x="-8"
     inkscape:window-y="-8"
     inkscape:window-maximized="1" />
  <metadata
     id="metadata933">
    <rdf:RDF>
      <cc:Work
         rdf:about="">
        <dc:format>image/svg+xml</dc:format>
        <dc:type
           rdf:resource="http://purl.org/dc/dcmitype/StillImage" />
        <dc:title></dc:title>
      </cc:Work>
    </rdf:RDF>
  </metadata>
  <g
     inkscape:label="Ebene 1"
     inkscape:groupmode="layer"
     id="layer1"
     transform="translate(-17.303213,-29.309171)">
    <circle
       style="fill:none;fill-opacity:1;stroke:#000000;stroke-width:4.96500063;stroke-linecap:round;stroke-miterlimit:4;stroke-dasharray:none;stroke-opacity:1"
       id="path854"
       cx="99.785713"
       cy="111.79167"
       r="80"
       inkscape:export-xdpi="19.708424"
       inkscape:export-ydpi="19.708424" />
    <path
       style="fill:#000000;fill-opacity:1;stroke:#000000;stroke-width:0.19645154;stroke-opacity:1"
       inkscape:connector-curvature="0"
       d="m 74.402643,103.54668 h -17.65836 c -0.97516,0 -1.76592,0.76269 -1.76592,1.70324 0,0.94056 0.79076,1.70325 1.76592,1.70325 h 17.65836 c 0.97517,0 1.76514,-0.76269 1.76514,-1.70325 0,-0.94055 -0.78997,-1.70324 -1.76514,-1.70324 z m 0,0"
       id="path819-8"
       inkscape:export-xdpi="19.708424"
       inkscape:export-ydpi="19.708424" />
    <path
       style="fill:#000000;fill-opacity:1;stroke:#000000;stroke-width:0.18943168;stroke-opacity:1"
       inkscape:connector-curvature="0"
       d="m 90.498263,73.511721 v 17.92362 c 0,0.98985 0.69864,1.79252 1.5602,1.79252 0.86155,0 1.5595,-0.80267 1.5595,-1.79252 v -17.92362 c 0,-0.98985 -0.69795,-1.79252 -1.5595,-1.79252 -0.86156,0 -1.5602,0.80267 -1.5602,1.79252 z m 0,0"
       id="path821-3"
       inkscape:export-xdpi="19.708424"
       inkscape:export-ydpi="19.708424" />
    <path
       style="fill:#000000;fill-opacity:1;stroke:#000000;stroke-width:0.25290149;stroke-opacity:1"
       inkscape:connector-curvature="0"
       d="m 59.929943,138.71696 c 0.44258,0.39417 1.02346,0.59571 1.61521,0.56112 0.59175,-0.0346 1.14596,-0.30327 1.53915,-0.74684 l 17.86018,-20.09283 c 0.5305,-0.59768 0.7014,-1.43344 0.4485,-2.19214 -0.2529,-0.75772 -0.89108,-1.32379 -1.67448,-1.48481 -0.78341,-0.16004 -1.59249,0.10965 -2.12299,0.70832 l -17.86018,20.09283 c -0.39319,0.44357 -0.59373,1.02543 -0.55718,1.61718 0.0366,0.59176 0.30724,1.14498 0.75179,1.53717 z m 0,0"
       id="path823-4"
       inkscape:export-xdpi="19.708424"
       inkscape:export-ydpi="19.708424" />
    <path
       style="fill:#000000;fill-opacity:1;stroke:#000000;stroke-width:0.25290149;stroke-opacity:1"
       inkscape:connector-curvature="0"
       d="m 126.15753,67.839341 c -8e-4,-0.92467 -0.57002,-1.75253 -1.43344,-2.08347 -0.86244,-0.33194 -1.83946,-0.0968 -2.45788,0.58977 l -20.09283,22.32449 c -0.55223,0.58977 -0.7429,1.43244 -0.49888,2.203 0.24499,0.76957 0.88713,1.34749 1.67843,1.5105 0.79131,0.163 1.60929,-0.1146 2.13781,-0.72611 l 20.09282,-22.32448 c 0.37047,-0.40899 0.57496,-0.94245 0.57397,-1.4937 z m 0,0"
       id="path825-1"
       inkscape:export-xdpi="19.708424"
       inkscape:export-ydpi="19.708424" />
    <path
       style="fill:#000000;fill-opacity:1;stroke:#000000;stroke-width:0.1929611;stroke-opacity:1"
       inkscape:connector-curvature="0"
       d="m 90.147283,142.33712 c 0.84524,0 1.53065,-0.84893 1.53065,-1.89583 v -17.06165 c 0,-1.0469 -0.68541,-1.89583 -1.53065,-1.89583 -0.84525,0 -1.53065,0.84893 -1.53065,1.89583 v 17.06165 c 0,1.0469 0.6854,1.89583 1.53065,1.89583 z m 0,0"
       id="path827-7"
       inkscape:export-xdpi="19.708424"
       inkscape:export-ydpi="19.708424" />
    <path
       style="fill:#000000;fill-opacity:1;stroke:#000000;stroke-width:0.1853749;stroke-opacity:1"
       inkscape:connector-curvature="0"
       d="m 123.96582,100.9379 h -14.84225 c -1.02457,0 -1.85457,0.64636 -1.85457,1.44347 0,0.79709 0.83,1.44345 1.85457,1.44345 h 14.84225 c 1.02456,0 1.85538,-0.64636 1.85538,-1.44345 0,-0.79711 -0.83082,-1.44347 -1.85538,-1.44347 z m 0,0"
       id="path829-8"
       inkscape:export-xdpi="19.708424"
       inkscape:export-ydpi="19.708424" />
    <path
       style="fill:#000000;fill-opacity:1;stroke:#000000;stroke-width:0.25290149;stroke-opacity:1"
       inkscape:connector-curvature="0"
       d="m 67.288573,59.597241 c -0.24034,1.20925 0.54437,2.38451 1.75459,2.62504 l 2.18884,0.43503 c 1.20924,0.24034 2.3847,-0.54534 2.62504,-1.75459 0.24034,-1.20924 -0.54535,-2.3847 -1.75459,-2.62503 l -2.18885,-0.43503 c -1.21021,-0.24053 -2.3847,0.54534 -2.62503,1.75458 z m 0,0"
       id="path831-9"
       inkscape:export-xdpi="19.708424"
       inkscape:export-ydpi="19.708424" />
    <path
       style="fill:#000000;fill-opacity:1;stroke:#000000;stroke-width:0.25290149;stroke-opacity:1"
       inkscape:connector-curvature="0"
       d="m 75.162523,54.334251 -0.43522,2.18981 c -0.24034,1.20925 0.54554,2.38374 1.75478,2.62408 1.20924,0.24033 2.38451,-0.54439 2.62484,-1.75363 l 0.43523,-2.18981 c 0.24033,-1.20925 -0.54535,-2.3847 -1.75459,-2.62504 -1.20925,-0.24033 -2.3847,0.54535 -2.62504,1.75459 z m 0,0"
       id="path833-5"
       inkscape:export-xdpi="19.708424"
       inkscape:export-ydpi="19.708424" />
    <path
       style="fill:#000000;fill-opacity:1;stroke:#000000;stroke-width:0.25290149;stroke-opacity:1"
       inkscape:connector-curvature="0"
       d="m 82.181073,64.833431 c 1.20925,0.24034 2.38471,-0.54534 2.62504,-1.75458 0.24034,-1.20925 -0.54535,-2.38471 -1.75459,-2.62504 l -2.18981,-0.43523 c -1.20925,-0.24033 -2.38471,0.54535 -2.62504,1.75459 -0.24034,1.20925 0.54535,2.3847 1.75459,2.62504 z m 0,0"
       id="path835-1"
       inkscape:export-xdpi="19.708424"
       inkscape:export-ydpi="19.708424" />
    <path
       style="fill:#000000;fill-opacity:1;stroke:#000000;stroke-width:0.25290149;stroke-opacity:1"
       inkscape:connector-curvature="0"
       d="m 72.986593,65.282351 -0.43522,2.18982 c -0.24034,1.20924 0.54534,2.3847 1.75459,2.62504 1.20924,0.24033 2.3847,-0.54535 2.62504,-1.75459 l 0.43522,-2.18982 c 0.24034,-1.20924 -0.54535,-2.3847 -1.75459,-2.62504 -1.20924,-0.24033 -2.3847,0.54535 -2.62504,1.75459 z m 0,0"
       id="path837-4"
       inkscape:export-xdpi="19.708424"
       inkscape:export-ydpi="19.708424" />
    <path
       style="fill:#000000;fill-opacity:1;stroke:#000000;stroke-width:0.25290149;stroke-opacity:1"
       inkscape:connector-curvature="0"
       d="m 127.54394,107.84527 c -1.05018,-0.64587 -2.4255,-0.31802 -3.07138,0.73215 -0.64588,1.05018 -0.31803,2.4255 0.73214,3.07138 l 1.90177,1.16961 c 1.05017,0.64588 2.4255,0.31804 3.07137,-0.73213 0.64589,-1.05018 0.31804,-2.42551 -0.73214,-3.0714 z m 0,0"
       id="path847-2"
       inkscape:export-xdpi="19.708424"
       inkscape:export-ydpi="19.708424" />
    <path
       style="fill:#000000;fill-opacity:1;stroke:#000000;stroke-width:0.25290149;stroke-opacity:1"
       inkscape:connector-curvature="0"
       d="m 136.3206,110.62198 1.16962,-1.90176 c 0.64588,-1.05018 0.31803,-2.4255 -0.73214,-3.07138 -1.05017,-0.64588 -2.4255,-0.31803 -3.07138,0.73215 l -1.16961,1.90176 c -0.64589,1.05018 -0.31804,2.4255 0.73214,3.07138 1.05018,0.64587 2.4255,0.31803 3.07137,-0.73215 z m 0,0"
       id="path849-1"
       inkscape:export-xdpi="19.708424"
       inkscape:export-ydpi="19.708424" />
    <path
       style="fill:#000000;fill-opacity:1;stroke:#000000;stroke-width:0.25290149;stroke-opacity:1"
       inkscape:connector-curvature="0"
       d="m 139.68581,117.93385 c 0.64589,-1.05017 0.31804,-2.42551 -0.73214,-3.07139 l -1.90175,-1.16961 c -1.05018,-0.64589 -2.42467,-0.31752 -3.07055,0.73266 -0.64588,1.05018 -0.31887,2.42499 0.73131,3.07086 l 1.90176,1.16962 c 1.05018,0.64588 2.4255,0.31803 3.07137,-0.73214 z m 0,0"
       id="path851-8"
       inkscape:export-xdpi="19.708424"
       inkscape:export-ydpi="19.708424" />
    <path
       style="fill:#000000;fill-opacity:1;stroke:#000000;stroke-width:0.25290149;stroke-opacity:1"
       inkscape:connector-curvature="0"
       d="m 127.83861,115.88981 -1.16961,1.90175 c -0.64588,1.05018 -0.31752,2.42466 0.73265,3.07054 1.05018,0.64588 2.42499,0.31887 3.07087,-0.73131 l 1.16962,-1.90175 c 0.64587,-1.05018 0.31803,-2.4255 -0.73215,-3.07139 -1.05018,-0.64588 -2.4255,-0.31803 -3.07138,0.73216 z m 0,0"
       id="path853-6"
       inkscape:export-xdpi="19.708424"
       inkscape:export-ydpi="19.708424" />
    <path
       style="fill:#000000;fill-opacity:1;stroke:#000000;stroke-width:0.25290149;stroke-opacity:1"
       inkscape:connector-curvature="0"
       d="m 44.151553,115.88539 c 1.23289,0 2.232639,0.99975 2.232639,2.23264 0,1.23289 -0.999749,2.23264 -2.232639,2.23264 -1.232901,0 -2.232651,-0.99975 -2.232651,-2.23264 0,-1.23289 0.99975,-2.23264 2.232651,-2.23264 z m 0,0"
       id="path857-0"
       inkscape:export-xdpi="19.708424"
       inkscape:export-ydpi="19.708424" />
    <path
       style="fill:#000000;fill-opacity:1;stroke:#000000;stroke-width:0.25290149;stroke-opacity:1"
       inkscape:connector-curvature="0"
       d="m 126.15753,81.234231 c 1.2329,0 2.23166,0.99975 2.23166,2.23264 0,1.2329 -0.99876,2.23265 -2.23166,2.23265 -1.23389,0 -2.23264,-0.99975 -2.23264,-2.23265 0,-1.23289 0.99875,-2.23264 2.23264,-2.23264 z m 0,0"
       id="path859-5"
       inkscape:export-xdpi="19.708424"
       inkscape:export-ydpi="19.708424" />
    <path
       style="fill:#000000;fill-opacity:1;stroke:#000000;stroke-width:0.25290149;stroke-opacity:1"
       inkscape:connector-curvature="0"
       d="m 150.71466,96.861771 c 1.23289,0 2.23265,0.99975 2.23265,2.23264 0,1.232899 -0.99976,2.232649 -2.23265,2.232649 -1.23289,0 -2.23264,-0.99975 -2.23264,-2.232649 0,-1.23289 0.99975,-2.23264 2.23264,-2.23264 z m 0,0"
       id="path861-2"
       inkscape:export-xdpi="19.708424"
       inkscape:export-ydpi="19.708424" />
    <path
       style="fill:#000000;fill-opacity:1;stroke:#000000;stroke-width:0.25290149;stroke-opacity:1"
       inkscape:connector-curvature="0"
       d="m 157.4126,67.839341 c 1.23289,0 2.23166,0.99876 2.23166,2.23265 0,1.23289 -0.99877,2.23166 -2.23166,2.23166 -1.23289,0 -2.23264,-0.99877 -2.23264,-2.23166 0,-1.23389 0.99975,-2.23265 2.23264,-2.23265 z m 0,0"
       id="path863-5"
       inkscape:export-xdpi="19.708424"
       inkscape:export-ydpi="19.708424" />
    <path
       style="fill:#000000;fill-opacity:1;stroke:#000000;stroke-width:0.25290149;stroke-opacity:1"
       inkscape:connector-curvature="0"
       d="m 74.893473,135.34594 c 1.2329,0 2.23265,0.99975 2.23265,2.23265 0,1.23289 -0.99975,2.23264 -2.23265,2.23264 -1.23289,0 -2.23264,-0.99975 -2.23264,-2.23264 0,-1.2329 0.99975,-2.23265 2.23264,-2.23265 z m 0,0"
       id="path865-0"
       inkscape:export-xdpi="19.708424"
       inkscape:export-ydpi="19.708424" />
    <path
       style="fill:#000000;fill-opacity:1;stroke:#000000;stroke-width:0.25290152;stroke-opacity:1"
       inkscape:connector-curvature="0"
       d="m 52.488303,150.67227 c 1.23289,0 2.23264,0.99975 2.23264,2.23264 0,1.23289 -0.99975,2.23264 -2.23264,2.23264 -1.2329,0 -2.23265,-0.99975 -2.23265,-2.23264 0,-1.23289 0.99975,-2.23264 2.23265,-2.23264 z m 0,0"
       id="path865-9-9"
       inkscape:export-xdpi="19.708424"
       inkscape:export-ydpi="19.708424" />
    <path
       style="fill:#000000;fill-opacity:1;stroke:#000000;stroke-width:0.25290152;stroke-opacity:1"
       inkscape:connector-curvature="0"
       d="m 90.209283,164.4832 c -1.193,0.31111 -1.90811,1.53079 -1.597,2.72378 0.31111,1.193 1.53078,1.90812 2.72378,1.597 l 2.16039,-0.56338 c 1.193,-0.31112 1.90812,-1.53079 1.59701,-2.72378 -0.31111,-1.193 -1.53079,-1.90812 -2.72379,-1.59701 z m 0,0"
       id="path847-3-4"
       inkscape:export-xdpi="19.708424"
       inkscape:export-ydpi="19.708424" />
    <path
       style="fill:#000000;fill-opacity:1;stroke:#000000;stroke-width:0.25290152;stroke-opacity:1"
       inkscape:connector-curvature="0"
       d="m 98.287463,160.06924 -0.56339,-2.16039 c -0.31111,-1.19299 -1.53079,-1.90811 -2.72378,-1.597 -1.193,0.31111 -1.90811,1.53078 -1.597,2.72378 l 0.56339,2.16039 c 0.31111,1.19301 1.53078,1.90812 2.72378,1.597 1.193,-0.31111 1.90811,-1.53078 1.597,-2.72378 z m 0,0"
       id="path849-7-4"
       inkscape:export-xdpi="19.708424"
       inkscape:export-ydpi="19.708424" />
    <path
       style="fill:#000000;fill-opacity:1;stroke:#000000;stroke-width:0.25290152;stroke-opacity:1"
       inkscape:connector-curvature="0"
       d="m 105.89447,162.7001 c -0.31111,-1.19299 -1.53079,-1.90811 -2.72379,-1.597 l -2.16039,0.5634 c -1.192987,0.3111 -1.907157,1.53053 -1.596047,2.72353 0.31112,1.193 1.529837,1.90836 2.722837,1.59725 l 2.16039,-0.56339 c 1.19299,-0.31111 1.90811,-1.53078 1.597,-2.72379 z m 0,0"
       id="path851-7-4"
       inkscape:export-xdpi="19.708424"
       inkscape:export-ydpi="19.708424" />
    <path
       style="fill:#000000;fill-opacity:1;stroke:#000000;stroke-width:0.25290152;stroke-opacity:1"
       inkscape:connector-curvature="0"
       d="m 96.220243,169.83759 0.56339,2.1604 c 0.31111,1.19299 1.53054,1.90716 2.72354,1.59605 1.192987,-0.31111 1.908357,-1.52984 1.597237,-2.72283 l -0.56339,-2.16039 c -0.31111,-1.193 -1.530777,-1.90812 -2.723777,-1.597 -1.19299,0.31111 -1.90811,1.53078 -1.597,2.72377 z m 0,0"
       id="path853-8-1"
       inkscape:export-xdpi="19.708424"
       inkscape:export-ydpi="19.708424" />
    <path
       style="fill:#000000;fill-opacity:1;stroke:#000000;stroke-width:0.25290152;stroke-opacity:1"
       inkscape:connector-curvature="0"
       d="m 52.451863,86.111101 c 1.2329,0 2.23265,0.99975 2.23265,2.23265 0,1.23289 -0.99975,2.23264 -2.23265,2.23264 -1.23289,0 -2.23265,-0.99975 -2.23265,-2.23264 0,-1.2329 0.99976,-2.23265 2.23265,-2.23265 z m 0,0"
       id="path857-3-4"
       inkscape:export-xdpi="19.708424"
       inkscape:export-ydpi="19.708424" />
    <path
       style="fill:#000000;fill-opacity:1;stroke:#000000;stroke-width:0.25290152;stroke-opacity:1"
       inkscape:connector-curvature="0"
       d="m 72.570083,95.308011 c 1.23289,0 2.23264,0.99975 2.23264,2.23264 0,1.2329 -0.99975,2.23265 -2.23264,2.23265 -1.2329,0 -2.23265,-0.99975 -2.23265,-2.23265 0,-1.23289 0.99975,-2.23264 2.23265,-2.23264 z m 0,0"
       id="path857-7-9"
       inkscape:export-xdpi="19.708424"
       inkscape:export-ydpi="19.708424" />
    <path
       style="fill:#000000;fill-opacity:1;stroke:#000000;stroke-width:0.25290152;stroke-opacity:1"
       inkscape:connector-curvature="0"
       d="m 105.71723,135.92763 c 1.23289,0 2.23265,0.99975 2.23265,2.23264 0,1.2329 -0.99976,2.23265 -2.23265,2.23265 -1.23289,0 -2.23265,-0.99975 -2.23265,-2.23265 0,-1.23289 0.99976,-2.23264 2.23265,-2.23264 z m 0,0"
       id="path857-8-3"
       inkscape:export-xdpi="19.708424"
       inkscape:export-ydpi="19.708424" />
    <path
       style="fill:#000000;fill-opacity:1;stroke:#000000;stroke-width:0.25290152;stroke-opacity:1"
       inkscape:connector-curvature="0"
       d="m 106.48364,68.483721 c 1.23289,0 2.23265,0.99975 2.23265,2.23264 0,1.2329 -0.99976,2.23264 -2.23265,2.23264 -1.2329,0 -2.23265,-0.99974 -2.23265,-2.23264 0,-1.23289 0.99975,-2.23264 2.23265,-2.23264 z m 0,0"
       id="path857-6-7"
       inkscape:export-xdpi="19.708424"
       inkscape:export-ydpi="19.708424" />
    <path
       style="fill:#000000;fill-opacity:1;stroke:#000000;stroke-width:0.25290152;stroke-opacity:1"
       inkscape:connector-curvature="0"
       d="m 57.546753,70.857301 c -0.92467,7.9e-4 -1.75253,0.57002 -2.08348,1.43344 -0.33193,0.86244 -0.0968,1.83946 0.58978,2.45788 l 22.32448,20.09283 c 0.58978,0.55223 1.43245,0.7429 2.20301,0.49889 0.76957,-0.245 1.34749,-0.88713 1.5105,-1.67844 0.163,-0.7913 -0.1146,-1.60928 -0.72611,-2.1378 l -22.32448,-20.09283 c -0.40899,-0.37046 -0.94246,-0.57496 -1.4937,-0.57397 z m 0,0"
       id="path825-2-6"
       inkscape:export-xdpi="19.708424"
       inkscape:export-ydpi="19.708424" />
    <path
       inkscape:connector-curvature="0"
       style="fill:#000000;fill-opacity:1;stroke:#000000;stroke-width:0.23;stroke-linecap:round;stroke-miterlimit:4;stroke-dasharray:none;stroke-opacity:1"
       d="m 95.416463,100.91132 c -1.18448,0 -2.32068,0.47124 -3.15743,1.30897 l -3.16103,3.16104 c -0.83775,0.83675 -1.3095,1.97294 -1.3095,3.15744 0,1.18448 0.47175,2.32072 1.3095,3.15846 l 15.687407,15.68276 8.53435,-9.66142 c 0.12745,-0.1225 0.268,-0.2294 0.42013,-0.3173 L 98.574433,102.22029 c -0.83775,-0.83773 -1.97348,-1.30897 -3.15797,-1.30897 z"
       id="path1083"
       inkscape:export-xdpi="19.708424"
       inkscape:export-ydpi="19.708424" />
    <path
       inkscape:connector-curvature="0"
       style="fill:#000000;fill-opacity:1;stroke:#000000;stroke-width:0.23;stroke-linecap:round;stroke-miterlimit:4;stroke-dasharray:none;stroke-opacity:1"
       d="m 116.79811,120.44191 c -0.0385,0.0761 -0.0817,0.15114 -0.1292,0.22325 l -8.71831,9.87795 42.81442,42.81599 a 79.999999,79.999999 0 0 0 9.58546,-9.36119 z"
       id="path854-0"
       inkscape:export-xdpi="19.708424"
       inkscape:export-ydpi="19.708424" />
    <path
       style="fill:#000000;fill-opacity:0;stroke:#ffffff;stroke-width:2.20468521;stroke-linecap:round;stroke-linejoin:miter;stroke-miterlimit:4;stroke-dasharray:none;stroke-opacity:1"
       d="m 93.028473,105.4514 c 0,0 0.73221,-1.03316 1.21405,-1.24659 0.49256,-0.21819 1.61453,-0.69037 2.97122,0.6334 l 13.108987,12.7908"
       id="path1072-0"
       inkscape:connector-curvature="0"
       sodipodi:nodetypes="cssc"
       inkscape:export-xdpi="19.708424"
       inkscape:export-ydpi="19.708424" />
    <path
       style="color:#000000;font-style:normal;font-variant:normal;font-weight:normal;font-stretch:normal;font-size:medium;line-height:normal;font-family:sans-serif;font-variant-ligatures:normal;font-variant-position:normal;font-variant-caps:normal;font-variant-numeric:normal;font-variant-alternates:normal;font-feature-settings:normal;text-indent:0;text-align:start;text-decoration:none;text-decoration-line:none;text-decoration-style:solid;text-decoration-color:#000000;letter-spacing:normal;word-spacing:normal;text-transform:none;writing-mode:lr-tb;direction:ltr;text-orientation:mixed;dominant-baseline:auto;baseline-shift:baseline;text-anchor:start;white-space:normal;shape-padding:0;clip-rule:nonzero;display:inline;overflow:visible;visibility:visible;opacity:1;isolation:auto;mix-blend-mode:normal;color-interpolation:sRGB;color-interpolation-filters:linearRGB;solid-color:#000000;solid-opacity:1;vector-effect:none;fill:#ffffff;fill-opacity:1;fill-rule:nonzero;stroke:none;stroke-width:2.20468521;stroke-linecap:round;stroke-linejoin:miter;stroke-miterlimit:4;stroke-dasharray:none;stroke-dashoffset:0;stroke-opacity:1;color-rendering:auto;image-rendering:auto;shape-rendering:auto;text-rendering:auto;enable-background:accumulate"
       d="m 116.57313,123.07196 c -0.9898,-5.3e-4 -1.47892,1.20231 -0.76953,1.89258 l 40.67368,40.72669 c 0.85165,-0.74305 1.12132,-1.07579 1.57157,-1.54066 l -40.68471,-40.74463 c -0.2077,-0.21365 -0.49304,-0.33412 -0.79101,-0.33398 z"
       id="path1072-4-7"
       inkscape:connector-curvature="0"
       sodipodi:nodetypes="cccccc"
       inkscape:export-xdpi="19.708424"
       inkscape:export-ydpi="19.708424" />
  </g>
</svg>
