<?xml version="1.0" encoding="UTF-8" standalone="no"?>
<!-- Created with Inkscape (http://www.inkscape.org/) -->

<svg
   xmlns:dc="http://purl.org/dc/elements/1.1/"
   xmlns:cc="http://creativecommons.org/ns#"
   xmlns:rdf="http://www.w3.org/1999/02/22-rdf-syntax-ns#"
   xmlns:svg="http://www.w3.org/2000/svg"
   xmlns="http://www.w3.org/2000/svg"
   xmlns:sodipodi="http://sodipodi.sourceforge.net/DTD/sodipodi-0.dtd"
   xmlns:inkscape="http://www.inkscape.org/namespaces/inkscape"
   width="237.00314mm"
   height="237.00314mm"
   viewBox="0 0 237.00314 237.00314"
   version="1.1"
   id="svg8"
   inkscape:version="0.92.3 (2405546, 2018-03-11)"
   sodipodi:docname="logo.svg">
  <defs
     id="defs2" />
  <sodipodi:namedview
     id="base"
     pagecolor="#ffffff"
     bordercolor="#666666"
     borderopacity="1.0"
     inkscape:pageopacity="0.0"
     inkscape:pageshadow="2"
     inkscape:zoom="0.25"
     inkscape:cx="78.749293"
     inkscape:cy="436.0127"
     inkscape:document-units="mm"
     inkscape:current-layer="layer1"
     showgrid="false"
     fit-margin-top="0"
     fit-margin-left="0"
     fit-margin-right="0"
     fit-margin-bottom="0"
     inkscape:window-width="1920"
     inkscape:window-height="1027"
     inkscape:window-x="1912"
     inkscape:window-y="-8"
     inkscape:window-maximized="1" />
  <metadata
     id="metadata5">
    <rdf:RDF>
      <cc:Work
         rdf:about="">
        <dc:format>image/svg+xml</dc:format>
        <dc:type
           rdf:resource="http://purl.org/dc/dcmitype/StillImage" />
        <dc:title></dc:title>
      </cc:Work>
    </rdf:RDF>
  </metadata>
  <g
     inkscape:label="Ebene 1"
     inkscape:groupmode="layer"
     id="layer1"
     transform="translate(17.378988,-19.300487)">
    <rect
       style="fill:#33333d;fill-opacity:1;stroke:#ffab40;stroke-width:8.88399982;stroke-linecap:round;stroke-miterlimit:10;stroke-dasharray:none;stroke-opacity:1"
       id="rect1070"
       width="228.11914"
       height="228.11914"
       x="-12.936988"
       y="23.742487"
       rx="59.900002" />
    <g
       id="g888">
      <path
         id="path815"
         d="m 68.68523,115.01705 c -1.088643,-1.08865 -1.701004,-2.56498 -1.701004,-4.10423 0,-1.53925 0.612361,-3.0156 1.701004,-4.10296 l 4.108084,-4.10808 c 1.087358,-1.08864 2.563702,-1.701 4.102949,-1.701 1.53925,0 3.015592,0.61236 4.104234,1.701 l 19.707263,19.72779 c -0.19771,0.11426 -0.38,0.25291 -0.54561,0.4121 L 89.071604,135.397 Z M 183.5704,221.68991 c -1.08736,1.08864 -2.5637,1.69972 -4.10295,1.69972 -1.53925,0 -3.01559,-0.61108 -4.10423,-1.69972 L 93.184822,139.50766 104.51415,126.67118 c 0.0617,-0.0937 0.11811,-0.19129 0.16818,-0.29014 l 82.99102,82.99873 c 2.19269,2.29667 2.19269,5.91051 0,8.20718 z m 0,0"
         inkscape:connector-curvature="0"
         style="fill:#ffab40;fill-opacity:1;stroke:#ffab40;stroke-width:0.32864684;stroke-opacity:1" />
      <path
         id="path819"
         d="M 49.589076,104.42566 H 26.641934 c -1.267227,0 -2.294817,0.99112 -2.294817,2.21337 0,1.22226 1.02759,2.21338 2.294817,2.21338 h 22.947142 c 1.267227,0 2.293801,-0.99112 2.293801,-2.21338 0,-1.22225 -1.026574,-2.21337 -2.293801,-2.21337 z m 0,0"
         inkscape:connector-curvature="0"
         style="fill:#d8d8d8;fill-opacity:1;stroke:#d8d8d8;stroke-width:0.25528982;stroke-opacity:1" />
      <path
         id="path821"
         d="M 70.505417,65.395071 V 88.68691 c 0,1.286318 0.90788,2.329391 2.027479,2.329391 1.119598,0 2.02658,-1.043073 2.02658,-2.329391 V 65.395071 c 0,-1.286318 -0.906982,-2.329392 -2.02658,-2.329392 -1.119599,0 -2.027479,1.043074 -2.027479,2.329392 z m 0,0"
         inkscape:connector-curvature="0"
         style="fill:#d8d8d8;fill-opacity:1;stroke:#d8d8d8;stroke-width:0.24616747;stroke-opacity:1" />
      <path
         id="path823"
         d="m 30.781721,150.12963 c 0.575133,0.51222 1.329993,0.77412 2.098976,0.72918 0.768982,-0.0449 1.48918,-0.39411 2.000124,-0.97053 l 23.2094,-26.11074 c 0.689386,-0.77668 0.911479,-1.86276 0.582831,-2.8487 -0.328646,-0.98466 -1.157963,-1.72026 -2.175999,-1.92951 -1.018036,-0.20797 -2.069447,0.14249 -2.758837,0.92046 l -23.209398,26.11074 c -0.510943,0.57642 -0.77155,1.33256 -0.724051,2.10154 0.0475,0.76899 0.399255,1.4879 0.976954,1.99756 z m 0,0"
         inkscape:connector-curvature="0"
         style="fill:#ffab40;fill-opacity:1;stroke:#ffab40;stroke-width:0.32864684;stroke-opacity:1" />
      <path
         id="path825"
         d="m 116.84482,58.023786 c -9.3e-4,-1.201615 -0.74074,-2.277421 -1.86276,-2.707488 -1.12074,-0.431349 -2.39039,-0.125809 -3.19403,0.766414 L 85.677297,85.0935 c -0.71763,0.766417 -0.9654,1.861474 -0.648305,2.862821 0.318376,1.000061 1.15283,1.75107 2.181133,1.962896 1.028306,0.211827 2.091275,-0.148916 2.778095,-0.943578 l 26.11073,-29.010786 c 0.48142,-0.531481 0.74716,-1.224722 0.74587,-1.941067 z m 0,0"
         inkscape:connector-curvature="0"
         style="fill:#ffab40;fill-opacity:1;stroke:#ffab40;stroke-width:0.32864684;stroke-opacity:1" />
      <path
         id="path827"
         d="m 70.049311,154.83404 c 1.098402,0 1.989093,-1.10319 1.989093,-2.46364 v -22.1717 c 0,-1.36045 -0.890691,-2.46364 -1.989093,-2.46364 -1.098401,0 -1.989091,1.10319 -1.989091,2.46364 v 22.1717 c 0,1.36045 0.89069,2.46364 1.989091,2.46364 z m 0,0"
         inkscape:connector-curvature="0"
         style="fill:#d8d8d8;fill-opacity:1;stroke:#d8d8d8;stroke-width:0.25075397;stroke-opacity:1" />
      <path
         id="path829"
         d="M 113.99668,101.03554 H 94.709097 c -1.331429,0 -2.410015,0.83995 -2.410015,1.87579 0,1.03583 1.078586,1.87578 2.410015,1.87578 h 19.287583 c 1.33143,0 2.41108,-0.83995 2.41108,-1.87578 0,-1.03584 -1.07965,-1.87579 -2.41108,-1.87579 z m 0,0"
         inkscape:connector-curvature="0"
         style="fill:#d8d8d8;fill-opacity:1;stroke:#d8d8d8;stroke-width:0.24089566;stroke-opacity:1" />
      <path
         id="path831"
         d="m 40.344292,47.313138 c -0.312319,1.571419 0.707423,3.098682 2.280099,3.41125 l 2.844417,0.565326 c 1.571416,0.312318 3.098932,-0.70868 3.411251,-2.280098 0.312318,-1.571417 -0.708683,-3.098931 -2.2801,-3.411249 l -2.844417,-0.565326 c -1.572676,-0.312568 -3.098933,0.70868 -3.41125,2.280097 z m 0,0"
         inkscape:connector-curvature="0"
         style="fill:#d8d8d8;fill-opacity:1;stroke:#d8d8d8;stroke-width:0.32864684;stroke-opacity:1" />
      <path
         id="path833"
         d="m 50.576537,40.473848 -0.565576,2.845673 c -0.312318,1.571419 0.708932,3.09768 2.280349,3.409998 1.571417,0.312318 3.098684,-0.707428 3.411003,-2.278845 L 56.267888,41.605 c 0.312318,-1.571418 -0.708683,-3.098932 -2.280099,-3.411249 -1.571419,-0.312318 -3.098934,0.708679 -3.411252,2.280097 z m 0,0"
         inkscape:connector-curvature="0"
         style="fill:#d8d8d8;fill-opacity:1;stroke:#d8d8d8;stroke-width:0.32864684;stroke-opacity:1" />
      <path
         id="path835"
         d="m 59.697186,54.117594 c 1.571418,0.312318 3.098934,-0.70868 3.411251,-2.280097 0.312319,-1.571418 -0.708682,-3.098932 -2.2801,-3.41125 l -2.845675,-0.565576 c -1.571418,-0.312318 -3.098934,0.708679 -3.411252,2.280098 -0.312318,1.571417 0.708683,3.09893 2.280101,3.411249 z m 0,0"
         inkscape:connector-curvature="0"
         style="fill:#d8d8d8;fill-opacity:1;stroke:#d8d8d8;stroke-width:0.32864684;stroke-opacity:1" />
      <path
         id="path837"
         d="m 47.748907,54.700964 -0.565577,2.845682 c -0.312318,1.571417 0.708683,3.098931 2.280101,3.41125 1.571417,0.312317 3.098933,-0.70868 3.411251,-2.280098 l 0.565577,-2.845683 c 0.312319,-1.571417 -0.708683,-3.098931 -2.2801,-3.411249 -1.571417,-0.312318 -3.098933,0.708679 -3.411252,2.280098 z m 0,0"
         inkscape:connector-curvature="0"
         style="fill:#d8d8d8;fill-opacity:1;stroke:#d8d8d8;stroke-width:0.32864684;stroke-opacity:1" />
      <path
         id="path847"
         d="m 118.64647,110.0117 c -1.36471,-0.83931 -3.15195,-0.41327 -3.99128,0.95143 -0.83932,1.36472 -0.41328,3.15196 0.95143,3.99128 l 2.47135,1.51992 c 1.36471,0.83932 3.15195,0.41329 3.99127,-0.95141 0.83933,-1.36472 0.41329,-3.15197 -0.95142,-3.9913 z m 0,0"
         inkscape:connector-curvature="0"
         style="fill:#d8d8d8;fill-opacity:1;stroke:#d8d8d8;stroke-width:0.32864684;stroke-opacity:1" />
      <path
         id="path849"
         d="m 130.05179,113.62005 1.51993,-2.47134 c 0.83932,-1.36472 0.41328,-3.15195 -0.95143,-3.99128 -1.3647,-0.83932 -3.15195,-0.41328 -3.99127,0.95143 l -1.51992,2.47135 c -0.83933,1.36471 -0.41329,3.15195 0.95142,3.99127 1.36472,0.83932 3.15195,0.41328 3.99127,-0.95143 z m 0,0"
         inkscape:connector-curvature="0"
         style="fill:#d8d8d8;fill-opacity:1;stroke:#d8d8d8;stroke-width:0.32864684;stroke-opacity:1" />
      <path
         id="path851"
         d="m 134.4249,123.12186 c 0.83933,-1.3647 0.41329,-3.15196 -0.95142,-3.99128 l -2.47134,-1.51992 c -1.36472,-0.83933 -3.15087,-0.41261 -3.9902,0.9521 -0.83932,1.36471 -0.41437,3.15128 0.95034,3.9906 l 2.47135,1.51993 c 1.36472,0.83932 3.15195,0.41328 3.99127,-0.95143 z m 0,0"
         inkscape:connector-curvature="0"
         style="fill:#d8d8d8;fill-opacity:1;stroke:#d8d8d8;stroke-width:0.32864684;stroke-opacity:1" />
      <path
         id="path853"
         d="m 119.0294,120.46562 -1.51992,2.47134 c -0.83932,1.36471 -0.41262,3.15086 0.95209,3.99018 1.36471,0.83933 3.15128,0.41438 3.9906,-0.95034 l 1.51993,-2.47134 c 0.83931,-1.36471 0.41328,-3.15195 -0.95143,-3.99128 -1.36471,-0.83932 -3.15195,-0.41328 -3.99127,0.95144 z m 0,0"
         inkscape:connector-curvature="0"
         style="fill:#d8d8d8;fill-opacity:1;stroke:#d8d8d8;stroke-width:0.32864684;stroke-opacity:1" />
      <path
         id="path857"
         d="m 10.277614,120.45988 c 1.602154,0 2.901336,1.29918 2.901336,2.90133 0,1.60215 -1.299182,2.90133 -2.901336,2.90133 -1.6021516,0 -2.9013336,-1.29918 -2.9013336,-2.90133 0,-1.60215 1.299182,-2.90133 2.9013336,-2.90133 z m 0,0"
         inkscape:connector-curvature="0"
         style="fill:#d8d8d8;fill-opacity:1;stroke:#d8d8d8;stroke-width:0.32864684;stroke-opacity:1" />
      <path
         id="path859"
         d="m 116.84482,75.430514 c 1.60216,0 2.90006,1.29918 2.90006,2.901334 0,1.602153 -1.2979,2.901336 -2.90006,2.901336 -1.60344,0 -2.90133,-1.299183 -2.90133,-2.901336 0,-1.602154 1.29789,-2.901334 2.90133,-2.901334 z m 0,0"
         inkscape:connector-curvature="0"
         style="fill:#d8d8d8;fill-opacity:1;stroke:#d8d8d8;stroke-width:0.32864684;stroke-opacity:1" />
      <path
         id="path861"
         d="m 148.75694,95.738581 c 1.60215,0 2.90134,1.29918 2.90134,2.90133 0,1.602159 -1.29919,2.901339 -2.90134,2.901339 -1.60215,0 -2.90133,-1.29918 -2.90133,-2.901339 0,-1.60215 1.29918,-2.90133 2.90133,-2.90133 z m 0,0"
         inkscape:connector-curvature="0"
         style="fill:#d8d8d8;fill-opacity:1;stroke:#d8d8d8;stroke-width:0.32864684;stroke-opacity:1" />
      <path
         id="path863"
         d="m 157.46095,58.023787 c 1.60215,0 2.90006,1.297895 2.90006,2.901334 0,1.602153 -1.29791,2.900052 -2.90006,2.900052 -1.60215,0 -2.90133,-1.297899 -2.90133,-2.900052 0,-1.603439 1.29918,-2.901334 2.90133,-2.901334 z m 0,0"
         inkscape:connector-curvature="0"
         style="fill:#ffab40;fill-opacity:1;stroke:#ffab40;stroke-width:0.32864684;stroke-opacity:1" />
      <path
         id="path865"
         d="m 50.22691,145.74897 c 1.602152,0 2.901335,1.29918 2.901335,2.90134 0,1.60215 -1.299183,2.90133 -2.901335,2.90133 -1.602154,0 -2.901336,-1.29918 -2.901336,-2.90133 0,-1.60216 1.299182,-2.90134 2.901336,-2.90134 z m 0,0"
         inkscape:connector-curvature="0"
         style="fill:#ffab40;fill-opacity:1;stroke:#ffab40;stroke-width:0.32864684;stroke-opacity:1" />
      <path
         id="path865-9"
         d="m 21.111267,165.66561 c 1.602153,0 2.901335,1.29918 2.901335,2.90133 0,1.60215 -1.299182,2.90133 -2.901335,2.90133 -1.602154,0 -2.901336,-1.29918 -2.901336,-2.90133 0,-1.60215 1.299182,-2.90133 2.901336,-2.90133 z m 0,0"
         inkscape:connector-curvature="0"
         style="fill:#ffab40;fill-opacity:1;stroke:#ffab40;stroke-width:0.32864687;stroke-opacity:1" />
      <path
         id="path847-3"
         d="m 70.12988,183.61299 c -1.550305,0.40429 -2.4796,1.98927 -2.075309,3.53957 0.404291,1.55031 1.989264,2.47961 3.539569,2.07531 l 2.80744,-0.73212 c 1.550305,-0.4043 2.479611,-1.98927 2.075321,-3.53957 -0.404292,-1.55031 -1.989276,-2.47961 -3.539581,-2.07532 z m 0,0"
         inkscape:connector-curvature="0"
         style="fill:#d8d8d8;fill-opacity:1;stroke:#d8d8d8;stroke-width:0.32864687;stroke-opacity:1" />
      <path
         id="path849-7"
         d="m 80.62752,177.87703 -0.732128,-2.80744 c -0.404291,-1.5503 -1.989265,-2.4796 -3.539569,-2.07531 -1.550305,0.40429 -2.479602,1.98926 -2.075312,3.53957 l 0.732129,2.80744 c 0.404292,1.55031 1.989264,2.4796 3.53957,2.07531 1.550304,-0.4043 2.479602,-1.98926 2.07531,-3.53957 z m 0,0"
         inkscape:connector-curvature="0"
         style="fill:#d8d8d8;fill-opacity:1;stroke:#d8d8d8;stroke-width:0.32864687;stroke-opacity:1" />
      <path
         id="path851-7"
         d="m 90.512866,181.29585 c -0.404291,-1.5503 -1.989266,-2.4796 -3.539571,-2.07532 l -2.80744,0.73214 c -1.550305,0.40428 -2.478366,1.98894 -2.074074,3.53925 0.404291,1.5503 1.988029,2.47992 3.538334,2.07563 l 2.807439,-0.73213 c 1.550306,-0.40429 2.479603,-1.98926 2.075312,-3.53957 z m 0,0"
         inkscape:connector-curvature="0"
         style="fill:#d8d8d8;fill-opacity:1;stroke:#d8d8d8;stroke-width:0.32864687;stroke-opacity:1" />
      <path
         id="path853-8"
         d="m 77.941158,190.57105 0.732129,2.80745 c 0.404291,1.5503 1.988942,2.47837 3.539247,2.07407 1.550305,-0.40428 2.479924,-1.98803 2.075633,-3.53833 l -0.732129,-2.80744 c -0.404291,-1.55031 -1.989263,-2.4796 -3.539569,-2.07531 -1.550305,0.40429 -2.479602,1.98926 -2.075311,3.53956 z m 0,0"
         inkscape:connector-curvature="0"
         style="fill:#d8d8d8;fill-opacity:1;stroke:#d8d8d8;stroke-width:0.32864687;stroke-opacity:1" />
      <path
         id="path857-3"
         d="m 21.063915,81.768037 c 1.602154,0 2.901336,1.299179 2.901336,2.901332 0,1.602154 -1.299182,2.901333 -2.901336,2.901333 -1.602153,0 -2.901335,-1.299179 -2.901335,-2.901333 0,-1.602153 1.299182,-2.901332 2.901335,-2.901332 z m 0,0"
         inkscape:connector-curvature="0"
         style="fill:#ffab40;fill-opacity:1;stroke:#ffab40;stroke-width:0.32864687;stroke-opacity:1" />
      <path
         id="path857-7"
         d="m 47.207642,93.719461 c 1.602154,0 2.901336,1.29918 2.901336,2.90133 0,1.60216 -1.299182,2.90134 -2.901336,2.90134 -1.602153,0 -2.901335,-1.29918 -2.901335,-2.90134 0,-1.60215 1.299182,-2.90133 2.901335,-2.90133 z m 0,0"
         inkscape:connector-curvature="0"
         style="fill:#d8d8d8;fill-opacity:1;stroke:#d8d8d8;stroke-width:0.32864687;stroke-opacity:1" />
      <path
         id="path857-8"
         d="m 90.282545,146.50488 c 1.602153,0 2.901335,1.29918 2.901335,2.90133 0,1.60216 -1.299182,2.90134 -2.901335,2.90134 -1.602153,0 -2.901335,-1.29918 -2.901335,-2.90134 0,-1.60215 1.299182,-2.90133 2.901335,-2.90133 z m 0,0"
         inkscape:connector-curvature="0"
         style="fill:#ffab40;fill-opacity:1;stroke:#ffab40;stroke-width:0.32864687;stroke-opacity:1" />
      <path
         id="path857-6"
         d="m 91.278497,58.861155 c 1.602154,0 2.901336,1.299179 2.901336,2.901333 0,1.602154 -1.299182,2.901333 -2.901336,2.901333 -1.602153,0 -2.901335,-1.299179 -2.901335,-2.901333 0,-1.602154 1.299182,-2.901333 2.901335,-2.901333 z m 0,0"
         inkscape:connector-curvature="0"
         style="fill:#ffab40;fill-opacity:1;stroke:#ffab40;stroke-width:0.32864687;stroke-opacity:1" />
      <path
         id="path825-2"
         d="m 27.68475,61.945643 c -1.201615,9.32e-4 -2.277421,0.740742 -2.707488,1.862759 -0.431349,1.120741 -0.125809,2.390389 0.766414,3.194032 l 29.010787,26.110737 c 0.766417,0.71763 1.861474,0.9654 2.862821,0.64831 1.000062,-0.31838 1.75107,-1.152835 1.962897,-2.181138 0.211826,-1.028305 -0.148916,-2.091273 -0.943579,-2.778093 L 29.625817,62.691518 c -0.53148,-0.481422 -1.224722,-0.747161 -1.941067,-0.745875 z m 0,0"
         inkscape:connector-curvature="0"
         style="fill:#ffab40;fill-opacity:1;stroke:#ffab40;stroke-width:0.32864687;stroke-opacity:1" />
      <path
         sodipodi:nodetypes="cssc"
         inkscape:connector-curvature="0"
         id="path1072"
         d="m 73.793438,106.90085 c 0,0 0.951503,-1.34259 1.577662,-1.61995 0.640084,-0.28353 2.09809,-0.89713 3.861117,0.82311 l 17.035206,16.62172"
         style="fill:#000000;fill-opacity:0;stroke:#33333d;stroke-width:2.86500001;stroke-linecap:round;stroke-linejoin:miter;stroke-miterlimit:4;stroke-dasharray:none;stroke-opacity:1" />
      <path
         sodipodi:nodetypes="cc"
         inkscape:connector-curvature="0"
         id="path1072-4"
         d="m 104.40293,131.24593 81.24671,81.36776"
         style="fill:#000000;fill-opacity:0;stroke:#33333d;stroke-width:2.86500001;stroke-linecap:round;stroke-linejoin:miter;stroke-miterlimit:4;stroke-dasharray:none;stroke-opacity:1" />
    </g>
    <circle
       style="fill:#33333d;fill-opacity:1;stroke:#ffab40;stroke-width:4.965;stroke-linecap:round;stroke-miterlimit:4;stroke-dasharray:none;stroke-opacity:1"
       id="path854"
       cx="390.4743"
       cy="169.97557"
       r="80"
       inkscape:export-xdpi="19.708424"
       inkscape:export-ydpi="19.708424" />
    <path
       style="fill:#d8d8d8;fill-opacity:1;stroke:#d8d8d8;stroke-width:0.19645154;stroke-opacity:1"
       inkscape:connector-curvature="0"
       d="m 365.09123,161.73058 h -17.65836 c -0.97516,0 -1.76592,0.76269 -1.76592,1.70324 0,0.94056 0.79076,1.70325 1.76592,1.70325 h 17.65836 c 0.97517,0 1.76514,-0.76269 1.76514,-1.70325 0,-0.94055 -0.78997,-1.70324 -1.76514,-1.70324 z m 0,0"
       id="path819-8"
       inkscape:export-xdpi="19.708424"
       inkscape:export-ydpi="19.708424" />
    <path
       style="fill:#d8d8d8;fill-opacity:1;stroke:#d8d8d8;stroke-width:0.18943168;stroke-opacity:1"
       inkscape:connector-curvature="0"
       d="m 381.18685,131.69562 v 17.92362 c 0,0.98985 0.69864,1.79252 1.5602,1.79252 0.86155,0 1.5595,-0.80267 1.5595,-1.79252 v -17.92362 c 0,-0.98985 -0.69795,-1.79252 -1.5595,-1.79252 -0.86156,0 -1.5602,0.80267 -1.5602,1.79252 z m 0,0"
       id="path821-3"
       inkscape:export-xdpi="19.708424"
       inkscape:export-ydpi="19.708424" />
    <path
       style="fill:#ffab40;fill-opacity:1;stroke:#ffab40;stroke-width:0.25290149;stroke-opacity:1"
       inkscape:connector-curvature="0"
       d="m 350.61853,196.90086 c 0.44258,0.39417 1.02346,0.59571 1.61521,0.56112 0.59175,-0.0346 1.14596,-0.30327 1.53915,-0.74684 l 17.86018,-20.09283 c 0.5305,-0.59768 0.7014,-1.43344 0.4485,-2.19214 -0.2529,-0.75772 -0.89108,-1.32379 -1.67448,-1.48481 -0.78341,-0.16004 -1.59249,0.10965 -2.12299,0.70832 l -17.86018,20.09283 c -0.39319,0.44357 -0.59373,1.02543 -0.55718,1.61718 0.0366,0.59176 0.30724,1.14498 0.75179,1.53717 z m 0,0"
       id="path823-4"
       inkscape:export-xdpi="19.708424"
       inkscape:export-ydpi="19.708424" />
    <path
       style="fill:#ffab40;fill-opacity:1;stroke:#ffab40;stroke-width:0.25290149;stroke-opacity:1"
       inkscape:connector-curvature="0"
       d="m 416.84612,126.02324 c -7.2e-4,-0.92467 -0.57002,-1.75253 -1.43344,-2.08347 -0.86244,-0.33194 -1.83946,-0.0968 -2.45788,0.58977 l -20.09283,22.32449 c -0.55223,0.58977 -0.7429,1.43244 -0.49888,2.203 0.24499,0.76957 0.88713,1.34749 1.67843,1.5105 0.79131,0.163 1.60929,-0.1146 2.13781,-0.72611 l 20.09282,-22.32448 c 0.37047,-0.40899 0.57496,-0.94245 0.57397,-1.4937 z m 0,0"
       id="path825-1"
       inkscape:export-xdpi="19.708424"
       inkscape:export-ydpi="19.708424" />
    <path
       style="fill:#d8d8d8;fill-opacity:1;stroke:#d8d8d8;stroke-width:0.1929611;stroke-opacity:1"
       inkscape:connector-curvature="0"
       d="m 380.83587,200.52102 c 0.84524,0 1.53065,-0.84893 1.53065,-1.89583 v -17.06165 c 0,-1.0469 -0.68541,-1.89583 -1.53065,-1.89583 -0.84525,0 -1.53065,0.84893 -1.53065,1.89583 v 17.06165 c 0,1.0469 0.6854,1.89583 1.53065,1.89583 z m 0,0"
       id="path827-7"
       inkscape:export-xdpi="19.708424"
       inkscape:export-ydpi="19.708424" />
    <path
       style="fill:#d8d8d8;fill-opacity:1;stroke:#d8d8d8;stroke-width:0.1853749;stroke-opacity:1"
       inkscape:connector-curvature="0"
       d="m 414.65441,159.1218 h -14.84225 c -1.02457,0 -1.85457,0.64636 -1.85457,1.44347 0,0.79709 0.83,1.44345 1.85457,1.44345 h 14.84225 c 1.02456,0 1.85538,-0.64636 1.85538,-1.44345 0,-0.79711 -0.83082,-1.44347 -1.85538,-1.44347 z m 0,0"
       id="path829-8"
       inkscape:export-xdpi="19.708424"
       inkscape:export-ydpi="19.708424" />
    <path
       style="fill:#d8d8d8;fill-opacity:1;stroke:#d8d8d8;stroke-width:0.25290149;stroke-opacity:1"
       inkscape:connector-curvature="0"
       d="m 357.97716,117.78114 c -0.24034,1.20925 0.54437,2.38451 1.75459,2.62504 l 2.18884,0.43503 c 1.20924,0.24034 2.3847,-0.54534 2.62504,-1.75459 0.24034,-1.20924 -0.54535,-2.3847 -1.75459,-2.62503 l -2.18885,-0.43503 c -1.21021,-0.24053 -2.3847,0.54534 -2.62503,1.75458 z m 0,0"
       id="path831-9"
       inkscape:export-xdpi="19.708424"
       inkscape:export-ydpi="19.708424" />
    <path
       style="fill:#d8d8d8;fill-opacity:1;stroke:#d8d8d8;stroke-width:0.25290149;stroke-opacity:1"
       inkscape:connector-curvature="0"
       d="m 365.85111,112.51815 -0.43522,2.18981 c -0.24034,1.20925 0.54554,2.38374 1.75478,2.62408 1.20924,0.24033 2.38451,-0.54439 2.62484,-1.75363 l 0.43523,-2.18981 c 0.24033,-1.20925 -0.54535,-2.3847 -1.75459,-2.62504 -1.20925,-0.24033 -2.3847,0.54535 -2.62504,1.75459 z m 0,0"
       id="path833-5"
       inkscape:export-xdpi="19.708424"
       inkscape:export-ydpi="19.708424" />
    <path
       style="fill:#d8d8d8;fill-opacity:1;stroke:#d8d8d8;stroke-width:0.25290149;stroke-opacity:1"
       inkscape:connector-curvature="0"
       d="m 372.86966,123.01733 c 1.20925,0.24034 2.38471,-0.54534 2.62504,-1.75458 0.24034,-1.20925 -0.54535,-2.38471 -1.75459,-2.62504 l -2.18981,-0.43523 c -1.20925,-0.24033 -2.38471,0.54535 -2.62504,1.75459 -0.24034,1.20925 0.54535,2.3847 1.75459,2.62504 z m 0,0"
       id="path835-1"
       inkscape:export-xdpi="19.708424"
       inkscape:export-ydpi="19.708424" />
    <path
       style="fill:#d8d8d8;fill-opacity:1;stroke:#d8d8d8;stroke-width:0.25290149;stroke-opacity:1"
       inkscape:connector-curvature="0"
       d="m 363.67518,123.46625 -0.43522,2.18982 c -0.24034,1.20924 0.54534,2.3847 1.75459,2.62504 1.20924,0.24033 2.3847,-0.54535 2.62504,-1.75459 l 0.43522,-2.18982 c 0.24034,-1.20924 -0.54535,-2.3847 -1.75459,-2.62504 -1.20924,-0.24033 -2.3847,0.54535 -2.62504,1.75459 z m 0,0"
       id="path837-4"
       inkscape:export-xdpi="19.708424"
       inkscape:export-ydpi="19.708424" />
    <path
       style="fill:#d8d8d8;fill-opacity:1;stroke:#d8d8d8;stroke-width:0.25290149;stroke-opacity:1"
       inkscape:connector-curvature="0"
       d="m 418.23253,166.02917 c -1.05018,-0.64587 -2.4255,-0.31802 -3.07138,0.73215 -0.64588,1.05018 -0.31803,2.4255 0.73214,3.07138 l 1.90177,1.16961 c 1.05017,0.64588 2.4255,0.31804 3.07137,-0.73213 0.64589,-1.05018 0.31804,-2.42551 -0.73214,-3.0714 z m 0,0"
       id="path847-2"
       inkscape:export-xdpi="19.708424"
       inkscape:export-ydpi="19.708424" />
    <path
       style="fill:#d8d8d8;fill-opacity:1;stroke:#d8d8d8;stroke-width:0.25290149;stroke-opacity:1"
       inkscape:connector-curvature="0"
       d="m 427.00919,168.80588 1.16962,-1.90176 c 0.64588,-1.05018 0.31803,-2.4255 -0.73214,-3.07138 -1.05017,-0.64588 -2.4255,-0.31803 -3.07138,0.73215 l -1.16961,1.90176 c -0.64589,1.05018 -0.31804,2.4255 0.73214,3.07138 1.05018,0.64587 2.4255,0.31803 3.07137,-0.73215 z m 0,0"
       id="path849-1"
       inkscape:export-xdpi="19.708424"
       inkscape:export-ydpi="19.708424" />
    <path
       style="fill:#d8d8d8;fill-opacity:1;stroke:#d8d8d8;stroke-width:0.25290149;stroke-opacity:1"
       inkscape:connector-curvature="0"
       d="m 430.3744,176.11775 c 0.64589,-1.05017 0.31804,-2.42551 -0.73214,-3.07139 l -1.90175,-1.16961 c -1.05018,-0.64589 -2.42467,-0.31752 -3.07055,0.73266 -0.64588,1.05018 -0.31887,2.42499 0.73131,3.07086 l 1.90176,1.16962 c 1.05018,0.64588 2.4255,0.31803 3.07137,-0.73214 z m 0,0"
       id="path851-8"
       inkscape:export-xdpi="19.708424"
       inkscape:export-ydpi="19.708424" />
    <path
       style="fill:#d8d8d8;fill-opacity:1;stroke:#d8d8d8;stroke-width:0.25290149;stroke-opacity:1"
       inkscape:connector-curvature="0"
       d="m 418.5272,174.07371 -1.16961,1.90175 c -0.64588,1.05018 -0.31752,2.42466 0.73265,3.07054 1.05018,0.64588 2.42499,0.31887 3.07087,-0.73131 l 1.16962,-1.90175 c 0.64587,-1.05018 0.31803,-2.4255 -0.73215,-3.07139 -1.05018,-0.64588 -2.4255,-0.31803 -3.07138,0.73216 z m 0,0"
       id="path853-6"
       inkscape:export-xdpi="19.708424"
       inkscape:export-ydpi="19.708424" />
    <path
       style="fill:#d8d8d8;fill-opacity:1;stroke:#d8d8d8;stroke-width:0.25290149;stroke-opacity:1"
       inkscape:connector-curvature="0"
       d="m 334.84014,174.06929 c 1.23289,0 2.23264,0.99975 2.23264,2.23264 0,1.23289 -0.99975,2.23264 -2.23264,2.23264 -1.2329,0 -2.23265,-0.99975 -2.23265,-2.23264 0,-1.23289 0.99975,-2.23264 2.23265,-2.23264 z m 0,0"
       id="path857-0"
       inkscape:export-xdpi="19.708424"
       inkscape:export-ydpi="19.708424" />
    <path
       style="fill:#d8d8d8;fill-opacity:1;stroke:#d8d8d8;stroke-width:0.25290149;stroke-opacity:1"
       inkscape:connector-curvature="0"
       d="m 416.84612,139.41813 c 1.2329,0 2.23166,0.99975 2.23166,2.23264 0,1.2329 -0.99876,2.23265 -2.23166,2.23265 -1.23389,0 -2.23264,-0.99975 -2.23264,-2.23265 0,-1.23289 0.99875,-2.23264 2.23264,-2.23264 z m 0,0"
       id="path859-5"
       inkscape:export-xdpi="19.708424"
       inkscape:export-ydpi="19.708424" />
    <path
       style="fill:#d8d8d8;fill-opacity:1;stroke:#d8d8d8;stroke-width:0.25290149;stroke-opacity:1"
       inkscape:connector-curvature="0"
       d="m 441.40325,155.04567 c 1.23289,0 2.23265,0.99975 2.23265,2.23264 0,1.2329 -0.99976,2.23265 -2.23265,2.23265 -1.23289,0 -2.23264,-0.99975 -2.23264,-2.23265 0,-1.23289 0.99975,-2.23264 2.23264,-2.23264 z m 0,0"
       id="path861-2"
       inkscape:export-xdpi="19.708424"
       inkscape:export-ydpi="19.708424" />
    <path
       style="fill:#ffab40;fill-opacity:1;stroke:#ffab40;stroke-width:0.25290149;stroke-opacity:1"
       inkscape:connector-curvature="0"
       d="m 448.10119,126.02324 c 1.23289,0 2.23166,0.99876 2.23166,2.23265 0,1.23289 -0.99877,2.23166 -2.23166,2.23166 -1.23289,0 -2.23264,-0.99877 -2.23264,-2.23166 0,-1.23389 0.99975,-2.23265 2.23264,-2.23265 z m 0,0"
       id="path863-5"
       inkscape:export-xdpi="19.708424"
       inkscape:export-ydpi="19.708424" />
    <path
       style="fill:#ffab40;fill-opacity:1;stroke:#ffab40;stroke-width:0.25290149;stroke-opacity:1"
       inkscape:connector-curvature="0"
       d="m 365.58206,193.52984 c 1.2329,0 2.23265,0.99975 2.23265,2.23265 0,1.23289 -0.99975,2.23264 -2.23265,2.23264 -1.23289,0 -2.23264,-0.99975 -2.23264,-2.23264 0,-1.2329 0.99975,-2.23265 2.23264,-2.23265 z m 0,0"
       id="path865-0"
       inkscape:export-xdpi="19.708424"
       inkscape:export-ydpi="19.708424" />
    <path
       style="fill:#ffab40;fill-opacity:1;stroke:#ffab40;stroke-width:0.25290152;stroke-opacity:1"
       inkscape:connector-curvature="0"
       d="m 343.17689,208.85617 c 1.23289,0 2.23264,0.99975 2.23264,2.23264 0,1.23289 -0.99975,2.23264 -2.23264,2.23264 -1.2329,0 -2.23265,-0.99975 -2.23265,-2.23264 0,-1.23289 0.99975,-2.23264 2.23265,-2.23264 z m 0,0"
       id="path865-9-9"
       inkscape:export-xdpi="19.708424"
       inkscape:export-ydpi="19.708424" />
    <path
       style="fill:#d8d8d8;fill-opacity:1;stroke:#d8d8d8;stroke-width:0.25290152;stroke-opacity:1"
       inkscape:connector-curvature="0"
       d="m 380.89787,222.6671 c -1.193,0.31111 -1.90811,1.53079 -1.597,2.72378 0.31111,1.193 1.53078,1.90812 2.72378,1.597 l 2.16039,-0.56338 c 1.193,-0.31112 1.90812,-1.53079 1.59701,-2.72378 -0.31111,-1.193 -1.53079,-1.90812 -2.72379,-1.59701 z m 0,0"
       id="path847-3-4"
       inkscape:export-xdpi="19.708424"
       inkscape:export-ydpi="19.708424" />
    <path
       style="fill:#d8d8d8;fill-opacity:1;stroke:#d8d8d8;stroke-width:0.25290152;stroke-opacity:1"
       inkscape:connector-curvature="0"
       d="m 388.97605,218.25314 -0.56339,-2.16039 c -0.31111,-1.19299 -1.53079,-1.90811 -2.72378,-1.597 -1.193,0.31111 -1.90811,1.53078 -1.597,2.72378 l 0.56339,2.16039 c 0.31111,1.19301 1.53078,1.90812 2.72378,1.597 1.193,-0.31111 1.90811,-1.53078 1.597,-2.72378 z m 0,0"
       id="path849-7-4"
       inkscape:export-xdpi="19.708424"
       inkscape:export-ydpi="19.708424" />
    <path
       style="fill:#d8d8d8;fill-opacity:1;stroke:#d8d8d8;stroke-width:0.25290152;stroke-opacity:1"
       inkscape:connector-curvature="0"
       d="m 396.58306,220.884 c -0.31111,-1.19299 -1.53079,-1.90811 -2.72379,-1.597 l -2.16039,0.5634 c -1.19299,0.3111 -1.90716,1.53053 -1.59605,2.72353 0.31112,1.193 1.52984,1.90836 2.72284,1.59725 l 2.16039,-0.56339 c 1.19299,-0.31111 1.90811,-1.53078 1.597,-2.72379 z m 0,0"
       id="path851-7-4"
       inkscape:export-xdpi="19.708424"
       inkscape:export-ydpi="19.708424" />
    <path
       style="fill:#d8d8d8;fill-opacity:1;stroke:#d8d8d8;stroke-width:0.25290152;stroke-opacity:1"
       inkscape:connector-curvature="0"
       d="m 386.90883,228.02149 0.56339,2.1604 c 0.31111,1.19299 1.53054,1.90716 2.72354,1.59605 1.19299,-0.31111 1.90836,-1.52984 1.59724,-2.72283 l -0.56339,-2.16039 c -0.31111,-1.193 -1.53078,-1.90812 -2.72378,-1.597 -1.19299,0.31111 -1.90811,1.53078 -1.597,2.72377 z m 0,0"
       id="path853-8-1"
       inkscape:export-xdpi="19.708424"
       inkscape:export-ydpi="19.708424" />
    <path
       style="fill:#ffab40;fill-opacity:1;stroke:#ffab40;stroke-width:0.25290152;stroke-opacity:1"
       inkscape:connector-curvature="0"
       d="m 343.14045,144.295 c 1.2329,0 2.23265,0.99975 2.23265,2.23265 0,1.23289 -0.99975,2.23264 -2.23265,2.23264 -1.23289,0 -2.23265,-0.99975 -2.23265,-2.23264 0,-1.2329 0.99976,-2.23265 2.23265,-2.23265 z m 0,0"
       id="path857-3-4"
       inkscape:export-xdpi="19.708424"
       inkscape:export-ydpi="19.708424" />
    <path
       style="fill:#d8d8d8;fill-opacity:1;stroke:#d8d8d8;stroke-width:0.25290152;stroke-opacity:1"
       inkscape:connector-curvature="0"
       d="m 363.25867,153.49191 c 1.23289,0 2.23264,0.99975 2.23264,2.23264 0,1.2329 -0.99975,2.23265 -2.23264,2.23265 -1.2329,0 -2.23265,-0.99975 -2.23265,-2.23265 0,-1.23289 0.99975,-2.23264 2.23265,-2.23264 z m 0,0"
       id="path857-7-9"
       inkscape:export-xdpi="19.708424"
       inkscape:export-ydpi="19.708424" />
    <path
       style="fill:#ffab40;fill-opacity:1;stroke:#ffab40;stroke-width:0.25290152;stroke-opacity:1"
       inkscape:connector-curvature="0"
       d="m 396.40582,194.11153 c 1.23289,0 2.23265,0.99975 2.23265,2.23264 0,1.2329 -0.99976,2.23265 -2.23265,2.23265 -1.23289,0 -2.23265,-0.99975 -2.23265,-2.23265 0,-1.23289 0.99976,-2.23264 2.23265,-2.23264 z m 0,0"
       id="path857-8-3"
       inkscape:export-xdpi="19.708424"
       inkscape:export-ydpi="19.708424" />
    <path
       style="fill:#ffab40;fill-opacity:1;stroke:#ffab40;stroke-width:0.25290152;stroke-opacity:1"
       inkscape:connector-curvature="0"
       d="m 397.17223,126.66762 c 1.23289,0 2.23265,0.99975 2.23265,2.23264 0,1.2329 -0.99976,2.23264 -2.23265,2.23264 -1.2329,0 -2.23265,-0.99974 -2.23265,-2.23264 0,-1.23289 0.99975,-2.23264 2.23265,-2.23264 z m 0,0"
       id="path857-6-7"
       inkscape:export-xdpi="19.708424"
       inkscape:export-ydpi="19.708424" />
    <path
       style="fill:#ffab40;fill-opacity:1;stroke:#ffab40;stroke-width:0.25290152;stroke-opacity:1"
       inkscape:connector-curvature="0"
       d="m 348.23534,129.0412 c -0.92467,7.2e-4 -1.75253,0.57002 -2.08348,1.43344 -0.33193,0.86244 -0.0968,1.83946 0.58978,2.45788 l 22.32448,20.09283 c 0.58978,0.55223 1.43245,0.7429 2.20301,0.49889 0.76957,-0.245 1.34749,-0.88713 1.5105,-1.67844 0.163,-0.7913 -0.1146,-1.60928 -0.72611,-2.1378 l -22.32448,-20.09283 c -0.40899,-0.37046 -0.94246,-0.57496 -1.4937,-0.57397 z m 0,0"
       id="path825-2-6"
       inkscape:export-xdpi="19.708424"
       inkscape:export-ydpi="19.708424" />
    <path
       inkscape:connector-curvature="0"
       style="fill:#ffab40;fill-opacity:1;stroke:#ffab40;stroke-width:0.23;stroke-linecap:round;stroke-miterlimit:4;stroke-dasharray:none;stroke-opacity:1"
       d="m 386.10505,159.09522 c -1.18448,0 -2.32068,0.47124 -3.15743,1.30897 l -3.16103,3.16104 c -0.83775,0.83675 -1.3095,1.97294 -1.3095,3.15744 0,1.18448 0.47175,2.32072 1.3095,3.15846 l 15.68741,15.68276 8.53435,-9.66142 c 0.12745,-0.1225 0.268,-0.2294 0.42013,-0.3173 l -15.16546,-15.18098 c -0.83775,-0.83773 -1.97348,-1.30897 -3.15797,-1.30897 z"
       id="path1083"
       inkscape:export-xdpi="19.708424"
       inkscape:export-ydpi="19.708424" />
    <path
       inkscape:connector-curvature="0"
       style="fill:#ffab40;fill-opacity:1;stroke:#ffab40;stroke-width:0.23;stroke-linecap:round;stroke-miterlimit:4;stroke-dasharray:none;stroke-opacity:1"
       d="m 407.4867,178.62581 c -0.0385,0.0761 -0.0817,0.15114 -0.1292,0.22325 l -8.71831,9.87795 42.81442,42.81599 a 79.999999,79.999999 0 0 0 9.58546,-9.36119 z"
       id="path854-0"
       inkscape:export-xdpi="19.708424"
       inkscape:export-ydpi="19.708424" />
    <path
       style="fill:#000000;fill-opacity:0;stroke:#33333d;stroke-width:2.20468521;stroke-linecap:round;stroke-linejoin:miter;stroke-miterlimit:4;stroke-dasharray:none;stroke-opacity:1"
       d="m 383.71706,163.6353 c 0,0 0.73221,-1.03316 1.21405,-1.24659 0.49256,-0.21819 1.61453,-0.69037 2.97122,0.6334 l 13.10899,12.7908"
       id="path1072-0"
       inkscape:connector-curvature="0"
       sodipodi:nodetypes="cssc"
       inkscape:export-xdpi="19.708424"
       inkscape:export-ydpi="19.708424" />
    <path
       style="color:#000000;font-style:normal;font-variant:normal;font-weight:normal;font-stretch:normal;font-size:medium;line-height:normal;font-family:sans-serif;font-variant-ligatures:normal;font-variant-position:normal;font-variant-caps:normal;font-variant-numeric:normal;font-variant-alternates:normal;font-feature-settings:normal;text-indent:0;text-align:start;text-decoration:none;text-decoration-line:none;text-decoration-style:solid;text-decoration-color:#000000;letter-spacing:normal;word-spacing:normal;text-transform:none;writing-mode:lr-tb;direction:ltr;text-orientation:mixed;dominant-baseline:auto;baseline-shift:baseline;text-anchor:start;white-space:normal;shape-padding:0;clip-rule:nonzero;display:inline;overflow:visible;visibility:visible;opacity:1;isolation:auto;mix-blend-mode:normal;color-interpolation:sRGB;color-interpolation-filters:linearRGB;solid-color:#000000;solid-opacity:1;vector-effect:none;fill:#33333d;fill-opacity:1;fill-rule:nonzero;stroke:none;stroke-width:2.20468521;stroke-linecap:round;stroke-linejoin:miter;stroke-miterlimit:4;stroke-dasharray:none;stroke-dashoffset:0;stroke-opacity:1;color-rendering:auto;image-rendering:auto;shape-rendering:auto;text-rendering:auto;enable-background:accumulate"
       d="m 407.26172,181.25586 c -0.9898,-6.3e-4 -1.47892,1.20231 -0.76953,1.89258 l 40.67368,40.72669 c 0.85165,-0.74305 1.12132,-1.07579 1.57157,-1.54066 l -40.68471,-40.74463 c -0.2077,-0.21365 -0.49304,-0.33412 -0.79101,-0.33398 z"
       id="path1072-4-7"
       inkscape:connector-curvature="0"
       sodipodi:nodetypes="cccccc"
       inkscape:export-xdpi="19.708424"
       inkscape:export-ydpi="19.708424" />
  </g>
</svg>
