<?xml version="1.0" encoding="UTF-8" standalone="no"?>
<svg
   xmlns:dc="http://purl.org/dc/elements/1.1/"
   xmlns:cc="http://creativecommons.org/ns#"
   xmlns:rdf="http://www.w3.org/1999/02/22-rdf-syntax-ns#"
   xmlns:svg="http://www.w3.org/2000/svg"
   xmlns="http://www.w3.org/2000/svg"
   xmlns:sodipodi="http://sodipodi.sourceforge.net/DTD/sodipodi-0.dtd"
   xmlns:inkscape="http://www.inkscape.org/namespaces/inkscape"
   width="2977.2px"
   height="4208.4px"
   viewBox="0 0 2977.2 4208.4"
   version="1.2"
   id="svg170"
   sodipodi:docname="Notenwerte_Pausenwerte-1.svg"
   inkscape:version="0.92.3 (2405546, 2018-03-11)">
  <metadata
     id="metadata176">
    <rdf:RDF>
      <cc:Work
         rdf:about="">
        <dc:format>image/svg+xml</dc:format>
        <dc:type
           rdf:resource="http://purl.org/dc/dcmitype/StillImage" />
      </cc:Work>
    </rdf:RDF>
  </metadata>
  <defs
     id="defs174" />
  <sodipodi:namedview
     pagecolor="#ffffff"
     bordercolor="#666666"
     borderopacity="1"
     objecttolerance="10"
     gridtolerance="10"
     guidetolerance="10"
     inkscape:pageopacity="0"
     inkscape:pageshadow="2"
     inkscape:window-width="1920"
     inkscape:window-height="1008"
     id="namedview172"
     showgrid="false"
     inkscape:zoom="0.22431328"
     inkscape:cx="1773.5842"
     inkscape:cy="2502.7075"
     inkscape:window-x="-6"
     inkscape:window-y="-6"
     inkscape:window-maximized="1"
     inkscape:current-layer="svg170" />
  <title
     id="title2">Notenwerte_Pausenwerte</title>
  <desc
     id="desc4">Generated by MuseScore 3.5.2</desc>
  <polyline
     class="StaffLines"
     fill="none"
     stroke="#000000"
     stroke-width="2.00"
     stroke-linejoin="bevel"
     points="141.732,316.732 2835.47,316.732"
     id="polyline6" />
  <polyline
     class="StaffLines"
     fill="none"
     stroke="#000000"
     stroke-width="2.00"
     stroke-linejoin="bevel"
     points="141.732,341.732 2835.47,341.732"
     id="polyline8" />
  <polyline
     class="StaffLines"
     fill="none"
     stroke="#000000"
     stroke-width="2.00"
     stroke-linejoin="bevel"
     points="141.732,366.732 2835.47,366.732"
     id="polyline10" />
  <polyline
     class="StaffLines"
     fill="none"
     stroke="#000000"
     stroke-width="2.00"
     stroke-linejoin="bevel"
     points="141.732,391.732 2835.47,391.732"
     id="polyline12" />
  <polyline
     class="StaffLines"
     fill="none"
     stroke="#000000"
     stroke-width="2.00"
     stroke-linejoin="bevel"
     points="141.732,416.732 2835.47,416.732"
     id="polyline14" />
  <polyline
     class="StaffLines"
     fill="none"
     stroke="#000000"
     stroke-width="2.00"
     stroke-linejoin="bevel"
     points="141.732,791.733 2835.47,791.733"
     id="polyline16" />
  <polyline
     class="StaffLines"
     fill="none"
     stroke="#000000"
     stroke-width="2.00"
     stroke-linejoin="bevel"
     points="141.732,816.733 2835.47,816.733"
     id="polyline18" />
  <polyline
     class="StaffLines"
     fill="none"
     stroke="#000000"
     stroke-width="2.00"
     stroke-linejoin="bevel"
     points="141.732,841.733 2835.47,841.733"
     id="polyline20" />
  <polyline
     class="StaffLines"
     fill="none"
     stroke="#000000"
     stroke-width="2.00"
     stroke-linejoin="bevel"
     points="141.732,866.733 2835.47,866.733"
     id="polyline22" />
  <polyline
     class="StaffLines"
     fill="none"
     stroke="#000000"
     stroke-width="2.00"
     stroke-linejoin="bevel"
     points="141.732,891.733 2835.47,891.733"
     id="polyline24" />
  <polyline
     class="StaffLines"
     fill="none"
     stroke="#000000"
     stroke-width="2.00"
     stroke-linejoin="bevel"
     points="141.732,1266.73 2835.47,1266.73"
     id="polyline26" />
  <polyline
     class="StaffLines"
     fill="none"
     stroke="#000000"
     stroke-width="2.00"
     stroke-linejoin="bevel"
     points="141.732,1291.73 2835.47,1291.73"
     id="polyline28" />
  <polyline
     class="StaffLines"
     fill="none"
     stroke="#000000"
     stroke-width="2.00"
     stroke-linejoin="bevel"
     points="141.732,1316.73 2835.47,1316.73"
     id="polyline30" />
  <polyline
     class="StaffLines"
     fill="none"
     stroke="#000000"
     stroke-width="2.00"
     stroke-linejoin="bevel"
     points="141.732,1341.73 2835.47,1341.73"
     id="polyline32" />
  <polyline
     class="StaffLines"
     fill="none"
     stroke="#000000"
     stroke-width="2.00"
     stroke-linejoin="bevel"
     points="141.732,1366.73 2835.47,1366.73"
     id="polyline34" />
  <polyline
     class="StaffLines"
     fill="none"
     stroke="#000000"
     stroke-width="2.00"
     stroke-linejoin="bevel"
     points="141.732,1741.73 2835.47,1741.73"
     id="polyline36" />
  <polyline
     class="StaffLines"
     fill="none"
     stroke="#000000"
     stroke-width="2.00"
     stroke-linejoin="bevel"
     points="141.732,1766.73 2835.47,1766.73"
     id="polyline38" />
  <polyline
     class="StaffLines"
     fill="none"
     stroke="#000000"
     stroke-width="2.00"
     stroke-linejoin="bevel"
     points="141.732,1791.73 2835.47,1791.73"
     id="polyline40" />
  <polyline
     class="StaffLines"
     fill="none"
     stroke="#000000"
     stroke-width="2.00"
     stroke-linejoin="bevel"
     points="141.732,1816.73 2835.47,1816.73"
     id="polyline42" />
  <polyline
     class="StaffLines"
     fill="none"
     stroke="#000000"
     stroke-width="2.00"
     stroke-linejoin="bevel"
     points="141.732,1841.73 2835.47,1841.73"
     id="polyline44" />
  <polyline
     class="StaffLines"
     fill="none"
     stroke="#000000"
     stroke-width="2.00"
     stroke-linejoin="bevel"
     points="141.732,2216.73 2835.47,2216.73"
     id="polyline46" />
  <polyline
     class="StaffLines"
     fill="none"
     stroke="#000000"
     stroke-width="2.00"
     stroke-linejoin="bevel"
     points="141.732,2241.73 2835.47,2241.73"
     id="polyline48" />
  <polyline
     class="StaffLines"
     fill="none"
     stroke="#000000"
     stroke-width="2.00"
     stroke-linejoin="bevel"
     points="141.732,2266.73 2835.47,2266.73"
     id="polyline50" />
  <polyline
     class="StaffLines"
     fill="none"
     stroke="#000000"
     stroke-width="2.00"
     stroke-linejoin="bevel"
     points="141.732,2291.73 2835.47,2291.73"
     id="polyline52" />
  <polyline
     class="StaffLines"
     fill="none"
     stroke="#000000"
     stroke-width="2.00"
     stroke-linejoin="bevel"
     points="141.732,2316.73 2835.47,2316.73"
     id="polyline54" />
  <polyline
     class="StaffLines"
     fill="none"
     stroke="#000000"
     stroke-width="2.00"
     stroke-linejoin="bevel"
     points="141.732,2691.73 935.608,2691.73"
     id="polyline56" />
  <polyline
     class="StaffLines"
     fill="none"
     stroke="#000000"
     stroke-width="2.00"
     stroke-linejoin="bevel"
     points="141.732,2716.73 935.608,2716.73"
     id="polyline58" />
  <polyline
     class="StaffLines"
     fill="none"
     stroke="#000000"
     stroke-width="2.00"
     stroke-linejoin="bevel"
     points="141.732,2741.73 935.608,2741.73"
     id="polyline60" />
  <polyline
     class="StaffLines"
     fill="none"
     stroke="#000000"
     stroke-width="2.00"
     stroke-linejoin="bevel"
     points="141.732,2766.73 935.608,2766.73"
     id="polyline62" />
  <polyline
     class="StaffLines"
     fill="none"
     stroke="#000000"
     stroke-width="2.00"
     stroke-linejoin="bevel"
     points="141.732,2791.73 935.608,2791.73"
     id="polyline64" />
  <polyline
     class="BarLine"
     fill="none"
     stroke="#000000"
     stroke-width="4.00"
     stroke-linejoin="bevel"
     points="2833.47,315.732 2833.47,417.732"
     id="polyline76" />
  <polyline
     class="BarLine"
     fill="none"
     stroke="#000000"
     stroke-width="4.00"
     stroke-linejoin="bevel"
     points="2833.47,790.733 2833.47,892.733"
     id="polyline78" />
  <polyline
     class="BarLine"
     fill="none"
     stroke="#000000"
     stroke-width="4.00"
     stroke-linejoin="bevel"
     points="2833.47,1265.73 2833.47,1367.73"
     id="polyline80" />
  <polyline
     class="BarLine"
     fill="none"
     stroke="#000000"
     stroke-width="4.00"
     stroke-linejoin="bevel"
     points="2833.47,1740.73 2833.47,1842.73"
     id="polyline82" />
  <polyline
     class="BarLine"
     fill="none"
     stroke="#000000"
     stroke-width="4.00"
     stroke-linejoin="bevel"
     points="2833.47,2215.73 2833.47,2317.73"
     id="polyline84" />
  <polyline
     class="BarLine"
     fill="none"
     stroke="#000000"
     stroke-width="4.00"
     stroke-linejoin="bevel"
     points="911.108,2690.73 911.108,2792.73"
     id="polyline86" />
  <polyline
     class="BarLine"
     fill="none"
     stroke="#000000"
     stroke-width="12.50"
     stroke-linejoin="bevel"
     points="929.358,2690.73 929.358,2792.73"
     id="polyline88" />
  <polyline
     class="Stem"
     fill="none"
     stroke="#000000"
     stroke-width="3.25"
     stroke-linecap="round"
     stroke-linejoin="bevel"
     points="455.959,374.537 455.959,216.732"
     id="polyline90" />
  <polyline
     class="Stem"
     fill="none"
     stroke="#000000"
     stroke-width="3.25"
     stroke-linecap="round"
     stroke-linejoin="bevel"
     points="1050.9,374.537 1050.9,241.732"
     id="polyline92" />
  <polyline
     class="Stem"
     fill="none"
     stroke="#000000"
     stroke-width="3.25"
     stroke-linecap="round"
     stroke-linejoin="bevel"
     points="1726.96,374.537 1726.96,266.732"
     id="polyline94" />
  <polyline
     class="Stem"
     fill="none"
     stroke="#000000"
     stroke-width="3.25"
     stroke-linecap="round"
     stroke-linejoin="bevel"
     points="2484.16,374.537 2484.16,291.732"
     id="polyline96" />
  <polyline
     class="Stem"
     fill="none"
     stroke="#000000"
     stroke-width="3.25"
     stroke-linecap="round"
     stroke-linejoin="bevel"
     points="455.959,849.537 455.959,772.983"
     id="polyline98" />
  <polyline
     class="Stem"
     fill="none"
     stroke="#000000"
     stroke-width="3.25"
     stroke-linecap="round"
     stroke-linejoin="bevel"
     points="957.375,849.537 957.375,772.983"
     id="polyline100" />
  <polyline
     class="Stem"
     fill="none"
     stroke="#000000"
     stroke-width="3.25"
     stroke-linecap="round"
     stroke-linejoin="bevel"
     points="1760.54,850.393 1760.54,772.983"
     id="polyline102" />
  <path
     class="Note"
     d="M446.639,365.467 C449.764,365.467 452.404,366.279 454.561,367.904 C456.571,369.665 457.576,371.878 457.576,374.545 C457.576,379.035 455.269,383.232 450.654,387.139 C445.967,391.045 440.951,392.998 435.607,392.998 C432.482,392.998 429.847,392.186 427.701,390.561 C425.68,388.8 424.67,386.587 424.67,383.92 C424.67,379.43 427.014,375.232 431.701,371.326 C436.264,367.42 441.243,365.467 446.639,365.467"
     id="path104" />
  <path
     class="Note"
     d="M1041.58,365.467 C1044.7,365.467 1047.34,366.279 1049.5,367.904 C1051.51,369.665 1052.52,371.878 1052.52,374.545 C1052.52,379.035 1050.21,383.232 1045.59,387.139 C1040.91,391.045 1035.89,392.998 1030.55,392.998 C1027.42,392.998 1024.79,392.186 1022.64,390.561 C1020.62,388.8 1019.61,386.587 1019.61,383.92 C1019.61,379.43 1021.95,375.232 1026.64,371.326 C1031.2,367.42 1036.18,365.467 1041.58,365.467"
     id="path106" />
  <path
     class="Note"
     d="M1717.64,365.467 C1720.77,365.467 1723.41,366.279 1725.57,367.904 C1727.58,369.665 1728.58,371.878 1728.58,374.545 C1728.58,379.035 1726.27,383.232 1721.66,387.139 C1716.97,391.045 1711.96,392.998 1706.61,392.998 C1703.49,392.998 1700.85,392.186 1698.71,390.561 C1696.69,388.8 1695.68,386.587 1695.68,383.92 C1695.68,379.43 1698.02,375.232 1702.71,371.326 C1707.27,367.42 1712.25,365.467 1717.64,365.467"
     id="path108" />
  <path
     class="Note"
     d="M2474.84,365.467 C2477.96,365.467 2480.61,366.279 2482.76,367.904 C2484.77,369.665 2485.78,371.878 2485.78,374.545 C2485.78,379.035 2483.47,383.232 2478.86,387.139 C2474.17,391.045 2469.15,392.998 2463.81,392.998 C2460.68,392.998 2458.05,392.186 2455.9,390.561 C2453.88,388.8 2452.87,386.587 2452.87,383.92 C2452.87,379.43 2455.21,375.232 2459.9,371.326 C2464.46,367.42 2469.44,365.467 2474.84,365.467"
     id="path110" />
  <path
     class="Note"
     d="M446.639,840.467 C449.764,840.467 452.404,841.28 454.561,842.905 C456.571,844.665 457.576,846.879 457.576,849.545 C457.576,854.035 455.269,858.233 450.654,862.139 C445.967,866.045 440.951,867.998 435.607,867.998 C432.482,867.998 429.847,867.186 427.701,865.561 C425.68,863.8 424.67,861.587 424.67,858.92 C424.67,854.431 427.014,850.233 431.701,846.326 C436.264,842.42 441.243,840.467 446.639,840.467"
     id="path112" />
  <path
     class="Note"
     d="M948.055,840.467 C951.18,840.467 953.821,841.28 955.977,842.905 C957.987,844.665 958.993,846.879 958.993,849.545 C958.993,854.035 956.685,858.233 952.071,862.139 C947.383,866.045 942.368,867.998 937.024,867.998 C933.899,867.998 931.263,867.186 929.118,865.561 C927.097,863.8 926.086,861.587 926.086,858.92 C926.086,854.431 928.43,850.233 933.118,846.326 C937.68,842.42 942.659,840.467 948.055,840.467"
     id="path114" />
  <path
     class="Note"
     d="M1759,847.686 C1759,846.582 1758.58,845.639 1757.73,844.858 C1756.88,844.014 1755.9,843.592 1754.79,843.592 C1752.85,843.592 1748.91,845.545 1742.98,849.451 C1736.86,853.42 1733.11,856.254 1731.75,857.951 C1731.03,858.858 1730.67,859.8 1730.67,860.78 C1730.67,861.884 1731.1,862.826 1731.95,863.608 C1732.73,864.451 1733.71,864.873 1734.87,864.873 C1736.76,864.873 1740.73,862.92 1746.79,859.014 C1752.78,855.108 1756.49,852.274 1757.92,850.514 C1758.64,849.67 1759,848.728 1759,847.686 M1753.83,840.467 C1759.42,840.467 1762.22,842.873 1762.22,847.686 C1762.22,850.03 1761.53,852.764 1760.17,855.889 C1758.8,858.951 1756.98,861.295 1754.7,862.92 C1749.69,866.306 1743.41,867.998 1735.86,867.998 C1730.25,867.998 1727.45,865.592 1727.45,860.78 C1727.45,858.634 1728.13,855.931 1729.5,852.67 C1730.8,849.545 1732.62,847.17 1734.97,845.545 C1739.99,842.16 1746.27,840.467 1753.83,840.467"
     id="path116" />
  <path
     class="Note"
     d="M446.154,1318 C443.811,1318 442.118,1318.81 441.076,1320.44 C439.91,1322 439.326,1324.12 439.326,1326.8 C439.326,1329.86 440.139,1332.49 441.764,1334.7 C443.389,1336.85 445.18,1338.35 447.139,1339.2 C448.889,1340.05 450.743,1340.47 452.701,1340.47 C454.982,1340.47 456.706,1339.65 457.873,1338.03 C458.977,1336.39 459.529,1334.27 459.529,1331.67 C459.529,1328.61 458.717,1325.97 457.092,1323.76 C455.467,1321.68 453.712,1320.18 451.826,1319.26 C449.93,1318.42 448.04,1318 446.154,1318 M449.482,1315.47 C456.514,1315.47 462.373,1316.83 467.061,1319.56 C471.811,1322.3 474.186,1325.52 474.186,1329.23 C474.186,1333.2 471.743,1336.46 466.857,1339 C461.972,1341.67 456.18,1343 449.482,1343 C442.576,1343 436.717,1341.63 431.904,1338.9 C427.081,1336.17 424.67,1332.94 424.67,1329.23 C424.67,1325.26 427.144,1322.01 432.092,1319.47 C436.977,1316.8 442.774,1315.47 449.482,1315.47"
     id="path118" />
  <path
     class="Rest"
     d="M408.248,1746.53 C410.133,1746.53 411.566,1747.05 412.545,1748.09 C413.587,1749.21 414.139,1750.32 414.201,1751.42 C414.399,1752.72 414.727,1753.83 415.186,1754.73 C415.633,1755.77 416.347,1756.3 417.326,1756.3 C418.17,1756.3 419.571,1754.21 421.529,1750.05 C421.852,1749.4 422.305,1749.08 422.889,1749.08 L422.998,1749.08 C423.644,1749.14 424.097,1749.46 424.357,1750.05 L400.623,1892.05 C399.977,1892.7 399.066,1893.03 397.889,1893.03 C396.785,1893.03 395.873,1892.7 395.154,1892.05 L401.217,1859.14 C396.529,1860.83 392.654,1861.67 389.592,1861.67 C387.248,1861.67 385.227,1860.93 383.529,1859.44 C381.779,1858 380.904,1856.11 380.904,1853.76 C380.904,1851.74 381.587,1850.05 382.951,1848.69 C384.378,1847.26 386.071,1846.55 388.029,1846.55 C389.915,1846.55 391.347,1847.07 392.326,1848.11 C393.305,1849.21 393.894,1850.32 394.092,1851.42 C394.154,1852.66 394.446,1853.77 394.967,1854.75 C395.425,1855.79 396.139,1856.31 397.107,1856.31 C397.962,1856.31 399.17,1855.33 400.732,1853.37 C402.295,1851.23 403.107,1849.7 403.17,1848.78 L405.904,1834.23 C401.415,1835.86 397.639,1836.67 394.576,1836.67 C392.295,1836.67 390.243,1835.93 388.42,1834.44 C386.722,1832.94 385.873,1831.05 385.873,1828.76 C385.873,1826.74 386.592,1825.05 388.029,1823.69 C389.394,1822.26 391.055,1821.55 393.014,1821.55 C394.899,1821.55 396.331,1822.07 397.311,1823.11 C398.352,1824.21 398.904,1825.32 398.967,1826.42 C399.165,1827.72 399.493,1828.83 399.951,1829.75 C400.399,1830.79 401.144,1831.31 402.186,1831.31 C402.967,1831.31 404.045,1830.33 405.42,1828.37 C406.785,1826.55 407.566,1825.12 407.764,1824.08 L410.498,1809.33 C406.394,1810.89 402.779,1811.67 399.654,1811.67 C397.373,1811.67 395.321,1810.92 393.498,1809.42 C391.811,1807.93 390.967,1806.05 390.967,1803.76 C390.967,1801.74 391.68,1800.05 393.107,1798.69 C394.472,1797.25 396.165,1796.53 398.186,1796.53 C400.071,1796.53 401.503,1797.05 402.482,1798.09 C403.462,1799.27 403.982,1800.38 404.045,1801.42 C404.18,1802.4 404.508,1803.5 405.029,1804.73 C405.613,1805.77 406.357,1806.3 407.264,1806.3 C407.92,1806.3 408.899,1805.38 410.201,1803.56 C411.441,1801.68 412.154,1800.24 412.342,1799.26 L415.186,1784.42 C411.019,1785.92 407.503,1786.67 404.639,1786.67 C402.295,1786.67 400.274,1785.92 398.576,1784.42 C396.816,1782.99 395.936,1781.11 395.936,1778.76 C395.936,1776.74 396.623,1775.05 397.998,1773.69 C399.425,1772.25 401.149,1771.53 403.17,1771.53 C405.118,1771.53 406.519,1772.05 407.373,1773.09 C408.342,1774.21 408.925,1775.32 409.123,1776.42 C409.186,1777.52 409.514,1778.63 410.107,1779.73 C410.493,1780.77 411.206,1781.3 412.248,1781.3 C412.904,1781.3 413.816,1780.38 414.982,1778.56 C416.087,1776.74 416.738,1775.41 416.936,1774.56 L419.764,1759.42 C415.795,1760.92 412.446,1761.67 409.717,1761.67 C407.373,1761.67 405.352,1760.92 403.654,1759.42 C401.894,1757.99 401.014,1756.11 401.014,1753.76 C401.014,1751.74 401.701,1750.05 403.076,1748.69 C404.503,1747.25 406.227,1746.53 408.248,1746.53"
     id="path138" />
  <path
     class="Rest"
     d="M801.716,1746.22 C803.602,1746.22 805.034,1746.74 806.013,1747.78 C806.992,1748.89 807.581,1750 807.779,1751.11 C807.841,1752.35 808.133,1753.45 808.654,1754.42 C809.112,1755.46 809.862,1755.98 810.904,1755.98 C811.425,1755.98 812.237,1755.2 813.341,1753.64 C814.247,1752.27 814.997,1750.97 815.591,1749.73 C815.914,1749.09 816.367,1748.76 816.951,1748.76 C817.534,1748.76 817.992,1749.09 818.326,1749.73 L794.888,1866.73 C794.232,1867.39 793.284,1867.72 792.044,1867.72 C790.94,1867.72 790.029,1867.39 789.31,1866.73 L796.638,1833.92 C792.346,1835.55 788.57,1836.36 785.31,1836.36 C782.966,1836.36 780.945,1835.61 779.247,1834.12 C777.497,1832.69 776.622,1830.8 776.622,1828.45 C776.622,1826.43 777.336,1824.74 778.763,1823.37 C780.201,1821.95 781.93,1821.23 783.951,1821.23 C785.898,1821.23 787.294,1821.75 788.138,1822.8 C789.055,1823.9 789.612,1825 789.81,1826.11 C789.997,1827.41 790.32,1828.52 790.779,1829.44 C791.237,1830.48 791.956,1831 792.935,1831 C793.716,1831 794.888,1830.02 796.451,1828.06 C797.94,1826.18 798.784,1824.74 798.982,1823.76 L802.31,1809.01 C798.206,1810.58 794.56,1811.36 791.372,1811.36 C789.029,1811.36 787.008,1810.61 785.31,1809.12 C783.55,1807.69 782.669,1805.8 782.669,1803.45 C782.669,1801.43 783.357,1799.74 784.732,1798.37 C786.159,1796.95 787.883,1796.23 789.904,1796.23 C791.852,1796.23 793.253,1796.75 794.107,1797.8 C795.076,1798.9 795.659,1800 795.857,1801.11 C795.919,1802.35 796.211,1803.46 796.732,1804.44 C797.19,1805.48 797.94,1806 798.982,1806 C799.638,1806 800.68,1805.09 802.107,1803.26 C803.471,1801.31 804.253,1799.87 804.451,1798.97 L807.872,1784.01 C803.508,1785.58 799.961,1786.36 797.232,1786.36 C794.888,1786.36 792.867,1785.61 791.169,1784.11 C789.409,1782.68 788.529,1780.8 788.529,1778.45 C788.529,1776.43 789.247,1774.74 790.685,1773.37 C792.112,1771.94 793.836,1771.22 795.857,1771.22 C797.815,1771.22 799.216,1771.74 800.06,1772.78 C800.966,1773.89 801.518,1775 801.716,1776.11 C801.779,1777.21 802.107,1778.32 802.701,1779.42 C803.086,1780.46 803.8,1780.98 804.841,1780.98 C805.56,1780.98 806.536,1780.07 807.771,1778.25 C809.005,1776.43 809.753,1775.09 810.013,1774.25 L813.435,1759.11 C809.331,1760.61 805.945,1761.36 803.279,1761.36 C800.935,1761.36 798.919,1760.61 797.232,1759.11 C795.471,1757.68 794.591,1755.8 794.591,1753.45 C794.591,1751.43 795.273,1749.74 796.638,1748.37 C798.003,1746.94 799.695,1746.22 801.716,1746.22"
     id="path142" />
  <path
     class="Rest"
     d="M1430.74,1746.22 C1432.63,1746.22 1434.06,1746.74 1435.04,1747.78 C1436.01,1748.96 1436.53,1750.07 1436.6,1751.11 C1436.72,1752.09 1437.05,1753.19 1437.57,1754.42 C1438.15,1755.46 1438.9,1755.98 1439.82,1755.98 C1440.4,1755.98 1441.34,1755.2 1442.65,1753.64 C1443.82,1751.95 1444.6,1750.65 1444.99,1749.73 C1445.31,1749.09 1445.77,1748.76 1446.36,1748.76 L1446.46,1748.76 C1447.1,1748.83 1447.56,1749.15 1447.82,1749.73 L1426.24,1841.73 C1425.59,1842.39 1424.65,1842.72 1423.41,1842.72 C1422.31,1842.72 1421.4,1842.39 1420.68,1841.73 L1429.27,1809.01 C1425.17,1810.58 1421.58,1811.36 1418.52,1811.36 C1416.24,1811.36 1414.19,1810.61 1412.36,1809.12 C1410.68,1807.62 1409.83,1805.73 1409.83,1803.45 C1409.83,1801.43 1410.55,1799.74 1411.97,1798.37 C1413.35,1796.95 1415.01,1796.23 1416.96,1796.23 C1418.85,1796.23 1420.29,1796.75 1421.26,1797.8 C1422.3,1798.9 1422.85,1800 1422.93,1801.11 C1423.11,1802.41 1423.44,1803.52 1423.9,1804.44 C1424.35,1805.48 1425.1,1806 1426.15,1806 C1426.86,1806 1427.97,1805.09 1429.46,1803.26 C1430.83,1801.44 1431.68,1800.01 1432.01,1798.97 L1435.91,1784.01 C1431.55,1785.58 1428,1786.36 1425.27,1786.36 C1422.93,1786.36 1420.91,1785.61 1419.21,1784.11 C1417.45,1782.68 1416.57,1780.8 1416.57,1778.45 C1416.57,1776.43 1417.29,1774.74 1418.72,1773.37 C1420.15,1771.94 1421.88,1771.22 1423.9,1771.22 C1425.85,1771.22 1427.26,1771.74 1428.1,1772.78 C1429.01,1773.89 1429.56,1775 1429.76,1776.11 C1429.95,1777.41 1430.28,1778.51 1430.74,1779.42 C1431.19,1780.46 1431.9,1780.98 1432.88,1780.98 C1433.6,1780.98 1434.64,1780.07 1436.01,1778.25 C1437.37,1776.62 1438.22,1775.29 1438.55,1774.25 L1442.55,1759.11 C1438.45,1760.61 1434.99,1761.36 1432.19,1761.36 C1429.92,1761.36 1427.88,1760.61 1426.05,1759.11 C1424.35,1757.62 1423.51,1755.73 1423.51,1753.45 C1423.51,1751.43 1424.22,1749.74 1425.66,1748.37 C1427.03,1746.94 1428.72,1746.22 1430.74,1746.22"
     id="path146" />
  <path
     class="Rest"
     d="M2099.88,1771.22 C2101.84,1771.22 2103.24,1771.74 2104.08,1772.78 C2104.99,1773.89 2105.54,1775 2105.74,1776.11 C2105.8,1777.21 2106.13,1778.32 2106.72,1779.42 C2107.11,1780.46 2107.82,1780.98 2108.87,1780.98 C2109.52,1780.98 2110.5,1780.2 2111.8,1778.64 C2113.29,1776.82 2114.24,1775.51 2114.63,1774.73 C2114.95,1774.09 2115.41,1773.76 2115.99,1773.76 C2115.99,1773.76 2116.03,1773.76 2116.1,1773.76 C2116.68,1773.83 2117.1,1774.15 2117.37,1774.73 L2099.49,1841.73 C2098.84,1842.39 2097.94,1842.72 2096.76,1842.72 C2095.59,1842.72 2094.68,1842.39 2094.02,1841.73 L2104.08,1809.01 C2099.72,1810.58 2096.17,1811.36 2093.44,1811.36 C2091.1,1811.36 2089.08,1810.61 2087.38,1809.12 C2085.62,1807.69 2084.74,1805.8 2084.74,1803.45 C2084.74,1801.43 2085.42,1799.74 2086.79,1798.37 C2088.22,1796.95 2089.95,1796.23 2091.97,1796.23 C2093.92,1796.23 2095.32,1796.75 2096.18,1797.8 C2097.15,1798.9 2097.73,1800 2097.93,1801.11 C2098.13,1802.41 2098.45,1803.52 2098.91,1804.44 C2099.36,1805.48 2100.07,1806 2101.05,1806 C2101.83,1806 2102.94,1805.09 2104.38,1803.26 C2105.87,1801.57 2106.78,1800.23 2107.12,1799.25 L2111.69,1784.11 C2107.53,1785.61 2104.05,1786.36 2101.26,1786.36 C2098.91,1786.36 2096.89,1785.61 2095.19,1784.11 C2093.43,1782.68 2092.55,1780.8 2092.55,1778.45 C2092.55,1776.43 2093.27,1774.74 2094.71,1773.37 C2096.14,1771.94 2097.86,1771.22 2099.88,1771.22"
     id="path150" />
  <path
     class="Rest"
     d="m 2571.95,1771.22 c 1.89,0 3.32,0.52 4.3,1.56 0.98,1.18 1.5,2.29 1.56,3.33 0.14,0.98 0.46,2.08 0.99,3.31 0.58,1.04 1.32,1.56 2.23,1.56 0.72,0 1.8,-0.81 3.23,-2.43 1.31,-1.43 2.25,-2.7 2.83,-3.82 0.33,-0.64 0.78,-0.97 1.36,-0.97 h 0.11 c 0.65,0.07 1.1,0.39 1.36,0.97 l -12.3,42 c -0.65,0.66 -1.57,0.99 -2.74,0.99 -1.17,0 -2.08,-0.33 -2.73,-0.99 l 11.72,-32.62 c -4.16,1.5 -7.68,2.25 -10.54,2.25 -2.35,0 -4.37,-0.75 -6.07,-2.25 -1.76,-1.43 -2.64,-3.31 -2.64,-5.66 0,-2.02 0.72,-3.71 2.16,-5.08 1.43,-1.43 3.15,-2.15 5.17,-2.15"
     id="path152"
     inkscape:connector-curvature="0" />
  <path
     class="Rest"
     d="M411.576,2260.8 C411.576,2259.62 412.232,2258.32 413.545,2256.89 C414.514,2255.85 415.946,2254.61 417.842,2253.17 C419.269,2252.2 420.665,2250.74 422.029,2248.78 C423.331,2246.9 423.982,2244.84 423.982,2242.62 C423.982,2240.02 423.139,2237.71 421.451,2235.7 L417.936,2231.5 C417.675,2231.24 417.545,2230.91 417.545,2230.52 C417.545,2230.13 417.738,2229.78 418.123,2229.45 C418.581,2229.12 418.972,2228.95 419.295,2228.95 C419.753,2228.95 420.113,2229.15 420.373,2229.55 L435.514,2247.51 C436.16,2248.36 436.482,2249.2 436.482,2250.05 C436.482,2251.22 435.831,2252.53 434.529,2253.95 C433.686,2254.87 432.29,2256.11 430.342,2257.67 C428.842,2258.58 427.41,2260.04 426.045,2262.06 C424.743,2263.95 424.092,2266 424.092,2268.22 C424.092,2270.96 424.873,2273.27 426.436,2275.16 L434.826,2285.01 C435.024,2285.21 435.186,2285.54 435.311,2286 C435.311,2286.45 435.149,2286.84 434.826,2287.17 C434.368,2287.49 433.977,2287.66 433.654,2287.66 C433.529,2287.66 433.008,2287.3 432.092,2286.58 C431.113,2285.8 429.811,2285.05 428.186,2284.33 C426.363,2283.62 424.571,2283.26 422.811,2283.26 C421.186,2283.26 419.852,2283.72 418.811,2284.62 C417.904,2285.54 417.451,2287.3 417.451,2289.91 C417.451,2293.87 418.394,2297 420.279,2299.28 C420.477,2299.54 420.508,2299.86 420.373,2300.25 C420.248,2300.51 420.019,2300.64 419.686,2300.64 C419.238,2300.64 418.232,2299.47 416.67,2297.12 C415.035,2294.66 413.503,2291.82 412.076,2288.62 C410.576,2285.24 409.826,2282.44 409.826,2280.23 C409.826,2277.43 411.16,2276.03 413.826,2276.03 C416.889,2276.03 420.863,2277.07 425.748,2279.16 L412.561,2263.33 C411.904,2262.48 411.576,2261.64 411.576,2260.8"
     id="path154" />
  <path
     class="Rest"
     d="M1302.28,2266.73 L1266.73,2266.73 C1266.07,2266.73 1265.75,2266.41 1265.75,2265.75 L1265.75,2252.08 C1265.75,2251.43 1266.07,2251.11 1266.73,2251.11 L1302.28,2251.11 C1302.92,2251.11 1303.25,2251.43 1303.25,2252.08 L1303.25,2265.75 C1303.25,2266.41 1302.92,2266.73 1302.28,2266.73"
     id="path156" />
  <path
     class="Rest"
     d="M448.701,2732.36 L413.154,2732.36 C412.498,2732.36 412.17,2732.04 412.17,2731.39 L412.17,2717.72 C412.17,2717.06 412.498,2716.73 413.154,2716.73 L448.701,2716.73 C449.347,2716.73 449.67,2717.06 449.67,2717.72 L449.67,2731.39 C449.67,2732.04 449.347,2732.36 448.701,2732.36"
     id="path158" />
  <path
     class="Hook"
     d="M457.459,238.029 L457.459,239.982 C457.459,242.711 457.98,245.446 459.022,248.185 C459.938,250.654 461.048,252.93 462.35,255.014 C463.391,256.774 465.048,259.217 467.318,262.342 C468.954,264.623 470.485,266.868 471.912,269.076 C472.173,268.034 472.371,266.503 472.506,264.482 C472.506,261.618 471.594,258.396 469.772,254.818 C467.949,251.24 466.188,248.342 464.49,246.123 C462.344,243.519 460.001,240.821 457.459,238.029 M457.459,216.732 C457.459,219.857 458.11,223.18 459.412,226.701 C460.777,230.086 462.407,233.274 464.303,236.264 L469.959,245.06 C471.917,248.185 473.548,251.342 474.85,254.529 C476.152,258.04 476.803,261.357 476.803,264.482 C476.803,267.545 476.152,270.769 474.85,274.154 C476.798,278.196 477.772,282.003 477.772,285.576 C477.772,289.42 476.798,293.363 474.85,297.404 C476.798,301.435 477.772,305.211 477.772,308.732 C477.772,312.639 476.798,316.607 474.85,320.639 C476.798,324.68 477.772,328.488 477.772,332.06 C477.772,335.383 476.6,338.607 474.256,341.732 C476.996,346.555 478.365,351.05 478.365,355.217 C478.365,361.133 476.964,367.086 474.162,373.076 C473.641,373.795 473.022,374.154 472.303,374.154 C471.657,374.154 471.074,373.894 470.553,373.373 C470.157,372.852 469.959,372.331 469.959,371.81 L469.959,371.42 C472.761,366.086 474.162,360.685 474.162,355.217 C474.162,351.175 472.6,347.139 469.475,343.107 C466.475,339.326 462.469,335.253 457.459,330.889 L457.459,341.732 L454.334,341.732 L454.334,216.732 L457.459,216.732 M457.459,261.264 L457.459,263.217 C457.459,265.956 457.98,268.693 459.022,271.428 C460.063,274.162 461.204,276.503 462.443,278.451 C463.35,279.889 465.011,282.363 467.428,285.873 C469.376,288.477 470.969,290.722 472.209,292.607 C473.053,290.264 473.475,287.92 473.475,285.576 C473.475,282.649 472.532,279.56 470.647,276.31 C468.761,272.988 466.839,270.316 464.881,268.295 C462.798,266.086 460.324,263.743 457.459,261.264 M457.459,284.404 L457.459,286.467 C457.459,289.196 457.98,291.928 459.022,294.662 C460.063,297.396 461.204,299.743 462.443,301.701 C463.61,303.524 465.272,305.961 467.428,309.014 C468.917,311.034 470.511,313.316 472.209,315.857 C473.053,313.514 473.475,311.139 473.475,308.732 C473.475,305.868 472.532,302.805 470.647,299.545 C468.761,296.222 466.839,293.555 464.881,291.545 C462.412,288.941 459.938,286.56 457.459,284.404 M457.459,307.748 L457.459,309.701 C457.459,312.368 457.98,315.04 459.022,317.717 C460.001,320.185 461.042,322.399 462.147,324.357 C463.063,325.92 464.756,328.326 467.225,331.576 C470.152,335.618 471.683,337.732 471.818,337.92 C472.798,336.295 473.35,334.342 473.475,332.06 C473.475,329.133 472.532,326.045 470.647,322.795 C468.761,319.472 466.839,316.8 464.881,314.779 C462.798,312.571 460.324,310.227 457.459,307.748"
     id="path160" />
  <path
     class="Hook"
     d="M1052.4,262.92 L1052.4,264.201 C1052.4,267.128 1052.92,269.863 1053.96,272.404 C1055.2,275.529 1056.31,277.873 1057.29,279.435 C1058.91,282.04 1060.61,284.514 1062.37,286.857 C1064.51,289.982 1066.08,292.227 1067.05,293.592 C1067.31,292.613 1067.44,291.409 1067.44,289.982 C1067.44,287.701 1066.99,285.29 1066.07,282.748 C1065.23,280.404 1063.92,277.93 1062.16,275.326 C1060.08,272.264 1058.55,270.149 1057.57,268.982 C1055.1,266.055 1053.38,264.034 1052.4,262.92 M1052.4,241.732 C1052.4,245.118 1053.05,248.472 1054.35,251.795 C1055.91,255.701 1057.54,258.925 1059.24,261.467 L1064.9,270.248 C1066.86,273.248 1068.49,276.441 1069.79,279.826 C1071.09,283.337 1071.74,286.722 1071.74,289.982 C1071.74,292.774 1071.09,295.67 1069.79,298.67 C1071.74,302.639 1072.71,306.446 1072.71,310.092 C1072.71,313.8 1071.74,317.514 1069.79,321.232 C1071.74,325.264 1072.71,329.071 1072.71,332.654 C1072.71,335.717 1071.54,338.68 1069.19,341.545 C1071.93,346.357 1073.3,350.878 1073.3,355.107 C1073.3,361.097 1071.9,367.087 1069.1,373.076 C1068.58,373.795 1067.96,374.154 1067.24,374.154 C1066.6,374.154 1066.01,373.894 1065.49,373.373 C1065.1,372.852 1064.9,372.331 1064.9,371.81 C1064.9,371.81 1064.9,371.68 1064.9,371.42 C1067.7,366.014 1069.1,360.576 1069.1,355.107 C1069.1,352.701 1068.61,350.425 1067.63,348.279 C1066.47,345.873 1065.03,343.628 1063.34,341.545 C1061.45,339.326 1059.73,337.404 1058.16,335.779 C1057.32,334.935 1055.4,333.144 1052.4,330.404 L1052.4,341.732 L1049.27,341.732 L1049.27,241.732 L1052.4,241.732 M1052.4,285.389 L1052.4,286.748 C1052.4,289.748 1052.92,292.519 1053.96,295.06 C1054.94,297.592 1056.11,299.967 1057.48,302.185 C1059.1,304.79 1060.79,307.264 1062.55,309.607 C1064.51,312.409 1066.08,314.722 1067.24,316.545 C1068.02,314.462 1068.41,312.31 1068.41,310.092 C1068.41,305.925 1066.92,301.857 1063.93,297.889 C1060.73,293.659 1056.89,289.493 1052.4,285.389 M1052.4,307.951 L1052.4,309.217 C1052.4,312.081 1052.92,314.784 1053.96,317.326 C1055,319.93 1056.11,322.175 1057.29,324.06 C1058.33,325.685 1059.99,328.128 1062.26,331.389 C1064.93,335.159 1066.47,337.305 1066.85,337.826 C1067.77,336.326 1068.29,334.602 1068.41,332.654 C1068.41,328.488 1066.92,324.42 1063.93,320.451 C1060.73,316.212 1056.89,312.045 1052.4,307.951"
     id="path162" />
  <path
     class="Hook"
     d="M1728.46,287.92 L1728.46,288.42 C1728.46,291.284 1728.99,293.982 1730.03,296.514 C1731.27,299.712 1732.38,302.024 1733.36,303.451 C1735.04,305.993 1736.74,308.404 1738.43,310.685 C1740.58,313.81 1742.14,316.055 1743.12,317.42 C1743.38,316.576 1743.51,315.467 1743.51,314.092 C1743.51,311.227 1742.6,308.008 1740.78,304.435 C1738.88,300.717 1737.09,297.852 1735.4,295.842 C1733.06,292.977 1730.75,290.337 1728.46,287.92 M1728.46,266.732 C1728.46,270.055 1729.12,273.378 1730.42,276.701 C1731.66,279.826 1733.29,282.951 1735.31,286.076 L1740.96,294.857 C1742.92,297.784 1744.55,300.909 1745.86,304.232 C1747.16,307.618 1747.81,310.904 1747.81,314.092 C1747.81,316.769 1747.16,319.503 1745.86,322.295 C1747.8,326.274 1748.78,330.05 1748.78,333.623 C1748.78,337.081 1747.96,340.566 1746.34,344.076 C1748.36,347.857 1749.37,351.633 1749.37,355.404 C1749.37,361.196 1747.97,367.024 1745.17,372.889 C1744.71,373.732 1744.09,374.154 1743.31,374.154 C1742.66,374.154 1742.08,373.894 1741.56,373.373 C1741.16,372.852 1740.96,372.331 1740.96,371.81 C1740.96,371.81 1740.96,371.68 1740.96,371.42 C1743.77,366.087 1745.17,360.748 1745.17,355.404 C1745.17,351.3 1743.61,347.295 1740.48,343.389 C1737.29,339.42 1733.29,335.451 1728.46,331.482 L1728.46,341.732 L1725.34,341.732 L1725.34,266.732 L1728.46,266.732 M1728.46,309.701 L1728.46,310.185 C1728.46,312.727 1729.02,315.462 1730.12,318.389 C1731.3,321.389 1732.44,323.701 1733.54,325.326 C1734.26,326.368 1736.02,328.779 1738.82,332.56 C1741.17,335.748 1742.76,337.962 1743.61,339.201 C1744.19,337.378 1744.48,335.519 1744.48,333.623 C1744.48,330.831 1743.54,327.805 1741.65,324.545 C1739.95,321.555 1738.03,318.951 1735.89,316.732 C1733.8,314.524 1731.33,312.18 1728.46,309.701"
     id="path164" />
  <path
     class="Hook"
     d="M2485.66,291.732 C2485.66,295.055 2486.38,298.378 2487.82,301.701 C2489.18,304.951 2490.87,308.04 2492.89,310.967 L2498.75,319.561 C2500.7,322.238 2502.39,325.331 2503.83,328.842 C2505.26,332.102 2505.97,335.389 2505.97,338.701 C2505.97,341.764 2505.19,344.956 2503.63,348.279 C2505.59,352.248 2506.57,356.123 2506.57,359.904 C2506.57,365.894 2505.17,372.014 2502.36,378.264 C2501.84,379.045 2501.22,379.436 2500.5,379.436 C2499.86,379.436 2499.27,379.175 2498.75,378.654 C2498.36,378.258 2498.16,377.769 2498.16,377.186 C2498.16,377.186 2498.16,377.024 2498.16,376.701 C2500.96,371.159 2502.36,365.561 2502.36,359.904 C2502.36,357.363 2501.87,355.019 2500.89,352.873 C2499.73,350.331 2498.3,347.988 2496.6,345.842 C2494.45,343.04 2492.76,341.019 2491.52,339.779 C2489.83,338.092 2487.88,336.238 2485.66,334.217 L2485.66,341.732 L2482.53,341.732 L2482.53,291.732 L2485.66,291.732 M2500.99,343.389 C2501.45,342.024 2501.68,340.462 2501.68,338.701 C2501.68,336.43 2501.22,334.123 2500.32,331.779 C2499.34,329.436 2497.97,327.055 2496.21,324.639 C2494.58,322.628 2492.92,320.644 2491.22,318.686 C2489.92,317.258 2488.07,315.373 2485.66,313.029 C2485.66,315.696 2486.21,318.524 2487.32,321.514 C2488.49,324.316 2489.7,326.758 2490.94,328.842 C2492.37,331.061 2494.12,333.568 2496.21,336.365 C2498.29,339.162 2499.88,341.503 2500.99,343.389"
     id="path166" />
  <path
     class="Hook"
     d="M454.334,797.983 L454.334,772.983 L457.459,772.983 C457.459,776.691 458.178,780.405 459.615,784.123 C461.178,788.155 462.902,791.67 464.787,794.67 C466.152,796.816 468.204,800.102 470.943,804.53 C473.027,807.915 474.785,811.462 476.217,815.17 C477.649,818.879 478.365,822.592 478.365,826.311 C478.365,833.082 476.964,839.983 474.162,847.014 C473.641,847.795 473.022,848.186 472.303,848.186 C471.657,848.186 471.074,847.925 470.553,847.405 C470.157,847.009 469.959,846.519 469.959,845.936 L469.959,845.451 C472.761,839.004 474.162,832.623 474.162,826.311 C474.162,823.05 473.183,819.535 471.225,815.764 C469.277,811.92 467.292,808.858 465.272,806.576 C462.99,803.91 460.386,801.045 457.459,797.983 L454.334,797.983 "
     id="path168" />
</svg>
