<?xml version="1.0" encoding="UTF-8" standalone="no"?>
<svg
   xmlns:dc="http://purl.org/dc/elements/1.1/"
   xmlns:cc="http://creativecommons.org/ns#"
   xmlns:rdf="http://www.w3.org/1999/02/22-rdf-syntax-ns#"
   xmlns:svg="http://www.w3.org/2000/svg"
   xmlns="http://www.w3.org/2000/svg"
   xmlns:sodipodi="http://sodipodi.sourceforge.net/DTD/sodipodi-0.dtd"
   xmlns:inkscape="http://www.inkscape.org/namespaces/inkscape"
   width="2977.2px"
   height="4208.4px"
   viewBox="0 0 2977.2 4208.4"
   version="1.2"
   id="svg236"
   sodipodi:docname="Pausenwerte_Punktiert-4.svg"
   inkscape:version="0.92.3 (2405546, 2018-03-11)">
  <metadata
     id="metadata242">
    <rdf:RDF>
      <cc:Work
         rdf:about="">
        <dc:format>image/svg+xml</dc:format>
        <dc:type
           rdf:resource="http://purl.org/dc/dcmitype/StillImage" />
      </cc:Work>
    </rdf:RDF>
  </metadata>
  <defs
     id="defs240" />
  <sodipodi:namedview
     pagecolor="#ffffff"
     bordercolor="#666666"
     borderopacity="1"
     objecttolerance="10"
     gridtolerance="10"
     guidetolerance="10"
     inkscape:pageopacity="0"
     inkscape:pageshadow="2"
     inkscape:window-width="1920"
     inkscape:window-height="1008"
     id="namedview238"
     showgrid="false"
     inkscape:zoom="0.31722689"
     inkscape:cx="727.92684"
     inkscape:cy="4082.4958"
     inkscape:window-x="-6"
     inkscape:window-y="-6"
     inkscape:window-maximized="1"
     inkscape:current-layer="svg236" />
  <title
     id="title2">Pausenwerte_Punktiert-4</title>
  <desc
     id="desc4">Generated by MuseScore 3.5.2</desc>
  <polyline
     class="StaffLines"
     fill="none"
     stroke="#000000"
     stroke-width="2.00"
     stroke-linejoin="bevel"
     points="141.732,316.732 2835.47,316.732"
     id="polyline6" />
  <polyline
     class="StaffLines"
     fill="none"
     stroke="#000000"
     stroke-width="2.00"
     stroke-linejoin="bevel"
     points="141.732,341.732 2835.47,341.732"
     id="polyline8" />
  <polyline
     class="StaffLines"
     fill="none"
     stroke="#000000"
     stroke-width="2.00"
     stroke-linejoin="bevel"
     points="141.732,366.732 2835.47,366.732"
     id="polyline10" />
  <polyline
     class="StaffLines"
     fill="none"
     stroke="#000000"
     stroke-width="2.00"
     stroke-linejoin="bevel"
     points="141.732,391.732 2835.47,391.732"
     id="polyline12" />
  <polyline
     class="StaffLines"
     points="141.732,416.732 2835.47,416.732"
     id="polyline14"
     stroke-linejoin="bevel"
     stroke-width="2.00"
     stroke="#000000"
     fill="none" />
  <polyline
     class="StaffLines"
     fill="none"
     stroke="#000000"
     stroke-width="2.00"
     stroke-linejoin="bevel"
     points="141.732,791.733 2835.47,791.733"
     id="polyline16" />
  <polyline
     class="StaffLines"
     fill="none"
     stroke="#000000"
     stroke-width="2.00"
     stroke-linejoin="bevel"
     points="141.732,816.733 2835.47,816.733"
     id="polyline18" />
  <polyline
     class="StaffLines"
     fill="none"
     stroke="#000000"
     stroke-width="2.00"
     stroke-linejoin="bevel"
     points="141.732,841.733 2835.47,841.733"
     id="polyline20" />
  <polyline
     class="StaffLines"
     fill="none"
     stroke="#000000"
     stroke-width="2.00"
     stroke-linejoin="bevel"
     points="141.732,866.733 2835.47,866.733"
     id="polyline22" />
  <polyline
     class="StaffLines"
     fill="none"
     stroke="#000000"
     stroke-width="2.00"
     stroke-linejoin="bevel"
     points="141.732,891.733 2835.47,891.733"
     id="polyline24" />
  <polyline
     class="StaffLines"
     fill="none"
     stroke="#000000"
     stroke-width="2.00"
     stroke-linejoin="bevel"
     points="141.732,1266.73 2835.47,1266.73"
     id="polyline26" />
  <polyline
     class="StaffLines"
     fill="none"
     stroke="#000000"
     stroke-width="2.00"
     stroke-linejoin="bevel"
     points="141.732,1291.73 2835.47,1291.73"
     id="polyline28" />
  <polyline
     class="StaffLines"
     fill="none"
     stroke="#000000"
     stroke-width="2.00"
     stroke-linejoin="bevel"
     points="141.732,1316.73 2835.47,1316.73"
     id="polyline30" />
  <polyline
     class="StaffLines"
     fill="none"
     stroke="#000000"
     stroke-width="2.00"
     stroke-linejoin="bevel"
     points="141.732,1341.73 2835.47,1341.73"
     id="polyline32" />
  <polyline
     class="StaffLines"
     fill="none"
     stroke="#000000"
     stroke-width="2.00"
     stroke-linejoin="bevel"
     points="141.732,1366.73 2835.47,1366.73"
     id="polyline34" />
  <polyline
     class="StaffLines"
     fill="none"
     stroke="#000000"
     stroke-width="2.00"
     stroke-linejoin="bevel"
     points="141.732,1741.73 2835.47,1741.73"
     id="polyline36" />
  <polyline
     class="StaffLines"
     fill="none"
     stroke="#000000"
     stroke-width="2.00"
     stroke-linejoin="bevel"
     points="141.732,1766.73 2835.47,1766.73"
     id="polyline38" />
  <polyline
     class="StaffLines"
     fill="none"
     stroke="#000000"
     stroke-width="2.00"
     stroke-linejoin="bevel"
     points="141.732,1791.73 2835.47,1791.73"
     id="polyline40" />
  <polyline
     class="StaffLines"
     fill="none"
     stroke="#000000"
     stroke-width="2.00"
     stroke-linejoin="bevel"
     points="141.732,1816.73 2835.47,1816.73"
     id="polyline42" />
  <polyline
     class="StaffLines"
     fill="none"
     stroke="#000000"
     stroke-width="2.00"
     stroke-linejoin="bevel"
     points="141.732,1841.73 2835.47,1841.73"
     id="polyline44" />
  <polyline
     class="StaffLines"
     fill="none"
     stroke="#000000"
     stroke-width="2.00"
     stroke-linejoin="bevel"
     points="141.732,2216.73 2835.47,2216.73"
     id="polyline46" />
  <polyline
     class="StaffLines"
     fill="none"
     stroke="#000000"
     stroke-width="2.00"
     stroke-linejoin="bevel"
     points="141.732,2241.73 2835.47,2241.73"
     id="polyline48" />
  <polyline
     class="StaffLines"
     fill="none"
     stroke="#000000"
     stroke-width="2.00"
     stroke-linejoin="bevel"
     points="141.732,2266.73 2835.47,2266.73"
     id="polyline50" />
  <polyline
     class="StaffLines"
     fill="none"
     stroke="#000000"
     stroke-width="2.00"
     stroke-linejoin="bevel"
     points="141.732,2291.73 2835.47,2291.73"
     id="polyline52" />
  <polyline
     class="StaffLines"
     fill="none"
     stroke="#000000"
     stroke-width="2.00"
     stroke-linejoin="bevel"
     points="141.732,2316.73 2835.47,2316.73"
     id="polyline54" />
  <polyline
     class="StaffLines"
     fill="none"
     stroke="#000000"
     stroke-width="2.00"
     stroke-linejoin="bevel"
     points="141.732,2691.73 2835.47,2691.73"
     id="polyline56" />
  <polyline
     class="StaffLines"
     fill="none"
     stroke="#000000"
     stroke-width="2.00"
     stroke-linejoin="bevel"
     points="141.732,2716.73 2835.47,2716.73"
     id="polyline58" />
  <polyline
     class="StaffLines"
     fill="none"
     stroke="#000000"
     stroke-width="2.00"
     stroke-linejoin="bevel"
     points="141.732,2741.73 2835.47,2741.73"
     id="polyline60" />
  <polyline
     class="StaffLines"
     fill="none"
     stroke="#000000"
     stroke-width="2.00"
     stroke-linejoin="bevel"
     points="141.732,2766.73 2835.47,2766.73"
     id="polyline62" />
  <polyline
     class="StaffLines"
     fill="none"
     stroke="#000000"
     stroke-width="2.00"
     stroke-linejoin="bevel"
     points="141.732,2791.73 2835.47,2791.73"
     id="polyline64" />
  <polyline
     class="StaffLines"
     fill="none"
     stroke="#000000"
     stroke-width="2.00"
     stroke-linejoin="bevel"
     points="141.732,3166.73 1497.53,3166.73"
     id="polyline66" />
  <polyline
     class="StaffLines"
     fill="none"
     stroke="#000000"
     stroke-width="2.00"
     stroke-linejoin="bevel"
     points="141.732,3191.73 1497.53,3191.73"
     id="polyline68" />
  <polyline
     class="StaffLines"
     fill="none"
     stroke="#000000"
     stroke-width="2.00"
     stroke-linejoin="bevel"
     points="141.732,3216.73 1497.53,3216.73"
     id="polyline70" />
  <polyline
     class="StaffLines"
     fill="none"
     stroke="#000000"
     stroke-width="2.00"
     stroke-linejoin="bevel"
     points="141.732,3241.73 1497.53,3241.73"
     id="polyline72" />
  <polyline
     class="StaffLines"
     fill="none"
     stroke="#000000"
     stroke-width="2.00"
     stroke-linejoin="bevel"
     points="141.732,3266.73 1497.53,3266.73"
     id="polyline74" />
  <path
     class="MeasureNumber"
     d="M132.967,722.655 C133.102,722.04 133.237,721.509 133.373,721.061 C133.508,720.613 133.795,719.957 134.232,719.092 C134.67,718.227 135.162,717.511 135.709,716.944 C136.256,716.376 137.016,715.865 137.99,715.412 C138.964,714.959 140.066,714.733 141.295,714.733 C143.368,714.733 145.118,715.41 146.545,716.764 C147.972,718.118 148.685,719.79 148.685,721.78 C148.685,724.79 146.982,728.082 143.576,731.655 L136.857,738.686 L146.404,738.686 C147.31,738.686 147.985,738.535 148.428,738.233 C148.87,737.931 149.467,737.207 150.217,736.061 L150.732,736.248 L148.529,741.733 L132.935,741.733 L132.935,741.248 L140.045,733.701 C143.514,730.014 145.248,726.545 145.248,723.295 C145.248,721.618 144.727,720.259 143.685,719.217 C142.644,718.175 141.284,717.655 139.607,717.655 C138.222,717.655 137.11,718.035 136.271,718.795 C135.433,719.556 134.612,720.91 133.81,722.858 L132.967,722.655 "
     id="path76" />
  <path
     class="MeasureNumber"
     d="M135.467,1213.61 C136.081,1213.61 136.995,1213.97 138.209,1214.69 C139.422,1215.42 140.482,1215.78 141.389,1215.78 C142.857,1215.78 144.097,1215.21 145.107,1214.07 C146.118,1212.93 146.623,1211.52 146.623,1209.86 C146.623,1208.82 146.443,1207.9 146.084,1207.11 C145.724,1206.32 145.266,1205.7 144.709,1205.26 C144.152,1204.83 143.485,1204.47 142.709,1204.19 C141.933,1203.92 141.206,1203.74 140.529,1203.65 C139.852,1203.57 139.128,1203.53 138.357,1203.53 L138.357,1203.01 C139.264,1202.69 140.042,1202.38 140.693,1202.07 C141.344,1201.76 142.029,1201.35 142.748,1200.83 C143.467,1200.32 144.021,1199.69 144.412,1198.94 C144.803,1198.19 144.998,1197.33 144.998,1196.37 C144.998,1195.12 144.589,1194.1 143.771,1193.3 C142.954,1192.49 141.894,1192.09 140.592,1192.09 C139.342,1192.09 138.243,1192.43 137.295,1193.12 C136.347,1193.8 135.461,1194.87 134.639,1196.34 L134.029,1196.17 C134.727,1194.29 135.67,1192.74 136.857,1191.52 C138.045,1190.31 139.727,1189.7 141.904,1189.7 C143.748,1189.7 145.251,1190.21 146.412,1191.22 C147.573,1192.23 148.154,1193.55 148.154,1195.17 C148.154,1196.26 147.873,1197.23 147.31,1198.05 C146.748,1198.88 145.774,1199.76 144.389,1200.7 C145.993,1201.39 147.248,1202.27 148.154,1203.34 C149.06,1204.42 149.514,1205.95 149.514,1207.95 C149.514,1210.79 148.467,1213.05 146.373,1214.75 C144.279,1216.45 141.644,1217.3 138.467,1217.3 C137.081,1217.3 135.982,1217.09 135.17,1216.67 C134.357,1216.25 133.951,1215.7 133.951,1215.01 C133.951,1214.59 134.092,1214.25 134.373,1213.99 C134.654,1213.74 135.019,1213.61 135.467,1213.61"
     id="path78" />
  <path
     class="MeasureNumber"
     d="M151.107,1682.5 L151.107,1685.06 L147.029,1685.06 L147.029,1691.73 L143.951,1691.73 L143.951,1685.06 L132.717,1685.06 L132.717,1682.5 L145.264,1664.7 L147.029,1664.7 L147.029,1682.5 L151.107,1682.5 M143.904,1682.5 L143.904,1668.78 L134.31,1682.5 L143.904,1682.5 "
     id="path80" />
  <path
     class="MeasureNumber"
     d="M146.514,2158.95 C146.514,2157.54 146.198,2156.28 145.568,2155.19 C144.938,2154.11 144.178,2153.26 143.287,2152.66 C142.396,2152.06 141.399,2151.57 140.295,2151.19 C139.191,2150.8 138.23,2150.55 137.412,2150.43 C136.594,2150.31 135.883,2150.25 135.279,2150.25 C134.956,2150.25 134.795,2150.14 134.795,2149.92 C134.795,2149.85 134.805,2149.78 134.826,2149.72 L139.185,2140.26 L147.545,2140.26 C147.972,2140.26 148.313,2140.2 148.568,2140.06 C148.823,2139.93 149.097,2139.65 149.389,2139.22 L149.748,2139.5 L148.232,2143.06 C148.128,2143.3 147.821,2143.42 147.31,2143.42 L139.467,2143.42 L137.795,2146.81 C141.68,2147.5 144.571,2148.62 146.467,2150.18 C148.362,2151.74 149.31,2154.02 149.31,2157.03 C149.31,2158.6 149.063,2160 148.568,2161.23 C148.073,2162.46 147.446,2163.45 146.685,2164.2 C145.925,2164.95 145.045,2165.57 144.045,2166.05 C143.045,2166.53 142.086,2166.85 141.17,2167.03 C140.253,2167.21 139.326,2167.3 138.389,2167.3 C136.899,2167.3 135.714,2167.07 134.834,2166.63 C133.954,2166.19 133.514,2165.58 133.514,2164.81 C133.514,2163.82 134.086,2163.33 135.232,2163.33 C135.982,2163.33 136.948,2163.74 138.131,2164.55 C139.313,2165.37 140.253,2165.78 140.951,2165.78 C142.524,2165.78 143.844,2165.12 144.912,2163.8 C145.98,2162.49 146.514,2160.87 146.514,2158.95"
     id="path82" />
  <path
     class="MeasureNumber"
     d="M142.045,2642.3 C139.357,2642.3 137.193,2641.22 135.553,2639.07 C133.912,2636.92 133.092,2634.08 133.092,2630.55 C133.092,2629.46 133.198,2628.34 133.412,2627.18 C133.626,2626.02 134.092,2624.7 134.81,2623.23 C135.529,2621.75 136.461,2620.43 137.607,2619.26 C138.753,2618.09 140.36,2617.04 142.428,2616.12 C144.495,2615.19 146.878,2614.61 149.576,2614.37 L149.654,2615.02 C146.508,2615.53 143.881,2616.8 141.771,2618.84 C139.662,2620.88 138.342,2623.41 137.81,2626.42 C139.06,2625.7 140.006,2625.24 140.646,2625.02 C141.287,2624.81 142.05,2624.7 142.935,2624.7 C145.227,2624.7 147.053,2625.44 148.412,2626.93 C149.771,2628.41 150.451,2630.42 150.451,2632.94 C150.451,2635.7 149.67,2637.95 148.107,2639.69 C146.545,2641.43 144.524,2642.3 142.045,2642.3 M141.404,2626.45 C139.592,2626.45 138.373,2626.85 137.748,2627.65 C137.123,2628.44 136.81,2629.62 136.81,2631.19 C136.81,2634.26 137.318,2636.68 138.334,2638.44 C139.349,2640.21 140.737,2641.09 142.498,2641.09 C143.904,2641.09 144.982,2640.5 145.732,2639.32 C146.482,2638.14 146.857,2636.46 146.857,2634.3 C146.857,2631.8 146.383,2629.86 145.435,2628.5 C144.487,2627.13 143.144,2626.45 141.404,2626.45"
     id="path84" />
  <path
     class="MeasureNumber"
     d="M150.685,3090.27 L150.685,3090.89 L142.217,3117.05 L139.607,3117.05 L147.529,3093.17 L138.857,3093.17 C137.764,3093.17 136.93,3093.37 136.357,3093.77 C135.784,3094.17 135.071,3095.06 134.217,3096.42 L133.529,3096.11 L135.889,3090.27 L150.685,3090.27 "
     id="path86" />
  <polyline
     class="BarLine"
     fill="none"
     stroke="#000000"
     stroke-width="4.00"
     stroke-linejoin="bevel"
     points="2833.47,315.732 2833.47,417.732"
     id="polyline88" />
  <polyline
     class="BarLine"
     fill="none"
     stroke="#000000"
     stroke-width="4.00"
     stroke-linejoin="bevel"
     points="2833.47,790.733 2833.47,892.733"
     id="polyline90" />
  <polyline
     class="BarLine"
     fill="none"
     stroke="#000000"
     stroke-width="4.00"
     stroke-linejoin="bevel"
     points="2833.47,1265.73 2833.47,1367.73"
     id="polyline92" />
  <polyline
     class="BarLine"
     fill="none"
     stroke="#000000"
     stroke-width="4.00"
     stroke-linejoin="bevel"
     points="2833.47,1740.73 2833.47,1842.73"
     id="polyline94" />
  <polyline
     class="BarLine"
     fill="none"
     stroke="#000000"
     stroke-width="4.00"
     stroke-linejoin="bevel"
     points="2833.47,2215.73 2833.47,2317.73"
     id="polyline96" />
  <polyline
     class="BarLine"
     fill="none"
     stroke="#000000"
     stroke-width="4.00"
     stroke-linejoin="bevel"
     points="1473.03,3165.73 1473.03,3267.73"
     id="polyline100" />
  <polyline
     class="BarLine"
     fill="none"
     stroke="#000000"
     stroke-width="12.50"
     stroke-linejoin="bevel"
     points="1491.28,3165.73 1491.28,3267.73"
     id="polyline102" />
  <path
     class="Clef"
     d="M198.451,366.139 C198.451,366.139 198.649,366.139 199.045,366.139 C199.305,366.076 199.529,366.045 199.717,366.045 C207.008,366.045 212.998,368.618 217.685,373.764 C222.373,378.837 224.717,384.758 224.717,391.529 C224.717,399.936 221.238,406.774 214.279,412.045 C212.456,413.482 210.076,414.654 207.139,415.561 C207.472,419.79 207.639,423.206 207.639,425.811 C207.639,426.331 207.571,428.222 207.435,431.482 C207.175,437.535 205.092,442.774 201.185,447.201 C197.415,451.566 192.727,453.748 187.123,453.748 C181.852,453.748 177.363,451.894 173.654,448.186 C169.935,444.404 168.076,439.847 168.076,434.514 C168.076,431.712 169.154,429.331 171.31,427.373 C173.519,425.425 176.086,424.451 179.014,424.451 C181.618,424.451 183.8,425.462 185.56,427.482 C187.383,429.368 188.295,431.712 188.295,434.514 C188.295,437.045 187.383,439.222 185.56,441.045 C183.738,442.868 181.555,443.779 179.014,443.779 C177.972,443.779 176.967,443.587 175.998,443.201 C178.863,447.43 182.67,449.545 187.42,449.545 C191.909,449.545 195.586,447.722 198.451,444.076 C201.451,440.305 203.081,435.91 203.342,430.889 C203.467,427.764 203.529,425.977 203.529,425.529 C203.529,421.883 203.399,418.889 203.139,416.545 C199.889,417.066 196.993,417.326 194.451,417.326 C185.399,417.326 177.685,413.743 171.31,406.576 C165.06,399.347 161.935,390.753 161.935,380.795 C161.935,378.712 162.128,376.597 162.514,374.451 C162.909,372.691 163.399,370.769 163.982,368.686 C164.305,367.508 165.185,365.618 166.623,363.014 C167.144,362.232 167.73,361.256 168.381,360.084 C169.032,358.912 169.488,358.133 169.748,357.748 C170.394,356.446 171.659,354.686 173.545,352.467 C174.066,351.883 174.605,351.235 175.162,350.522 C175.719,349.808 176.193,349.222 176.584,348.764 C176.974,348.305 177.266,347.946 177.459,347.686 C177.652,347.425 179.118,345.701 181.857,342.514 C182.503,341.857 183.136,341.157 183.756,340.412 C184.376,339.667 184.881,339.081 185.271,338.654 C185.662,338.227 185.956,337.92 186.154,337.732 C183.81,329.982 182.342,323.795 181.748,319.17 C181.3,315.462 181.076,310.383 181.076,303.936 C181.076,298.269 182.378,292.962 184.982,288.014 C187.514,282.878 191.06,278.68 195.623,275.42 C195.883,275.222 196.206,275.123 196.592,275.123 C197.05,275.123 197.378,275.222 197.576,275.42 C201.086,279.649 204.113,285.149 206.654,291.92 C209.258,298.691 210.56,304.847 210.56,310.389 C210.56,316.639 209.066,322.498 206.076,327.967 C202.691,333.758 198.326,339.748 192.982,345.936 C194.347,350.227 196.17,356.962 198.451,366.139 M206.748,411.561 C210.133,410.321 212.774,408.206 214.67,405.217 C216.753,402.352 217.795,399.128 217.795,395.545 C217.795,390.92 216.232,386.816 213.107,383.232 C209.909,379.524 205.836,377.441 200.889,376.982 C203.691,390.722 205.644,402.248 206.748,411.561 M168.967,388.998 C168.967,395.446 171.571,401.113 176.779,405.998 C182.113,410.748 188.102,413.123 194.748,413.123 C197.477,413.123 200.144,412.925 202.748,412.529 C201.706,402.633 199.654,390.785 196.592,376.982 C192.883,377.378 189.925,378.68 187.717,380.889 C185.56,383.17 184.482,385.743 184.482,388.607 C184.482,393.555 187.123,397.561 192.404,400.623 C192.852,401.081 193.076,401.571 193.076,402.092 C193.076,402.613 192.852,403.097 192.404,403.545 C192.008,404.003 191.519,404.232 190.935,404.232 C190.873,404.232 190.581,404.17 190.06,404.045 C186.342,402.024 183.477,399.42 181.467,396.232 C179.571,392.837 178.623,389.415 178.623,385.967 C178.623,381.477 180.024,377.41 182.826,373.764 C185.753,370.118 189.56,367.774 194.248,366.732 C192.425,359.441 190.93,353.743 189.764,349.639 C188.722,350.816 187.469,352.232 186.006,353.889 C184.542,355.545 183.68,356.54 183.42,356.873 C181.076,359.925 179.284,362.3 178.045,363.998 C175.826,367.061 174.196,369.696 173.154,371.904 C172.05,374.383 171.076,377.087 170.232,380.014 C169.389,382.816 168.967,385.811 168.967,388.998 M201.576,289.686 C196.691,292.092 192.852,295.54 190.06,300.029 C187.196,304.654 185.764,309.633 185.764,314.967 C185.764,319.654 186.935,325.972 189.279,333.92 C193.967,328.253 197.482,323.014 199.826,318.201 C202.295,313.118 203.529,307.811 203.529,302.279 C203.529,298.113 202.878,293.915 201.576,289.686"
     id="path104" />
  <path
     class="Clef"
     d="M198.451,841.139 C198.451,841.139 198.649,841.139 199.045,841.139 C199.305,841.076 199.529,841.045 199.717,841.045 C207.008,841.045 212.998,843.618 217.685,848.764 C222.373,853.837 224.717,859.759 224.717,866.53 C224.717,874.936 221.238,881.774 214.279,887.045 C212.456,888.483 210.076,889.655 207.139,890.561 C207.472,894.79 207.639,898.207 207.639,900.811 C207.639,901.332 207.571,903.222 207.435,906.483 C207.175,912.535 205.092,917.774 201.185,922.201 C197.415,926.566 192.727,928.748 187.123,928.748 C181.852,928.748 177.363,926.894 173.654,923.186 C169.935,919.405 168.076,914.847 168.076,909.514 C168.076,906.712 169.154,904.332 171.31,902.373 C173.519,900.425 176.086,899.451 179.014,899.451 C181.618,899.451 183.8,900.462 185.56,902.483 C187.383,904.368 188.295,906.712 188.295,909.514 C188.295,912.045 187.383,914.222 185.56,916.045 C183.738,917.868 181.555,918.78 179.014,918.78 C177.972,918.78 176.967,918.587 175.998,918.201 C178.863,922.431 182.67,924.545 187.42,924.545 C191.909,924.545 195.586,922.722 198.451,919.076 C201.451,915.306 203.081,910.91 203.342,905.889 C203.467,902.764 203.529,900.978 203.529,900.53 C203.529,896.884 203.399,893.889 203.139,891.545 C199.889,892.066 196.993,892.326 194.451,892.326 C185.399,892.326 177.685,888.743 171.31,881.576 C165.06,874.347 161.935,865.754 161.935,855.795 C161.935,853.712 162.128,851.597 162.514,849.451 C162.909,847.691 163.399,845.769 163.982,843.686 C164.305,842.509 165.185,840.618 166.623,838.014 C167.144,837.233 167.73,836.256 168.381,835.084 C169.032,833.912 169.488,833.134 169.748,832.748 C170.394,831.446 171.659,829.686 173.545,827.467 C174.066,826.884 174.605,826.235 175.162,825.522 C175.719,824.808 176.193,824.222 176.584,823.764 C176.974,823.306 177.266,822.946 177.459,822.686 C177.652,822.425 179.118,820.701 181.857,817.514 C182.503,816.858 183.136,816.157 183.756,815.412 C184.376,814.668 184.881,814.082 185.271,813.655 C185.662,813.228 185.956,812.92 186.154,812.733 C183.81,804.983 182.342,798.795 181.748,794.17 C181.3,790.462 181.076,785.384 181.076,778.936 C181.076,773.269 182.378,767.962 184.982,763.014 C187.514,757.879 191.06,753.681 195.623,750.42 C195.883,750.222 196.206,750.123 196.592,750.123 C197.05,750.123 197.378,750.222 197.576,750.42 C201.086,754.649 204.113,760.149 206.654,766.92 C209.258,773.691 210.56,779.847 210.56,785.389 C210.56,791.639 209.066,797.498 206.076,802.967 C202.691,808.759 198.326,814.748 192.982,820.936 C194.347,825.228 196.17,831.962 198.451,841.139 M206.748,886.561 C210.133,885.321 212.774,883.207 214.67,880.217 C216.753,877.353 217.795,874.129 217.795,870.545 C217.795,865.92 216.232,861.816 213.107,858.233 C209.909,854.524 205.836,852.441 200.889,851.983 C203.691,865.722 205.644,877.248 206.748,886.561 M168.967,863.998 C168.967,870.446 171.571,876.113 176.779,880.998 C182.113,885.748 188.102,888.123 194.748,888.123 C197.477,888.123 200.144,887.925 202.748,887.53 C201.706,877.634 199.654,865.785 196.592,851.983 C192.883,852.379 189.925,853.681 187.717,855.889 C185.56,858.17 184.482,860.743 184.482,863.608 C184.482,868.556 187.123,872.561 192.404,875.623 C192.852,876.082 193.076,876.571 193.076,877.092 C193.076,877.613 192.852,878.097 192.404,878.545 C192.008,879.004 191.519,879.233 190.935,879.233 C190.873,879.233 190.581,879.17 190.06,879.045 C186.342,877.024 183.477,874.42 181.467,871.233 C179.571,867.837 178.623,864.415 178.623,860.967 C178.623,856.478 180.024,852.41 182.826,848.764 C185.753,845.118 189.56,842.774 194.248,841.733 C192.425,834.441 190.93,828.743 189.764,824.639 C188.722,825.816 187.469,827.233 186.006,828.889 C184.542,830.545 183.68,831.54 183.42,831.873 C181.076,834.925 179.284,837.3 178.045,838.998 C175.826,842.061 174.196,844.696 173.154,846.905 C172.05,849.384 171.076,852.087 170.232,855.014 C169.389,857.816 168.967,860.811 168.967,863.998 M201.576,764.686 C196.691,767.092 192.852,770.54 190.06,775.03 C187.196,779.655 185.764,784.634 185.764,789.967 C185.764,794.655 186.935,800.972 189.279,808.92 C193.967,803.254 197.482,798.014 199.826,793.201 C202.295,788.118 203.529,782.811 203.529,777.28 C203.529,773.113 202.878,768.915 201.576,764.686"
     id="path106" />
  <path
     class="Clef"
     d="M198.451,1316.14 C198.451,1316.14 198.649,1316.14 199.045,1316.14 C199.305,1316.08 199.529,1316.05 199.717,1316.05 C207.008,1316.05 212.998,1318.62 217.685,1323.76 C222.373,1328.84 224.717,1334.76 224.717,1341.53 C224.717,1349.94 221.238,1356.77 214.279,1362.05 C212.456,1363.48 210.076,1364.65 207.139,1365.56 C207.472,1369.79 207.639,1373.21 207.639,1375.81 C207.639,1376.33 207.571,1378.22 207.435,1381.48 C207.175,1387.54 205.092,1392.77 201.185,1397.2 C197.415,1401.57 192.727,1403.75 187.123,1403.75 C181.852,1403.75 177.363,1401.89 173.654,1398.19 C169.935,1394.4 168.076,1389.85 168.076,1384.51 C168.076,1381.71 169.154,1379.33 171.31,1377.37 C173.519,1375.43 176.086,1374.45 179.014,1374.45 C181.618,1374.45 183.8,1375.46 185.56,1377.48 C187.383,1379.37 188.295,1381.71 188.295,1384.51 C188.295,1387.05 187.383,1389.22 185.56,1391.05 C183.738,1392.87 181.555,1393.78 179.014,1393.78 C177.972,1393.78 176.967,1393.59 175.998,1393.2 C178.863,1397.43 182.67,1399.55 187.42,1399.55 C191.909,1399.55 195.586,1397.72 198.451,1394.08 C201.451,1390.31 203.081,1385.91 203.342,1380.89 C203.467,1377.76 203.529,1375.98 203.529,1375.53 C203.529,1371.88 203.399,1368.89 203.139,1366.55 C199.889,1367.07 196.993,1367.33 194.451,1367.33 C185.399,1367.33 177.685,1363.74 171.31,1356.58 C165.06,1349.35 161.935,1340.75 161.935,1330.8 C161.935,1328.71 162.128,1326.6 162.514,1324.45 C162.909,1322.69 163.399,1320.77 163.982,1318.69 C164.305,1317.51 165.185,1315.62 166.623,1313.01 C167.144,1312.23 167.73,1311.26 168.381,1310.08 C169.032,1308.91 169.488,1308.13 169.748,1307.75 C170.394,1306.45 171.659,1304.69 173.545,1302.47 C174.066,1301.88 174.605,1301.24 175.162,1300.52 C175.719,1299.81 176.193,1299.22 176.584,1298.76 C176.974,1298.31 177.266,1297.95 177.459,1297.69 C177.652,1297.43 179.118,1295.7 181.857,1292.51 C182.503,1291.86 183.136,1291.16 183.756,1290.41 C184.376,1289.67 184.881,1289.08 185.271,1288.65 C185.662,1288.23 185.956,1287.92 186.154,1287.73 C183.81,1279.98 182.342,1273.8 181.748,1269.17 C181.3,1265.46 181.076,1260.38 181.076,1253.94 C181.076,1248.27 182.378,1242.96 184.982,1238.01 C187.514,1232.88 191.06,1228.68 195.623,1225.42 C195.883,1225.22 196.206,1225.12 196.592,1225.12 C197.05,1225.12 197.378,1225.22 197.576,1225.42 C201.086,1229.65 204.113,1235.15 206.654,1241.92 C209.258,1248.69 210.56,1254.85 210.56,1260.39 C210.56,1266.64 209.066,1272.5 206.076,1277.97 C202.691,1283.76 198.326,1289.75 192.982,1295.94 C194.347,1300.23 196.17,1306.96 198.451,1316.14 M206.748,1361.56 C210.133,1360.32 212.774,1358.21 214.67,1355.22 C216.753,1352.35 217.795,1349.13 217.795,1345.55 C217.795,1340.92 216.232,1336.82 213.107,1333.23 C209.909,1329.52 205.836,1327.44 200.889,1326.98 C203.691,1340.72 205.644,1352.25 206.748,1361.56 M168.967,1339 C168.967,1345.45 171.571,1351.11 176.779,1356 C182.113,1360.75 188.102,1363.12 194.748,1363.12 C197.477,1363.12 200.144,1362.93 202.748,1362.53 C201.706,1352.63 199.654,1340.79 196.592,1326.98 C192.883,1327.38 189.925,1328.68 187.717,1330.89 C185.56,1333.17 184.482,1335.74 184.482,1338.61 C184.482,1343.56 187.123,1347.56 192.404,1350.62 C192.852,1351.08 193.076,1351.57 193.076,1352.09 C193.076,1352.61 192.852,1353.1 192.404,1353.55 C192.008,1354 191.519,1354.23 190.935,1354.23 C190.873,1354.23 190.581,1354.17 190.06,1354.05 C186.342,1352.02 183.477,1349.42 181.467,1346.23 C179.571,1342.84 178.623,1339.42 178.623,1335.97 C178.623,1331.48 180.024,1327.41 182.826,1323.76 C185.753,1320.12 189.56,1317.77 194.248,1316.73 C192.425,1309.44 190.93,1303.74 189.764,1299.64 C188.722,1300.82 187.469,1302.23 186.006,1303.89 C184.542,1305.55 183.68,1306.54 183.42,1306.87 C181.076,1309.93 179.284,1312.3 178.045,1314 C175.826,1317.06 174.196,1319.7 173.154,1321.9 C172.05,1324.38 171.076,1327.09 170.232,1330.01 C169.389,1332.82 168.967,1335.81 168.967,1339 M201.576,1239.69 C196.691,1242.09 192.852,1245.54 190.06,1250.03 C187.196,1254.65 185.764,1259.63 185.764,1264.97 C185.764,1269.65 186.935,1275.97 189.279,1283.92 C193.967,1278.25 197.482,1273.01 199.826,1268.2 C202.295,1263.12 203.529,1257.81 203.529,1252.28 C203.529,1248.11 202.878,1243.92 201.576,1239.69"
     id="path108" />
  <path
     class="Clef"
     d="M198.451,1791.14 C198.451,1791.14 198.649,1791.14 199.045,1791.14 C199.305,1791.08 199.529,1791.05 199.717,1791.05 C207.008,1791.05 212.998,1793.62 217.685,1798.76 C222.373,1803.84 224.717,1809.76 224.717,1816.53 C224.717,1824.94 221.238,1831.78 214.279,1837.05 C212.456,1838.48 210.076,1839.66 207.139,1840.56 C207.472,1844.79 207.639,1848.21 207.639,1850.81 C207.639,1851.33 207.571,1853.22 207.435,1856.48 C207.175,1862.54 205.092,1867.78 201.185,1872.2 C197.415,1876.57 192.727,1878.75 187.123,1878.75 C181.852,1878.75 177.363,1876.89 173.654,1873.19 C169.935,1869.41 168.076,1864.85 168.076,1859.51 C168.076,1856.71 169.154,1854.33 171.31,1852.37 C173.519,1850.43 176.086,1849.45 179.014,1849.45 C181.618,1849.45 183.8,1850.46 185.56,1852.48 C187.383,1854.37 188.295,1856.71 188.295,1859.51 C188.295,1862.05 187.383,1864.22 185.56,1866.05 C183.738,1867.87 181.555,1868.78 179.014,1868.78 C177.972,1868.78 176.967,1868.59 175.998,1868.2 C178.863,1872.43 182.67,1874.55 187.42,1874.55 C191.909,1874.55 195.586,1872.72 198.451,1869.08 C201.451,1865.31 203.081,1860.91 203.342,1855.89 C203.467,1852.76 203.529,1850.98 203.529,1850.53 C203.529,1846.88 203.399,1843.89 203.139,1841.55 C199.889,1842.07 196.993,1842.33 194.451,1842.33 C185.399,1842.33 177.685,1838.74 171.31,1831.58 C165.06,1824.35 161.935,1815.75 161.935,1805.8 C161.935,1803.71 162.128,1801.6 162.514,1799.45 C162.909,1797.69 163.399,1795.77 163.982,1793.69 C164.305,1792.51 165.185,1790.62 166.623,1788.01 C167.144,1787.23 167.73,1786.26 168.381,1785.08 C169.032,1783.91 169.488,1783.13 169.748,1782.75 C170.394,1781.45 171.659,1779.69 173.545,1777.47 C174.066,1776.88 174.605,1776.24 175.162,1775.52 C175.719,1774.81 176.193,1774.22 176.584,1773.76 C176.974,1773.31 177.266,1772.95 177.459,1772.69 C177.652,1772.43 179.118,1770.7 181.857,1767.51 C182.503,1766.86 183.136,1766.16 183.756,1765.41 C184.376,1764.67 184.881,1764.08 185.271,1763.66 C185.662,1763.23 185.956,1762.92 186.154,1762.73 C183.81,1754.98 182.342,1748.8 181.748,1744.17 C181.3,1740.46 181.076,1735.38 181.076,1728.94 C181.076,1723.27 182.378,1717.96 184.982,1713.01 C187.514,1707.88 191.06,1703.68 195.623,1700.42 C195.883,1700.22 196.206,1700.12 196.592,1700.12 C197.05,1700.12 197.378,1700.22 197.576,1700.42 C201.086,1704.65 204.113,1710.15 206.654,1716.92 C209.258,1723.69 210.56,1729.85 210.56,1735.39 C210.56,1741.64 209.066,1747.5 206.076,1752.97 C202.691,1758.76 198.326,1764.75 192.982,1770.94 C194.347,1775.23 196.17,1781.96 198.451,1791.14 M206.748,1836.56 C210.133,1835.32 212.774,1833.21 214.67,1830.22 C216.753,1827.35 217.795,1824.13 217.795,1820.55 C217.795,1815.92 216.232,1811.82 213.107,1808.23 C209.909,1804.53 205.836,1802.44 200.889,1801.98 C203.691,1815.72 205.644,1827.25 206.748,1836.56 M168.967,1814 C168.967,1820.45 171.571,1826.11 176.779,1831 C182.113,1835.75 188.102,1838.12 194.748,1838.12 C197.477,1838.12 200.144,1837.93 202.748,1837.53 C201.706,1827.63 199.654,1815.79 196.592,1801.98 C192.883,1802.38 189.925,1803.68 187.717,1805.89 C185.56,1808.17 184.482,1810.74 184.482,1813.61 C184.482,1818.56 187.123,1822.56 192.404,1825.62 C192.852,1826.08 193.076,1826.57 193.076,1827.09 C193.076,1827.61 192.852,1828.1 192.404,1828.55 C192.008,1829 191.519,1829.23 190.935,1829.23 C190.873,1829.23 190.581,1829.17 190.06,1829.05 C186.342,1827.03 183.477,1824.42 181.467,1821.23 C179.571,1817.84 178.623,1814.42 178.623,1810.97 C178.623,1806.48 180.024,1802.41 182.826,1798.76 C185.753,1795.12 189.56,1792.78 194.248,1791.73 C192.425,1784.44 190.93,1778.74 189.764,1774.64 C188.722,1775.82 187.469,1777.23 186.006,1778.89 C184.542,1780.55 183.68,1781.54 183.42,1781.87 C181.076,1784.93 179.284,1787.3 178.045,1789 C175.826,1792.06 174.196,1794.7 173.154,1796.91 C172.05,1799.38 171.076,1802.09 170.232,1805.01 C169.389,1807.82 168.967,1810.81 168.967,1814 M201.576,1714.69 C196.691,1717.09 192.852,1720.54 190.06,1725.03 C187.196,1729.66 185.764,1734.63 185.764,1739.97 C185.764,1744.66 186.935,1750.97 189.279,1758.92 C193.967,1753.25 197.482,1748.01 199.826,1743.2 C202.295,1738.12 203.529,1732.81 203.529,1727.28 C203.529,1723.11 202.878,1718.92 201.576,1714.69"
     id="path110" />
  <path
     class="Clef"
     d="M198.451,2266.14 C198.451,2266.14 198.649,2266.14 199.045,2266.14 C199.305,2266.08 199.529,2266.05 199.717,2266.05 C207.008,2266.05 212.998,2268.62 217.685,2273.76 C222.373,2278.84 224.717,2284.76 224.717,2291.53 C224.717,2299.94 221.238,2306.78 214.279,2312.05 C212.456,2313.48 210.076,2314.66 207.139,2315.56 C207.472,2319.79 207.639,2323.21 207.639,2325.81 C207.639,2326.33 207.571,2328.22 207.435,2331.48 C207.175,2337.54 205.092,2342.78 201.185,2347.2 C197.415,2351.57 192.727,2353.75 187.123,2353.75 C181.852,2353.75 177.363,2351.9 173.654,2348.19 C169.935,2344.41 168.076,2339.85 168.076,2334.51 C168.076,2331.71 169.154,2329.33 171.31,2327.37 C173.519,2325.43 176.086,2324.45 179.014,2324.45 C181.618,2324.45 183.8,2325.46 185.56,2327.48 C187.383,2329.37 188.295,2331.71 188.295,2334.51 C188.295,2337.05 187.383,2339.22 185.56,2341.05 C183.738,2342.87 181.555,2343.78 179.014,2343.78 C177.972,2343.78 176.967,2343.59 175.998,2343.2 C178.863,2347.43 182.67,2349.55 187.42,2349.55 C191.909,2349.55 195.586,2347.72 198.451,2344.08 C201.451,2340.31 203.081,2335.91 203.342,2330.89 C203.467,2327.76 203.529,2325.98 203.529,2325.53 C203.529,2321.88 203.399,2318.89 203.139,2316.55 C199.889,2317.07 196.993,2317.33 194.451,2317.33 C185.399,2317.33 177.685,2313.74 171.31,2306.58 C165.06,2299.35 161.935,2290.75 161.935,2280.8 C161.935,2278.71 162.128,2276.6 162.514,2274.45 C162.909,2272.69 163.399,2270.77 163.982,2268.69 C164.305,2267.51 165.185,2265.62 166.623,2263.01 C167.144,2262.23 167.73,2261.26 168.381,2260.09 C169.032,2258.91 169.488,2258.13 169.748,2257.75 C170.394,2256.45 171.659,2254.69 173.545,2252.47 C174.066,2251.88 174.605,2251.24 175.162,2250.52 C175.719,2249.81 176.193,2249.22 176.584,2248.76 C176.974,2248.31 177.266,2247.95 177.459,2247.69 C177.652,2247.43 179.118,2245.7 181.857,2242.51 C182.503,2241.86 183.136,2241.16 183.756,2240.41 C184.376,2239.67 184.881,2239.08 185.271,2238.66 C185.662,2238.23 185.956,2237.92 186.154,2237.73 C183.81,2229.98 182.342,2223.8 181.748,2219.17 C181.3,2215.46 181.076,2210.38 181.076,2203.94 C181.076,2198.27 182.378,2192.96 184.982,2188.01 C187.514,2182.88 191.06,2178.68 195.623,2175.42 C195.883,2175.22 196.206,2175.12 196.592,2175.12 C197.05,2175.12 197.378,2175.22 197.576,2175.42 C201.086,2179.65 204.113,2185.15 206.654,2191.92 C209.258,2198.69 210.56,2204.85 210.56,2210.39 C210.56,2216.64 209.066,2222.5 206.076,2227.97 C202.691,2233.76 198.326,2239.75 192.982,2245.94 C194.347,2250.23 196.17,2256.96 198.451,2266.14 M206.748,2311.56 C210.133,2310.32 212.774,2308.21 214.67,2305.22 C216.753,2302.35 217.795,2299.13 217.795,2295.55 C217.795,2290.92 216.232,2286.82 213.107,2283.23 C209.909,2279.53 205.836,2277.44 200.889,2276.98 C203.691,2290.72 205.644,2302.25 206.748,2311.56 M168.967,2289 C168.967,2295.45 171.571,2301.11 176.779,2306 C182.113,2310.75 188.102,2313.12 194.748,2313.12 C197.477,2313.12 200.144,2312.93 202.748,2312.53 C201.706,2302.63 199.654,2290.79 196.592,2276.98 C192.883,2277.38 189.925,2278.68 187.717,2280.89 C185.56,2283.17 184.482,2285.74 184.482,2288.61 C184.482,2293.56 187.123,2297.56 192.404,2300.62 C192.852,2301.08 193.076,2301.57 193.076,2302.09 C193.076,2302.61 192.852,2303.1 192.404,2303.55 C192.008,2304 191.519,2304.23 190.935,2304.23 C190.873,2304.23 190.581,2304.17 190.06,2304.05 C186.342,2302.03 183.477,2299.42 181.467,2296.23 C179.571,2292.84 178.623,2289.42 178.623,2285.97 C178.623,2281.48 180.024,2277.41 182.826,2273.76 C185.753,2270.12 189.56,2267.78 194.248,2266.73 C192.425,2259.44 190.93,2253.74 189.764,2249.64 C188.722,2250.82 187.469,2252.23 186.006,2253.89 C184.542,2255.55 183.68,2256.54 183.42,2256.87 C181.076,2259.93 179.284,2262.3 178.045,2264 C175.826,2267.06 174.196,2269.7 173.154,2271.91 C172.05,2274.38 171.076,2277.09 170.232,2280.01 C169.389,2282.82 168.967,2285.81 168.967,2289 M201.576,2189.69 C196.691,2192.09 192.852,2195.54 190.06,2200.03 C187.196,2204.66 185.764,2209.63 185.764,2214.97 C185.764,2219.66 186.935,2225.97 189.279,2233.92 C193.967,2228.25 197.482,2223.01 199.826,2218.2 C202.295,2213.12 203.529,2207.81 203.529,2202.28 C203.529,2198.11 202.878,2193.92 201.576,2189.69"
     id="path112" />
  <path
     class="Clef"
     d="M198.451,2741.14 C198.451,2741.14 198.649,2741.14 199.045,2741.14 C199.305,2741.08 199.529,2741.05 199.717,2741.05 C207.008,2741.05 212.998,2743.62 217.685,2748.77 C222.373,2753.84 224.717,2759.76 224.717,2766.53 C224.717,2774.94 221.238,2781.78 214.279,2787.05 C212.456,2788.48 210.076,2789.66 207.139,2790.56 C207.472,2794.79 207.639,2798.21 207.639,2800.81 C207.639,2801.33 207.571,2803.22 207.435,2806.48 C207.175,2812.54 205.092,2817.78 201.185,2822.2 C197.415,2826.57 192.727,2828.75 187.123,2828.75 C181.852,2828.75 177.363,2826.9 173.654,2823.19 C169.935,2819.41 168.076,2814.85 168.076,2809.52 C168.076,2806.71 169.154,2804.33 171.31,2802.37 C173.519,2800.43 176.086,2799.45 179.014,2799.45 C181.618,2799.45 183.8,2800.46 185.56,2802.48 C187.383,2804.37 188.295,2806.71 188.295,2809.52 C188.295,2812.05 187.383,2814.22 185.56,2816.05 C183.738,2817.87 181.555,2818.78 179.014,2818.78 C177.972,2818.78 176.967,2818.59 175.998,2818.2 C178.863,2822.43 182.67,2824.55 187.42,2824.55 C191.909,2824.55 195.586,2822.72 198.451,2819.08 C201.451,2815.31 203.081,2810.91 203.342,2805.89 C203.467,2802.77 203.529,2800.98 203.529,2800.53 C203.529,2796.88 203.399,2793.89 203.139,2791.55 C199.889,2792.07 196.993,2792.33 194.451,2792.33 C185.399,2792.33 177.685,2788.74 171.31,2781.58 C165.06,2774.35 161.935,2765.75 161.935,2755.8 C161.935,2753.71 162.128,2751.6 162.514,2749.45 C162.909,2747.69 163.399,2745.77 163.982,2743.69 C164.305,2742.51 165.185,2740.62 166.623,2738.02 C167.144,2737.23 167.73,2736.26 168.381,2735.09 C169.032,2733.91 169.488,2733.13 169.748,2732.75 C170.394,2731.45 171.659,2729.69 173.545,2727.47 C174.066,2726.88 174.605,2726.24 175.162,2725.52 C175.719,2724.81 176.193,2724.22 176.584,2723.77 C176.974,2723.31 177.266,2722.95 177.459,2722.69 C177.652,2722.43 179.118,2720.7 181.857,2717.52 C182.503,2716.86 183.136,2716.16 183.756,2715.41 C184.376,2714.67 184.881,2714.08 185.271,2713.66 C185.662,2713.23 185.956,2712.92 186.154,2712.73 C183.81,2704.98 182.342,2698.8 181.748,2694.17 C181.3,2690.46 181.076,2685.38 181.076,2678.94 C181.076,2673.27 182.378,2667.96 184.982,2663.02 C187.514,2657.88 191.06,2653.68 195.623,2650.42 C195.883,2650.22 196.206,2650.12 196.592,2650.12 C197.05,2650.12 197.378,2650.22 197.576,2650.42 C201.086,2654.65 204.113,2660.15 206.654,2666.92 C209.258,2673.69 210.56,2679.85 210.56,2685.39 C210.56,2691.64 209.066,2697.5 206.076,2702.97 C202.691,2708.76 198.326,2714.75 192.982,2720.94 C194.347,2725.23 196.17,2731.96 198.451,2741.14 M206.748,2786.56 C210.133,2785.32 212.774,2783.21 214.67,2780.22 C216.753,2777.35 217.795,2774.13 217.795,2770.55 C217.795,2765.92 216.232,2761.82 213.107,2758.23 C209.909,2754.53 205.836,2752.44 200.889,2751.98 C203.691,2765.72 205.644,2777.25 206.748,2786.56 M168.967,2764 C168.967,2770.45 171.571,2776.11 176.779,2781 C182.113,2785.75 188.102,2788.12 194.748,2788.12 C197.477,2788.12 200.144,2787.93 202.748,2787.53 C201.706,2777.63 199.654,2765.79 196.592,2751.98 C192.883,2752.38 189.925,2753.68 187.717,2755.89 C185.56,2758.17 184.482,2760.74 184.482,2763.61 C184.482,2768.56 187.123,2772.56 192.404,2775.62 C192.852,2776.08 193.076,2776.57 193.076,2777.09 C193.076,2777.61 192.852,2778.1 192.404,2778.55 C192.008,2779 191.519,2779.23 190.935,2779.23 C190.873,2779.23 190.581,2779.17 190.06,2779.05 C186.342,2777.03 183.477,2774.42 181.467,2771.23 C179.571,2767.84 178.623,2764.42 178.623,2760.97 C178.623,2756.48 180.024,2752.41 182.826,2748.77 C185.753,2745.12 189.56,2742.78 194.248,2741.73 C192.425,2734.44 190.93,2728.74 189.764,2724.64 C188.722,2725.82 187.469,2727.23 186.006,2728.89 C184.542,2730.55 183.68,2731.54 183.42,2731.87 C181.076,2734.93 179.284,2737.3 178.045,2739 C175.826,2742.06 174.196,2744.7 173.154,2746.91 C172.05,2749.38 171.076,2752.09 170.232,2755.02 C169.389,2757.82 168.967,2760.81 168.967,2764 M201.576,2664.69 C196.691,2667.09 192.852,2670.54 190.06,2675.03 C187.196,2679.66 185.764,2684.63 185.764,2689.97 C185.764,2694.66 186.935,2700.97 189.279,2708.92 C193.967,2703.25 197.482,2698.02 199.826,2693.2 C202.295,2688.12 203.529,2682.81 203.529,2677.28 C203.529,2673.11 202.878,2668.92 201.576,2664.69"
     id="path114" />
  <path
     class="Clef"
     d="M198.451,3216.14 C198.451,3216.14 198.649,3216.14 199.045,3216.14 C199.305,3216.08 199.529,3216.05 199.717,3216.05 C207.008,3216.05 212.998,3218.62 217.685,3223.77 C222.373,3228.84 224.717,3234.76 224.717,3241.53 C224.717,3249.94 221.238,3256.78 214.279,3262.05 C212.456,3263.48 210.076,3264.66 207.139,3265.56 C207.472,3269.79 207.639,3273.21 207.639,3275.81 C207.639,3276.33 207.571,3278.22 207.435,3281.48 C207.175,3287.54 205.092,3292.78 201.185,3297.2 C197.415,3301.57 192.727,3303.75 187.123,3303.75 C181.852,3303.75 177.363,3301.9 173.654,3298.19 C169.935,3294.41 168.076,3289.85 168.076,3284.52 C168.076,3281.71 169.154,3279.33 171.31,3277.37 C173.519,3275.43 176.086,3274.45 179.014,3274.45 C181.618,3274.45 183.8,3275.46 185.56,3277.48 C187.383,3279.37 188.295,3281.71 188.295,3284.52 C188.295,3287.05 187.383,3289.22 185.56,3291.05 C183.738,3292.87 181.555,3293.78 179.014,3293.78 C177.972,3293.78 176.967,3293.59 175.998,3293.2 C178.863,3297.43 182.67,3299.55 187.42,3299.55 C191.909,3299.55 195.586,3297.72 198.451,3294.08 C201.451,3290.31 203.081,3285.91 203.342,3280.89 C203.467,3277.77 203.529,3275.98 203.529,3275.53 C203.529,3271.89 203.399,3268.89 203.139,3266.55 C199.889,3267.07 196.993,3267.33 194.451,3267.33 C185.399,3267.33 177.685,3263.74 171.31,3256.58 C165.06,3249.35 161.935,3240.76 161.935,3230.8 C161.935,3228.71 162.128,3226.6 162.514,3224.45 C162.909,3222.69 163.399,3220.77 163.982,3218.69 C164.305,3217.51 165.185,3215.62 166.623,3213.02 C167.144,3212.23 167.73,3211.26 168.381,3210.09 C169.032,3208.91 169.488,3208.14 169.748,3207.75 C170.394,3206.45 171.659,3204.69 173.545,3202.47 C174.066,3201.89 174.605,3201.24 175.162,3200.52 C175.719,3199.81 176.193,3199.22 176.584,3198.77 C176.974,3198.31 177.266,3197.95 177.459,3197.69 C177.652,3197.43 179.118,3195.7 181.857,3192.52 C182.503,3191.86 183.136,3191.16 183.756,3190.41 C184.376,3189.67 184.881,3189.08 185.271,3188.66 C185.662,3188.23 185.956,3187.92 186.154,3187.73 C183.81,3179.98 182.342,3173.8 181.748,3169.17 C181.3,3165.46 181.076,3160.39 181.076,3153.94 C181.076,3148.27 182.378,3142.96 184.982,3138.02 C187.514,3132.88 191.06,3128.68 195.623,3125.42 C195.883,3125.22 196.206,3125.12 196.592,3125.12 C197.05,3125.12 197.378,3125.22 197.576,3125.42 C201.086,3129.65 204.113,3135.15 206.654,3141.92 C209.258,3148.69 210.56,3154.85 210.56,3160.39 C210.56,3166.64 209.066,3172.5 206.076,3177.97 C202.691,3183.76 198.326,3189.75 192.982,3195.94 C194.347,3200.23 196.17,3206.96 198.451,3216.14 M206.748,3261.56 C210.133,3260.32 212.774,3258.21 214.67,3255.22 C216.753,3252.35 217.795,3249.13 217.795,3245.55 C217.795,3240.92 216.232,3236.82 213.107,3233.23 C209.909,3229.53 205.836,3227.44 200.889,3226.98 C203.691,3240.72 205.644,3252.25 206.748,3261.56 M168.967,3239 C168.967,3245.45 171.571,3251.11 176.779,3256 C182.113,3260.75 188.102,3263.12 194.748,3263.12 C197.477,3263.12 200.144,3262.93 202.748,3262.53 C201.706,3252.64 199.654,3240.79 196.592,3226.98 C192.883,3227.38 189.925,3228.68 187.717,3230.89 C185.56,3233.17 184.482,3235.74 184.482,3238.61 C184.482,3243.56 187.123,3247.56 192.404,3250.62 C192.852,3251.08 193.076,3251.57 193.076,3252.09 C193.076,3252.61 192.852,3253.1 192.404,3253.55 C192.008,3254.01 191.519,3254.23 190.935,3254.23 C190.873,3254.23 190.581,3254.17 190.06,3254.05 C186.342,3252.03 183.477,3249.42 181.467,3246.23 C179.571,3242.84 178.623,3239.42 178.623,3235.97 C178.623,3231.48 180.024,3227.41 182.826,3223.77 C185.753,3220.12 189.56,3217.78 194.248,3216.73 C192.425,3209.44 190.93,3203.74 189.764,3199.64 C188.722,3200.82 187.469,3202.23 186.006,3203.89 C184.542,3205.55 183.68,3206.54 183.42,3206.87 C181.076,3209.93 179.284,3212.3 178.045,3214 C175.826,3217.06 174.196,3219.7 173.154,3221.91 C172.05,3224.39 171.076,3227.09 170.232,3230.02 C169.389,3232.82 168.967,3235.81 168.967,3239 M201.576,3139.69 C196.691,3142.09 192.852,3145.54 190.06,3150.03 C187.196,3154.66 185.764,3159.64 185.764,3164.97 C185.764,3169.66 186.935,3175.97 189.279,3183.92 C193.967,3178.26 197.482,3173.02 199.826,3168.2 C202.295,3163.12 203.529,3157.81 203.529,3152.28 C203.529,3148.11 202.878,3143.92 201.576,3139.69"
     id="path116" />
  <path
     class="Rest"
     d="M486.295,321.217 C488.18,321.217 489.613,321.738 490.592,322.779 C491.634,323.894 492.186,325.003 492.248,326.107 C492.446,327.41 492.774,328.514 493.232,329.42 C493.68,330.462 494.394,330.982 495.373,330.982 C496.217,330.982 497.618,328.899 499.576,324.732 C499.899,324.087 500.352,323.764 500.936,323.764 L501.045,323.764 C501.691,323.826 502.144,324.149 502.404,324.732 L478.67,466.732 C478.024,467.389 477.113,467.717 475.936,467.717 C474.831,467.717 473.92,467.389 473.201,466.732 L479.264,433.826 C474.576,435.514 470.701,436.357 467.639,436.357 C465.295,436.357 463.274,435.613 461.576,434.123 C459.826,432.686 458.951,430.795 458.951,428.451 C458.951,426.43 459.634,424.738 460.998,423.373 C462.425,421.946 464.118,421.232 466.076,421.232 C467.962,421.232 469.394,421.753 470.373,422.795 C471.352,423.899 471.941,425.003 472.139,426.107 C472.201,427.347 472.493,428.456 473.014,429.436 C473.472,430.477 474.186,430.998 475.154,430.998 C476.009,430.998 477.217,430.019 478.779,428.061 C480.342,425.915 481.154,424.383 481.217,423.467 L483.951,408.92 C479.462,410.545 475.686,411.357 472.623,411.357 C470.342,411.357 468.29,410.613 466.467,409.123 C464.769,407.623 463.92,405.732 463.92,403.451 C463.92,401.43 464.639,399.738 466.076,398.373 C467.441,396.946 469.102,396.232 471.061,396.232 C472.946,396.232 474.378,396.753 475.357,397.795 C476.399,398.899 476.951,400.003 477.014,401.107 C477.212,402.41 477.54,403.519 477.998,404.436 C478.446,405.477 479.191,405.998 480.232,405.998 C481.014,405.998 482.092,405.019 483.467,403.061 C484.831,401.238 485.613,399.805 485.811,398.764 L488.545,384.014 C484.441,385.576 480.826,386.357 477.701,386.357 C475.42,386.357 473.368,385.607 471.545,384.107 C469.857,382.618 469.014,380.732 469.014,378.451 C469.014,376.43 469.727,374.738 471.154,373.373 C472.519,371.936 474.212,371.217 476.232,371.217 C478.118,371.217 479.55,371.738 480.529,372.779 C481.509,373.956 482.029,375.066 482.092,376.107 C482.227,377.087 482.555,378.191 483.076,379.42 C483.66,380.462 484.404,380.982 485.311,380.982 C485.967,380.982 486.946,380.071 488.248,378.248 C489.488,376.363 490.201,374.93 490.389,373.951 L493.232,359.107 C489.066,360.607 485.55,361.357 482.686,361.357 C480.342,361.357 478.321,360.607 476.623,359.107 C474.863,357.68 473.982,355.795 473.982,353.451 C473.982,351.43 474.67,349.738 476.045,348.373 C477.472,346.936 479.196,346.217 481.217,346.217 C483.165,346.217 484.566,346.738 485.42,347.779 C486.389,348.894 486.972,350.003 487.17,351.107 C487.232,352.212 487.561,353.316 488.154,354.42 C488.54,355.462 489.253,355.982 490.295,355.982 C490.951,355.982 491.863,355.071 493.029,353.248 C494.134,351.425 494.785,350.092 494.982,349.248 L497.811,334.107 C493.842,335.607 490.493,336.357 487.764,336.357 C485.42,336.357 483.399,335.607 481.701,334.107 C479.941,332.68 479.061,330.795 479.061,328.451 C479.061,326.43 479.748,324.738 481.123,323.373 C482.55,321.936 484.274,321.217 486.295,321.217"
     id="path134" />
  <path
     class="Rest"
     d="M430.529,796.217 C432.415,796.217 433.847,796.738 434.826,797.78 C435.805,798.894 436.394,800.004 436.592,801.108 C436.654,802.347 436.946,803.451 437.467,804.42 C437.925,805.462 438.675,805.983 439.717,805.983 C440.238,805.983 441.05,805.201 442.154,803.639 C443.061,802.274 443.811,800.972 444.404,799.733 C444.727,799.087 445.18,798.764 445.764,798.764 C446.347,798.764 446.805,799.087 447.139,799.733 L423.701,916.733 C423.045,917.389 422.097,917.717 420.857,917.717 C419.753,917.717 418.842,917.389 418.123,916.733 L425.451,883.92 C421.16,885.545 417.383,886.358 414.123,886.358 C411.779,886.358 409.758,885.613 408.061,884.123 C406.311,882.686 405.436,880.795 405.436,878.451 C405.436,876.431 406.149,874.738 407.576,873.373 C409.014,871.946 410.743,871.233 412.764,871.233 C414.712,871.233 416.107,871.754 416.951,872.795 C417.868,873.899 418.425,875.004 418.623,876.108 C418.811,877.41 419.133,878.519 419.592,879.436 C420.05,880.478 420.769,880.998 421.748,880.998 C422.529,880.998 423.701,880.019 425.264,878.061 C426.753,876.175 427.597,874.743 427.795,873.764 L431.123,859.014 C427.019,860.576 423.373,861.358 420.186,861.358 C417.842,861.358 415.821,860.613 414.123,859.123 C412.363,857.686 411.482,855.795 411.482,853.451 C411.482,851.431 412.17,849.738 413.545,848.373 C414.972,846.946 416.696,846.233 418.717,846.233 C420.665,846.233 422.066,846.754 422.92,847.795 C423.889,848.899 424.472,850.004 424.67,851.108 C424.732,852.347 425.024,853.457 425.545,854.436 C426.003,855.478 426.753,855.998 427.795,855.998 C428.451,855.998 429.493,855.087 430.92,853.264 C432.285,851.306 433.066,849.873 433.264,848.967 L436.686,834.014 C432.321,835.576 428.774,836.358 426.045,836.358 C423.701,836.358 421.68,835.608 419.982,834.108 C418.222,832.681 417.342,830.795 417.342,828.451 C417.342,826.431 418.061,824.738 419.498,823.373 C420.925,821.936 422.649,821.217 424.67,821.217 C426.628,821.217 428.029,821.738 428.873,822.78 C429.779,823.894 430.331,825.004 430.529,826.108 C430.592,827.212 430.92,828.316 431.514,829.42 C431.899,830.462 432.613,830.983 433.654,830.983 C434.373,830.983 435.35,830.071 436.584,828.248 C437.818,826.425 438.566,825.092 438.826,824.248 L442.248,809.108 C438.144,810.608 434.758,811.358 432.092,811.358 C429.748,811.358 427.732,810.608 426.045,809.108 C424.285,807.681 423.404,805.795 423.404,803.451 C423.404,801.431 424.087,799.738 425.451,798.373 C426.816,796.936 428.508,796.217 430.529,796.217"
     id="path144" />
  <path
     class="Rest"
     d="M427.607,1271.22 C429.493,1271.22 430.925,1271.74 431.904,1272.78 C432.873,1273.96 433.394,1275.07 433.467,1276.11 C433.592,1277.09 433.915,1278.19 434.436,1279.42 C435.019,1280.46 435.769,1280.98 436.686,1280.98 C437.269,1280.98 438.212,1280.2 439.514,1278.64 C440.691,1276.95 441.472,1275.65 441.857,1274.73 C442.18,1274.09 442.639,1273.76 443.232,1273.76 L443.326,1273.76 C443.972,1273.83 444.425,1274.15 444.686,1274.73 L423.107,1366.73 C422.462,1367.39 421.519,1367.72 420.279,1367.72 C419.175,1367.72 418.264,1367.39 417.545,1366.73 L426.139,1334.01 C422.035,1335.58 418.451,1336.36 415.389,1336.36 C413.107,1336.36 411.055,1335.61 409.232,1334.12 C407.545,1332.62 406.701,1330.73 406.701,1328.45 C406.701,1326.43 407.415,1324.74 408.842,1323.37 C410.217,1321.95 411.878,1321.23 413.826,1321.23 C415.722,1321.23 417.154,1321.75 418.123,1322.8 C419.165,1323.9 419.722,1325 419.795,1326.11 C419.982,1327.41 420.305,1328.52 420.764,1329.44 C421.222,1330.48 421.972,1331 423.014,1331 C423.732,1331 424.837,1330.09 426.326,1328.26 C427.701,1326.44 428.55,1325.01 428.873,1323.97 L432.779,1309.01 C428.415,1310.58 424.868,1311.36 422.139,1311.36 C419.795,1311.36 417.774,1310.61 416.076,1309.11 C414.316,1307.68 413.436,1305.8 413.436,1303.45 C413.436,1301.43 414.154,1299.74 415.592,1298.37 C417.019,1296.94 418.743,1296.22 420.764,1296.22 C422.722,1296.22 424.123,1296.74 424.967,1297.78 C425.873,1298.89 426.425,1300 426.623,1301.11 C426.821,1302.41 427.149,1303.51 427.607,1304.42 C428.055,1305.46 428.769,1305.98 429.748,1305.98 C430.467,1305.98 431.508,1305.07 432.873,1303.25 C434.238,1301.62 435.087,1300.29 435.42,1299.25 L439.42,1284.11 C435.316,1285.61 431.863,1286.36 429.061,1286.36 C426.79,1286.36 424.743,1285.61 422.92,1284.11 C421.222,1282.62 420.373,1280.73 420.373,1278.45 C420.373,1276.43 421.092,1274.74 422.529,1273.37 C423.894,1271.94 425.587,1271.22 427.607,1271.22"
     id="path152" />
  <path
     class="Rest"
     d="M423.732,1770.91 C425.691,1770.91 427.092,1771.43 427.936,1772.47 C428.842,1773.58 429.394,1774.69 429.592,1775.8 C429.654,1776.9 429.982,1778 430.576,1779.11 C430.962,1780.15 431.675,1780.67 432.717,1780.67 C433.373,1780.67 434.352,1779.89 435.654,1778.33 C437.144,1776.5 438.087,1775.2 438.482,1774.42 C438.805,1773.77 439.258,1773.45 439.842,1773.45 C439.842,1773.45 439.878,1773.45 439.951,1773.45 C440.535,1773.51 440.956,1773.84 441.217,1774.42 L423.342,1841.42 C422.696,1842.08 421.787,1842.41 420.615,1842.41 C419.443,1842.41 418.529,1842.08 417.873,1841.42 L427.936,1808.7 C423.571,1810.26 420.024,1811.05 417.295,1811.05 C414.951,1811.05 412.93,1810.3 411.232,1808.81 C409.472,1807.37 408.592,1805.48 408.592,1803.14 C408.592,1801.12 409.274,1799.43 410.639,1798.06 C412.076,1796.63 413.805,1795.92 415.826,1795.92 C417.774,1795.92 419.175,1796.44 420.029,1797.48 C420.998,1798.59 421.581,1799.69 421.779,1800.8 C421.977,1802.1 422.305,1803.21 422.764,1804.12 C423.212,1805.17 423.925,1805.69 424.904,1805.69 C425.686,1805.69 426.795,1804.77 428.232,1802.95 C429.722,1801.25 430.633,1799.92 430.967,1798.94 L435.545,1783.8 C431.378,1785.3 427.899,1786.05 425.107,1786.05 C422.764,1786.05 420.743,1785.3 419.045,1783.8 C417.285,1782.37 416.404,1780.48 416.404,1778.14 C416.404,1776.12 417.123,1774.43 418.561,1773.06 C419.988,1771.62 421.712,1770.91 423.732,1770.91"
     id="path160" />
  <path
     class="Rest"
     d="M418.732,2246.37 C420.618,2246.37 422.05,2246.9 423.029,2247.94 C424.008,2249.11 424.529,2250.22 424.592,2251.26 C424.727,2252.24 425.055,2253.35 425.576,2254.58 C426.16,2255.62 426.904,2256.14 427.811,2256.14 C428.529,2256.14 429.607,2255.33 431.045,2253.7 C432.347,2252.28 433.29,2251 433.873,2249.89 C434.196,2249.24 434.649,2248.92 435.232,2248.92 L435.342,2248.92 C435.988,2248.98 436.441,2249.31 436.701,2249.89 L424.404,2291.89 C423.748,2292.55 422.834,2292.87 421.662,2292.87 C420.49,2292.87 419.581,2292.55 418.936,2291.89 L430.654,2259.26 C426.488,2260.76 422.972,2261.51 420.107,2261.51 C417.764,2261.51 415.743,2260.76 414.045,2259.26 C412.285,2257.84 411.404,2255.95 411.404,2253.61 C411.404,2251.59 412.123,2249.9 413.561,2248.53 C414.988,2247.09 416.712,2246.37 418.732,2246.37"
     id="path166" />
  <path
     class="Rest"
     d="M448.701,2741.73 L413.154,2741.73 C412.498,2741.73 412.17,2741.41 412.17,2740.75 L412.17,2727.08 C412.17,2726.43 412.498,2726.11 413.154,2726.11 L448.701,2726.11 C449.347,2726.11 449.67,2726.43 449.67,2727.08 L449.67,2740.75 C449.67,2741.41 449.347,2741.73 448.701,2741.73"
     id="path172" />
  <path
     class="Rest"
     d="M526.971,3207.36 L491.424,3207.36 C490.768,3207.36 490.44,3207.04 490.44,3206.39 L490.44,3192.72 C490.44,3192.06 490.768,3191.73 491.424,3191.73 L526.971,3191.73 C527.617,3191.73 527.94,3192.06 527.94,3192.72 L527.94,3206.39 C527.94,3207.04 527.617,3207.36 526.971,3207.36"
     id="path176" />
  <path
     class="StaffText"
     d="m 579.5455,323.5609 c 1.56313,0 2.90625,0.57877 4.03135,1.7363 1.1251,1.15753 1.68815,2.51933 1.68815,4.0834 0,1.50198 -0.57805,2.7977 -1.73515,3.88814 -1.15611,1.09044 -2.55223,1.63516 -4.18737,1.63516 -1.42713,0 -2.68524,-0.54472 -3.77434,-1.63516 -1.08809,-1.09044 -1.63214,-2.38616 -1.63214,-3.88814 0,-1.56407 0.56205,-2.92587 1.68715,-4.0834 1.1251,-1.15753 2.43221,-1.7363 3.92235,-1.7363"
     id="path180"
     inkscape:connector-curvature="0"
     style="stroke-width:1.00070596" />
  <path
     class="NoteDot"
     d="M518.733,333.24 C517.623,332.131 517.068,330.795 517.068,329.232 C517.068,327.67 517.623,326.334 518.733,325.225 C519.842,324.115 521.178,323.561 522.74,323.561 C524.303,323.561 525.636,324.115 526.74,325.225 C527.844,326.334 528.397,327.67 528.397,329.232 C528.397,330.795 527.844,332.131 526.74,333.24 C525.636,334.35 524.303,334.904 522.74,334.904 C521.178,334.904 519.842,334.35 518.733,333.24"
     id="path182" />
  <path
     class="NoteDot"
     d="M537.483,333.24 C536.373,332.131 535.818,330.795 535.818,329.232 C535.818,327.67 536.373,326.334 537.483,325.225 C538.592,324.115 539.928,323.561 541.49,323.561 C543.053,323.561 544.386,324.115 545.49,325.225 C546.595,326.334 547.147,327.67 547.147,329.232 C547.147,330.795 546.595,332.131 545.49,333.24 C544.386,334.35 543.053,334.904 541.49,334.904 C539.928,334.904 538.592,334.35 537.483,333.24"
     id="path184" />
  <path
     class="NoteDot"
     d="M556.233,333.24 C555.123,332.131 554.568,330.795 554.568,329.232 C554.568,327.67 555.123,326.334 556.233,325.225 C557.342,324.115 558.678,323.561 560.24,323.561 C561.803,323.561 563.136,324.115 564.24,325.225 C565.345,326.334 565.897,327.67 565.897,329.232 C565.897,330.795 565.345,332.131 564.24,333.24 C563.136,334.35 561.803,334.904 560.24,334.904 C558.678,334.904 557.342,334.35 556.233,333.24"
     id="path186" />
  <path
     class="NoteDot"
     d="M464.287,808.241 C463.178,807.131 462.623,805.795 462.623,804.233 C462.623,802.67 463.178,801.334 464.287,800.225 C465.397,799.116 466.732,798.561 468.295,798.561 C469.857,798.561 471.191,799.116 472.295,800.225 C473.399,801.334 473.951,802.67 473.951,804.233 C473.951,805.795 473.399,807.131 472.295,808.241 C471.191,809.35 469.857,809.905 468.295,809.905 C466.732,809.905 465.397,809.35 464.287,808.241"
     id="path188" />
  <path
     class="NoteDot"
     d="M483.037,808.241 C481.928,807.131 481.373,805.795 481.373,804.233 C481.373,802.67 481.928,801.334 483.037,800.225 C484.147,799.116 485.482,798.561 487.045,798.561 C488.607,798.561 489.941,799.116 491.045,800.225 C492.149,801.334 492.701,802.67 492.701,804.233 C492.701,805.795 492.149,807.131 491.045,808.241 C489.941,809.35 488.607,809.905 487.045,809.905 C485.482,809.905 484.147,809.35 483.037,808.241"
     id="path190" />
  <path
     class="NoteDot"
     d="M501.787,808.241 C500.678,807.131 500.123,805.795 500.123,804.233 C500.123,802.67 500.678,801.334 501.787,800.225 C502.897,799.116 504.233,798.561 505.795,798.561 C507.358,798.561 508.691,799.116 509.795,800.225 C510.899,801.334 511.451,802.67 511.451,804.233 C511.451,805.795 510.899,807.131 509.795,808.241 C508.691,809.35 507.358,809.905 505.795,809.905 C504.233,809.905 502.897,809.35 501.787,808.241"
     id="path192" />
  <path
     class="NoteDot"
     d="M520.537,808.241 C519.428,807.131 518.873,805.795 518.873,804.233 C518.873,802.67 519.428,801.334 520.537,800.225 C521.647,799.116 522.983,798.561 524.545,798.561 C526.108,798.561 527.441,799.116 528.545,800.225 C529.649,801.334 530.201,802.67 530.201,804.233 C530.201,805.795 529.649,807.131 528.545,808.241 C527.441,809.35 526.108,809.905 524.545,809.905 C522.983,809.905 521.647,809.35 520.537,808.241"
     id="path194" />
  <path
     class="NoteDot"
     d="M460.404,1283.24 C459.295,1282.13 458.74,1280.8 458.74,1279.23 C458.74,1277.67 459.295,1276.33 460.404,1275.23 C461.514,1274.12 462.85,1273.56 464.412,1273.56 C465.975,1273.56 467.308,1274.12 468.412,1275.23 C469.516,1276.33 470.068,1277.67 470.068,1279.23 C470.068,1280.8 469.516,1282.13 468.412,1283.24 C467.308,1284.35 465.975,1284.9 464.412,1284.9 C462.85,1284.9 461.514,1284.35 460.404,1283.24"
     id="path196" />
  <path
     class="NoteDot"
     d="M479.154,1283.24 C478.045,1282.13 477.49,1280.8 477.49,1279.23 C477.49,1277.67 478.045,1276.33 479.154,1275.23 C480.264,1274.12 481.6,1273.56 483.162,1273.56 C484.725,1273.56 486.058,1274.12 487.162,1275.23 C488.266,1276.33 488.818,1277.67 488.818,1279.23 C488.818,1280.8 488.266,1282.13 487.162,1283.24 C486.058,1284.35 484.725,1284.9 483.162,1284.9 C481.6,1284.9 480.264,1284.35 479.154,1283.24"
     id="path198" />
  <path
     class="NoteDot"
     d="M497.904,1283.24 C496.795,1282.13 496.24,1280.8 496.24,1279.23 C496.24,1277.67 496.795,1276.33 497.904,1275.23 C499.014,1274.12 500.35,1273.56 501.912,1273.56 C503.475,1273.56 504.808,1274.12 505.912,1275.23 C507.016,1276.33 507.568,1277.67 507.568,1279.23 C507.568,1280.8 507.016,1282.13 505.912,1283.24 C504.808,1284.35 503.475,1284.9 501.912,1284.9 C500.35,1284.9 499.014,1284.35 497.904,1283.24"
     id="path200" />
  <path
     class="NoteDot"
     d="M516.654,1283.24 C515.545,1282.13 514.99,1280.8 514.99,1279.23 C514.99,1277.67 515.545,1276.33 516.654,1275.23 C517.764,1274.12 519.1,1273.56 520.662,1273.56 C522.225,1273.56 523.558,1274.12 524.662,1275.23 C525.766,1276.33 526.318,1277.67 526.318,1279.23 C526.318,1280.8 525.766,1282.13 524.662,1283.24 C523.558,1284.35 522.225,1284.9 520.662,1284.9 C519.1,1284.9 517.764,1284.35 516.654,1283.24"
     id="path202" />
  <path
     class="NoteDot"
     d="M454.272,1782.93 C453.162,1781.82 452.607,1780.48 452.607,1778.92 C452.607,1777.36 453.162,1776.02 454.272,1774.91 C455.381,1773.8 456.717,1773.25 458.279,1773.25 C459.842,1773.25 461.175,1773.8 462.279,1774.91 C463.384,1776.02 463.936,1777.36 463.936,1778.92 C463.936,1780.48 463.384,1781.82 462.279,1782.93 C461.175,1784.04 459.842,1784.59 458.279,1784.59 C456.717,1784.59 455.381,1784.04 454.272,1782.93"
     id="path204" />
  <path
     class="NoteDot"
     d="M473.022,1782.93 C471.912,1781.82 471.357,1780.48 471.357,1778.92 C471.357,1777.36 471.912,1776.02 473.022,1774.91 C474.131,1773.8 475.467,1773.25 477.029,1773.25 C478.592,1773.25 479.925,1773.8 481.029,1774.91 C482.134,1776.02 482.686,1777.36 482.686,1778.92 C482.686,1780.48 482.134,1781.82 481.029,1782.93 C479.925,1784.04 478.592,1784.59 477.029,1784.59 C475.467,1784.59 474.131,1784.04 473.022,1782.93"
     id="path206" />
  <path
     class="NoteDot"
     d="M491.772,1782.93 C490.662,1781.82 490.108,1780.48 490.108,1778.92 C490.108,1777.36 490.662,1776.02 491.772,1774.91 C492.881,1773.8 494.217,1773.25 495.779,1773.25 C497.342,1773.25 498.675,1773.8 499.779,1774.91 C500.884,1776.02 501.436,1777.36 501.436,1778.92 C501.436,1780.48 500.884,1781.82 499.779,1782.93 C498.675,1784.04 497.342,1784.59 495.779,1784.59 C494.217,1784.59 492.881,1784.04 491.772,1782.93"
     id="path208" />
  <path
     class="NoteDot"
     d="M510.522,1782.93 C509.412,1781.82 508.858,1780.48 508.858,1778.92 C508.858,1777.36 509.412,1776.02 510.522,1774.91 C511.631,1773.8 512.967,1773.25 514.529,1773.25 C516.092,1773.25 517.425,1773.8 518.529,1774.91 C519.634,1776.02 520.186,1777.36 520.186,1778.92 C520.186,1780.48 519.634,1781.82 518.529,1782.93 C517.425,1784.04 516.092,1784.59 514.529,1784.59 C512.967,1784.59 511.631,1784.04 510.522,1782.93"
     id="path210" />
  <path
     class="NoteDot"
     d="M447.412,2258.4 C446.303,2257.29 445.748,2255.95 445.748,2254.39 C445.748,2252.83 446.303,2251.49 447.412,2250.38 C448.522,2249.27 449.857,2248.72 451.42,2248.72 C452.982,2248.72 454.316,2249.27 455.42,2250.38 C456.524,2251.49 457.076,2252.83 457.076,2254.39 C457.076,2255.95 456.524,2257.29 455.42,2258.4 C454.316,2259.51 452.982,2260.06 451.42,2260.06 C449.857,2260.06 448.522,2259.51 447.412,2258.4"
     id="path212" />
  <path
     class="NoteDot"
     d="M466.162,2258.4 C465.053,2257.29 464.498,2255.95 464.498,2254.39 C464.498,2252.83 465.053,2251.49 466.162,2250.38 C467.272,2249.27 468.607,2248.72 470.17,2248.72 C471.732,2248.72 473.066,2249.27 474.17,2250.38 C475.274,2251.49 475.826,2252.83 475.826,2254.39 C475.826,2255.95 475.274,2257.29 474.17,2258.4 C473.066,2259.51 471.732,2260.06 470.17,2260.06 C468.607,2260.06 467.272,2259.51 466.162,2258.4"
     id="path214" />
  <path
     class="NoteDot"
     d="M484.912,2258.4 C483.803,2257.29 483.248,2255.95 483.248,2254.39 C483.248,2252.83 483.803,2251.49 484.912,2250.38 C486.022,2249.27 487.357,2248.72 488.92,2248.72 C490.482,2248.72 491.816,2249.27 492.92,2250.38 C494.024,2251.49 494.576,2252.83 494.576,2254.39 C494.576,2255.95 494.024,2257.29 492.92,2258.4 C491.816,2259.51 490.482,2260.06 488.92,2260.06 C487.357,2260.06 486.022,2259.51 484.912,2258.4"
     id="path216" />
  <path
     class="NoteDot"
     d="M503.662,2258.4 C502.553,2257.29 501.998,2255.95 501.998,2254.39 C501.998,2252.83 502.553,2251.49 503.662,2250.38 C504.772,2249.27 506.108,2248.72 507.67,2248.72 C509.233,2248.72 510.566,2249.27 511.67,2250.38 C512.774,2251.49 513.326,2252.83 513.326,2254.39 C513.326,2255.95 512.774,2257.29 511.67,2258.4 C510.566,2259.51 509.233,2260.06 507.67,2260.06 C506.108,2260.06 504.772,2259.51 503.662,2258.4"
     id="path218" />
  <path
     class="NoteDot"
     d="M460.084,2733.24 C458.975,2732.13 458.42,2730.8 458.42,2729.23 C458.42,2727.67 458.975,2726.34 460.084,2725.23 C461.193,2724.12 462.529,2723.56 464.092,2723.56 C465.654,2723.56 466.988,2724.12 468.092,2725.23 C469.196,2726.34 469.748,2727.67 469.748,2729.23 C469.748,2730.8 469.196,2732.13 468.092,2733.24 C466.988,2734.35 465.654,2734.91 464.092,2734.91 C462.529,2734.91 461.193,2734.35 460.084,2733.24"
     id="path220" />
  <path
     class="NoteDot"
     d="M478.834,2733.24 C477.725,2732.13 477.17,2730.8 477.17,2729.23 C477.17,2727.67 477.725,2726.34 478.834,2725.23 C479.943,2724.12 481.279,2723.56 482.842,2723.56 C484.404,2723.56 485.738,2724.12 486.842,2725.23 C487.946,2726.34 488.498,2727.67 488.498,2729.23 C488.498,2730.8 487.946,2732.13 486.842,2733.24 C485.738,2734.35 484.404,2734.91 482.842,2734.91 C481.279,2734.91 479.943,2734.35 478.834,2733.24"
     id="path222" />
  <path
     class="NoteDot"
     d="M497.584,2733.24 C496.475,2732.13 495.92,2730.8 495.92,2729.23 C495.92,2727.67 496.475,2726.34 497.584,2725.23 C498.693,2724.12 500.029,2723.56 501.592,2723.56 C503.154,2723.56 504.488,2724.12 505.592,2725.23 C506.696,2726.34 507.248,2727.67 507.248,2729.23 C507.248,2730.8 506.696,2732.13 505.592,2733.24 C504.488,2734.35 503.154,2734.91 501.592,2734.91 C500.029,2734.91 498.693,2734.35 497.584,2733.24"
     id="path224" />
  <path
     class="NoteDot"
     d="M516.334,2733.24 C515.225,2732.13 514.67,2730.8 514.67,2729.23 C514.67,2727.67 515.225,2726.34 516.334,2725.23 C517.443,2724.12 518.779,2723.56 520.342,2723.56 C521.904,2723.56 523.238,2724.12 524.342,2725.23 C525.446,2726.34 525.998,2727.67 525.998,2729.23 C525.998,2730.8 525.446,2732.13 524.342,2733.24 C523.238,2734.35 521.904,2734.91 520.342,2734.91 C518.779,2734.91 517.443,2734.35 516.334,2733.24"
     id="path226" />
  <path
     class="NoteDot"
     d="M538.354,3208.24 C537.244,3207.13 536.69,3205.8 536.69,3204.23 C536.69,3202.67 537.244,3201.34 538.354,3200.23 C539.463,3199.12 540.799,3198.56 542.361,3198.56 C543.924,3198.56 545.257,3199.12 546.361,3200.23 C547.466,3201.34 548.018,3202.67 548.018,3204.23 C548.018,3205.8 547.466,3207.13 546.361,3208.24 C545.257,3209.35 543.924,3209.91 542.361,3209.91 C540.799,3209.91 539.463,3209.35 538.354,3208.24"
     id="path228" />
  <path
     class="NoteDot"
     d="M557.104,3208.24 C555.994,3207.13 555.44,3205.8 555.44,3204.23 C555.44,3202.67 555.994,3201.34 557.104,3200.23 C558.213,3199.12 559.549,3198.56 561.111,3198.56 C562.674,3198.56 564.007,3199.12 565.111,3200.23 C566.216,3201.34 566.768,3202.67 566.768,3204.23 C566.768,3205.8 566.216,3207.13 565.111,3208.24 C564.007,3209.35 562.674,3209.91 561.111,3209.91 C559.549,3209.91 558.213,3209.35 557.104,3208.24"
     id="path230" />
  <path
     class="NoteDot"
     d="M575.854,3208.24 C574.744,3207.13 574.19,3205.8 574.19,3204.23 C574.19,3202.67 574.744,3201.34 575.854,3200.23 C576.963,3199.12 578.299,3198.56 579.861,3198.56 C581.424,3198.56 582.757,3199.12 583.861,3200.23 C584.966,3201.34 585.518,3202.67 585.518,3204.23 C585.518,3205.8 584.966,3207.13 583.861,3208.24 C582.757,3209.35 581.424,3209.91 579.861,3209.91 C578.299,3209.91 576.963,3209.35 575.854,3208.24"
     id="path232" />
  <path
     class="NoteDot"
     d="M594.604,3208.24 C593.494,3207.13 592.94,3205.8 592.94,3204.23 C592.94,3202.67 593.494,3201.34 594.604,3200.23 C595.713,3199.12 597.049,3198.56 598.611,3198.56 C600.174,3198.56 601.507,3199.12 602.611,3200.23 C603.716,3201.34 604.268,3202.67 604.268,3204.23 C604.268,3205.8 603.716,3207.13 602.611,3208.24 C601.507,3209.35 600.174,3209.91 598.611,3209.91 C597.049,3209.91 595.713,3209.35 594.604,3208.24"
     id="path234" />
</svg>
