<?xml version="1.0" encoding="UTF-8" standalone="no"?>
<svg
   xmlns:dc="http://purl.org/dc/elements/1.1/"
   xmlns:cc="http://creativecommons.org/ns#"
   xmlns:rdf="http://www.w3.org/1999/02/22-rdf-syntax-ns#"
   xmlns:svg="http://www.w3.org/2000/svg"
   xmlns="http://www.w3.org/2000/svg"
   xmlns:sodipodi="http://sodipodi.sourceforge.net/DTD/sodipodi-0.dtd"
   xmlns:inkscape="http://www.inkscape.org/namespaces/inkscape"
   width="2977.2px"
   height="4208.4px"
   viewBox="0 0 2977.2 4208.4"
   version="1.2"
   id="svg216"
   sodipodi:docname="Pausenwerte_Punktiert-1.svg"
   inkscape:version="0.92.3 (2405546, 2018-03-11)">
  <metadata
     id="metadata222">
    <rdf:RDF>
      <cc:Work
         rdf:about="">
        <dc:format>image/svg+xml</dc:format>
        <dc:type
           rdf:resource="http://purl.org/dc/dcmitype/StillImage" />
      </cc:Work>
    </rdf:RDF>
  </metadata>
  <defs
     id="defs220" />
  <sodipodi:namedview
     pagecolor="#ffffff"
     bordercolor="#666666"
     borderopacity="1"
     objecttolerance="10"
     gridtolerance="10"
     guidetolerance="10"
     inkscape:pageopacity="0"
     inkscape:pageshadow="2"
     inkscape:window-width="1920"
     inkscape:window-height="1008"
     id="namedview218"
     showgrid="false"
     inkscape:zoom="0.15861344"
     inkscape:cx="1251.8549"
     inkscape:cy="1770.611"
     inkscape:window-x="-6"
     inkscape:window-y="-6"
     inkscape:window-maximized="1"
     inkscape:current-layer="svg216" />
  <title
     id="title2">Pausenwerte_Punktiert</title>
  <desc
     id="desc4">Generated by MuseScore 3.5.2</desc>
  <polyline
     class="StaffLines"
     fill="none"
     stroke="#000000"
     stroke-width="2.00"
     stroke-linejoin="bevel"
     points="141.732,566.733 2835.47,566.733"
     id="polyline6" />
  <polyline
     class="StaffLines"
     fill="none"
     stroke="#000000"
     stroke-width="2.00"
     stroke-linejoin="bevel"
     points="141.732,591.733 2835.47,591.733"
     id="polyline8" />
  <polyline
     class="StaffLines"
     fill="none"
     stroke="#000000"
     stroke-width="2.00"
     stroke-linejoin="bevel"
     points="141.732,616.733 2835.47,616.733"
     id="polyline10" />
  <polyline
     class="StaffLines"
     fill="none"
     stroke="#000000"
     stroke-width="2.00"
     stroke-linejoin="bevel"
     points="141.732,641.733 2835.47,641.733"
     id="polyline12" />
  <polyline
     class="StaffLines"
     fill="none"
     stroke="#000000"
     stroke-width="2.00"
     stroke-linejoin="bevel"
     points="141.732,666.733 2835.47,666.733"
     id="polyline14" />
  <polyline
     class="StaffLines"
     fill="none"
     stroke="#000000"
     stroke-width="2.00"
     stroke-linejoin="bevel"
     points="141.732,1007.19 2835.47,1007.19"
     id="polyline16" />
  <polyline
     class="StaffLines"
     fill="none"
     stroke="#000000"
     stroke-width="2.00"
     stroke-linejoin="bevel"
     points="141.732,1032.19 2835.47,1032.19"
     id="polyline18" />
  <polyline
     class="StaffLines"
     fill="none"
     stroke="#000000"
     stroke-width="2.00"
     stroke-linejoin="bevel"
     points="141.732,1057.19 2835.47,1057.19"
     id="polyline20" />
  <polyline
     class="StaffLines"
     fill="none"
     stroke="#000000"
     stroke-width="2.00"
     stroke-linejoin="bevel"
     points="141.732,1082.19 2835.47,1082.19"
     id="polyline22" />
  <polyline
     class="StaffLines"
     fill="none"
     stroke="#000000"
     stroke-width="2.00"
     stroke-linejoin="bevel"
     points="141.732,1107.19 2835.47,1107.19"
     id="polyline24" />
  <polyline
     class="StaffLines"
     fill="none"
     stroke="#000000"
     stroke-width="2.00"
     stroke-linejoin="bevel"
     points="141.732,1447.65 2835.47,1447.65"
     id="polyline26" />
  <polyline
     class="StaffLines"
     fill="none"
     stroke="#000000"
     stroke-width="2.00"
     stroke-linejoin="bevel"
     points="141.732,1472.65 2835.47,1472.65"
     id="polyline28" />
  <polyline
     class="StaffLines"
     fill="none"
     stroke="#000000"
     stroke-width="2.00"
     stroke-linejoin="bevel"
     points="141.732,1497.65 2835.47,1497.65"
     id="polyline30" />
  <polyline
     class="StaffLines"
     fill="none"
     stroke="#000000"
     stroke-width="2.00"
     stroke-linejoin="bevel"
     points="141.732,1522.65 2835.47,1522.65"
     id="polyline32" />
  <polyline
     class="StaffLines"
     fill="none"
     stroke="#000000"
     stroke-width="2.00"
     stroke-linejoin="bevel"
     points="141.732,1547.65 2835.47,1547.65"
     id="polyline34" />
  <polyline
     class="StaffLines"
     fill="none"
     stroke="#000000"
     stroke-width="2.00"
     stroke-linejoin="bevel"
     points="141.732,1888.11 2835.47,1888.11"
     id="polyline36" />
  <polyline
     class="StaffLines"
     fill="none"
     stroke="#000000"
     stroke-width="2.00"
     stroke-linejoin="bevel"
     points="141.732,1913.11 2835.47,1913.11"
     id="polyline38" />
  <polyline
     class="StaffLines"
     fill="none"
     stroke="#000000"
     stroke-width="2.00"
     stroke-linejoin="bevel"
     points="141.732,1938.11 2835.47,1938.11"
     id="polyline40" />
  <polyline
     class="StaffLines"
     fill="none"
     stroke="#000000"
     stroke-width="2.00"
     stroke-linejoin="bevel"
     points="141.732,1963.11 2835.47,1963.11"
     id="polyline42" />
  <polyline
     class="StaffLines"
     fill="none"
     stroke="#000000"
     stroke-width="2.00"
     stroke-linejoin="bevel"
     points="141.732,1988.11 2835.47,1988.11"
     id="polyline44" />
  <polyline
     class="StaffLines"
     fill="none"
     stroke="#000000"
     stroke-width="2.00"
     stroke-linejoin="bevel"
     points="141.732,2328.56 2835.47,2328.56"
     id="polyline46" />
  <polyline
     class="StaffLines"
     fill="none"
     stroke="#000000"
     stroke-width="2.00"
     stroke-linejoin="bevel"
     points="141.732,2353.56 2835.47,2353.56"
     id="polyline48" />
  <polyline
     class="StaffLines"
     fill="none"
     stroke="#000000"
     stroke-width="2.00"
     stroke-linejoin="bevel"
     points="141.732,2378.56 2835.47,2378.56"
     id="polyline50" />
  <polyline
     class="StaffLines"
     fill="none"
     stroke="#000000"
     stroke-width="2.00"
     stroke-linejoin="bevel"
     points="141.732,2403.56 2835.47,2403.56"
     id="polyline52" />
  <polyline
     class="StaffLines"
     fill="none"
     stroke="#000000"
     stroke-width="2.00"
     stroke-linejoin="bevel"
     points="141.732,2428.56 2835.47,2428.56"
     id="polyline54" />
  <polyline
     class="StaffLines"
     fill="none"
     stroke="#000000"
     stroke-width="2.00"
     stroke-linejoin="bevel"
     points="141.732,2769.02 2835.47,2769.02"
     id="polyline56" />
  <polyline
     class="StaffLines"
     fill="none"
     stroke="#000000"
     stroke-width="2.00"
     stroke-linejoin="bevel"
     points="141.732,2794.02 2835.47,2794.02"
     id="polyline58" />
  <polyline
     class="StaffLines"
     fill="none"
     stroke="#000000"
     stroke-width="2.00"
     stroke-linejoin="bevel"
     points="141.732,2819.02 2835.47,2819.02"
     id="polyline60" />
  <polyline
     class="StaffLines"
     fill="none"
     stroke="#000000"
     stroke-width="2.00"
     stroke-linejoin="bevel"
     points="141.732,2844.02 2835.47,2844.02"
     id="polyline62" />
  <polyline
     class="StaffLines"
     fill="none"
     stroke="#000000"
     stroke-width="2.00"
     stroke-linejoin="bevel"
     points="141.732,2869.02 2835.47,2869.02"
     id="polyline64" />
  <polyline
     class="StaffLines"
     fill="none"
     stroke="#000000"
     stroke-width="2.00"
     stroke-linejoin="bevel"
     points="141.732,3209.48 2835.47,3209.48"
     id="polyline66" />
  <polyline
     class="StaffLines"
     fill="none"
     stroke="#000000"
     stroke-width="2.00"
     stroke-linejoin="bevel"
     points="141.732,3234.48 2835.47,3234.48"
     id="polyline68" />
  <polyline
     class="StaffLines"
     fill="none"
     stroke="#000000"
     stroke-width="2.00"
     stroke-linejoin="bevel"
     points="141.732,3259.48 2835.47,3259.48"
     id="polyline70" />
  <polyline
     class="StaffLines"
     fill="none"
     stroke="#000000"
     stroke-width="2.00"
     stroke-linejoin="bevel"
     points="141.732,3284.48 2835.47,3284.48"
     id="polyline72" />
  <polyline
     class="StaffLines"
     fill="none"
     stroke="#000000"
     stroke-width="2.00"
     stroke-linejoin="bevel"
     points="141.732,3309.48 2835.47,3309.48"
     id="polyline74" />
  <polyline
     class="StaffLines"
     fill="none"
     stroke="#000000"
     stroke-width="2.00"
     stroke-linejoin="bevel"
     points="141.732,3649.94 1130.78,3649.94"
     id="polyline76" />
  <polyline
     class="StaffLines"
     fill="none"
     stroke="#000000"
     stroke-width="2.00"
     stroke-linejoin="bevel"
     points="141.732,3674.94 1130.78,3674.94"
     id="polyline78" />
  <polyline
     class="StaffLines"
     fill="none"
     stroke="#000000"
     stroke-width="2.00"
     stroke-linejoin="bevel"
     points="141.732,3699.94 1130.78,3699.94"
     id="polyline80" />
  <polyline
     class="StaffLines"
     fill="none"
     stroke="#000000"
     stroke-width="2.00"
     stroke-linejoin="bevel"
     points="141.732,3724.94 1130.78,3724.94"
     id="polyline82" />
  <polyline
     class="StaffLines"
     fill="none"
     stroke="#000000"
     stroke-width="2.00"
     stroke-linejoin="bevel"
     points="141.732,3749.94 1130.78,3749.94"
     id="polyline84" />
  <path
     class="MeasureNumber"
     d="M132.967,938.112 C133.102,937.497 133.237,936.966 133.373,936.518 C133.508,936.07 133.795,935.414 134.232,934.549 C134.67,933.685 135.162,932.969 135.709,932.401 C136.256,931.833 137.016,931.323 137.99,930.87 C138.964,930.417 140.066,930.19 141.295,930.19 C143.368,930.19 145.118,930.867 146.545,932.221 C147.972,933.575 148.685,935.247 148.685,937.237 C148.685,940.247 146.982,943.539 143.576,947.112 L136.857,954.143 L146.404,954.143 C147.31,954.143 147.985,953.992 148.428,953.69 C148.87,953.388 149.467,952.664 150.217,951.518 L150.732,951.706 L148.529,957.19 L132.935,957.19 L132.935,956.706 L140.045,949.159 C143.514,945.471 145.248,942.003 145.248,938.753 C145.248,937.075 144.727,935.716 143.685,934.674 C142.644,933.633 141.284,933.112 139.607,933.112 C138.222,933.112 137.11,933.492 136.271,934.253 C135.433,935.013 134.612,936.367 133.81,938.315 L132.967,938.112 "
     id="path90" />
  <path
     class="MeasureNumber"
     d="M135.467,1394.52 C136.081,1394.52 136.995,1394.88 138.209,1395.61 C139.422,1396.33 140.482,1396.69 141.389,1396.69 C142.857,1396.69 144.097,1396.12 145.107,1394.98 C146.118,1393.84 146.623,1392.44 146.623,1390.77 C146.623,1389.73 146.443,1388.81 146.084,1388.02 C145.724,1387.23 145.266,1386.62 144.709,1386.18 C144.152,1385.74 143.485,1385.38 142.709,1385.11 C141.933,1384.83 141.206,1384.65 140.529,1384.57 C139.852,1384.49 139.128,1384.44 138.357,1384.44 L138.357,1383.93 C139.264,1383.61 140.042,1383.29 140.693,1382.98 C141.344,1382.68 142.029,1382.26 142.748,1381.75 C143.467,1381.23 144.021,1380.6 144.412,1379.85 C144.803,1379.1 144.998,1378.25 144.998,1377.29 C144.998,1376.04 144.589,1375.01 143.771,1374.21 C142.954,1373.41 141.894,1373.01 140.592,1373.01 C139.342,1373.01 138.243,1373.35 137.295,1374.03 C136.347,1374.71 135.461,1375.79 134.639,1377.26 L134.029,1377.09 C134.727,1375.2 135.67,1373.65 136.857,1372.44 C138.045,1371.22 139.727,1370.62 141.904,1370.62 C143.748,1370.62 145.251,1371.12 146.412,1372.13 C147.573,1373.14 148.154,1374.46 148.154,1376.09 C148.154,1377.18 147.873,1378.14 147.31,1378.97 C146.748,1379.8 145.774,1380.68 144.389,1381.62 C145.993,1382.3 147.248,1383.18 148.154,1384.26 C149.06,1385.33 149.514,1386.87 149.514,1388.87 C149.514,1391.7 148.467,1393.97 146.373,1395.66 C144.279,1397.36 141.644,1398.21 138.467,1398.21 C137.081,1398.21 135.982,1398 135.17,1397.59 C134.357,1397.17 133.951,1396.62 133.951,1395.93 C133.951,1395.5 134.092,1395.16 134.373,1394.91 C134.654,1394.65 135.019,1394.52 135.467,1394.52"
     id="path92" />
  <path
     class="MeasureNumber"
     d="M151.107,1828.87 L151.107,1831.43 L147.029,1831.43 L147.029,1838.11 L143.951,1838.11 L143.951,1831.43 L132.717,1831.43 L132.717,1828.87 L145.264,1811.07 L147.029,1811.07 L147.029,1828.87 L151.107,1828.87 M143.904,1828.87 L143.904,1815.15 L134.31,1828.87 L143.904,1828.87 "
     id="path94" />
  <path
     class="MeasureNumber"
     d="M146.514,2270.78 C146.514,2269.36 146.198,2268.11 145.568,2267.02 C144.938,2265.94 144.178,2265.09 143.287,2264.49 C142.396,2263.89 141.399,2263.4 140.295,2263.02 C139.191,2262.63 138.23,2262.38 137.412,2262.26 C136.594,2262.14 135.883,2262.08 135.279,2262.08 C134.956,2262.08 134.795,2261.97 134.795,2261.75 C134.795,2261.68 134.805,2261.61 134.826,2261.55 L139.185,2252.09 L147.545,2252.09 C147.972,2252.09 148.313,2252.03 148.568,2251.89 C148.823,2251.76 149.097,2251.47 149.389,2251.05 L149.748,2251.33 L148.232,2254.89 C148.128,2255.13 147.821,2255.25 147.31,2255.25 L139.467,2255.25 L137.795,2258.64 C141.68,2259.33 144.571,2260.45 146.467,2262.01 C148.362,2263.57 149.31,2265.85 149.31,2268.86 C149.31,2270.43 149.063,2271.83 148.568,2273.06 C148.073,2274.29 147.446,2275.28 146.685,2276.03 C145.925,2276.78 145.045,2277.4 144.045,2277.88 C143.045,2278.35 142.086,2278.68 141.17,2278.86 C140.253,2279.04 139.326,2279.13 138.389,2279.13 C136.899,2279.13 135.714,2278.9 134.834,2278.46 C133.954,2278.02 133.514,2277.41 133.514,2276.64 C133.514,2275.65 134.086,2275.16 135.232,2275.16 C135.982,2275.16 136.948,2275.57 138.131,2276.38 C139.313,2277.2 140.253,2277.61 140.951,2277.61 C142.524,2277.61 143.844,2276.95 144.912,2275.63 C145.98,2274.32 146.514,2272.7 146.514,2270.78"
     id="path96" />
  <path
     class="MeasureNumber"
     d="M142.045,2719.58 C139.357,2719.58 137.193,2718.51 135.553,2716.36 C133.912,2714.21 133.092,2711.36 133.092,2707.83 C133.092,2706.75 133.198,2705.63 133.412,2704.47 C133.626,2703.3 134.092,2701.99 134.81,2700.51 C135.529,2699.04 136.461,2697.72 137.607,2696.54 C138.753,2695.37 140.36,2694.32 142.428,2693.4 C144.495,2692.48 146.878,2691.9 149.576,2691.66 L149.654,2692.3 C146.508,2692.81 143.881,2694.09 141.771,2696.13 C139.662,2698.17 138.342,2700.7 137.81,2703.71 C139.06,2702.99 140.006,2702.52 140.646,2702.31 C141.287,2702.1 142.05,2701.99 142.935,2701.99 C145.227,2701.99 147.053,2702.73 148.412,2704.22 C149.771,2705.7 150.451,2707.7 150.451,2710.22 C150.451,2712.98 149.67,2715.23 148.107,2716.97 C146.545,2718.71 144.524,2719.58 142.045,2719.58 M141.404,2703.74 C139.592,2703.74 138.373,2704.14 137.748,2704.93 C137.123,2705.73 136.81,2706.91 136.81,2708.47 C136.81,2711.55 137.318,2713.97 138.334,2715.73 C139.349,2717.5 140.737,2718.38 142.498,2718.38 C143.904,2718.38 144.982,2717.79 145.732,2716.61 C146.482,2715.42 146.857,2713.75 146.857,2711.58 C146.857,2709.08 146.383,2707.15 145.435,2705.79 C144.487,2704.42 143.144,2703.74 141.404,2703.74"
     id="path98" />
  <path
     class="MeasureNumber"
     d="M150.685,3133.01 L150.685,3133.63 L142.217,3159.79 L139.607,3159.79 L147.529,3135.92 L138.857,3135.92 C137.764,3135.92 136.93,3136.12 136.357,3136.52 C135.784,3136.92 135.071,3137.8 134.217,3139.17 L133.529,3138.85 L135.889,3133.01 L150.685,3133.01 "
     id="path100" />
  <path
     class="MeasureNumber"
     d="M143.326,3585.06 C145.732,3586.84 147.368,3588.34 148.232,3589.54 C149.097,3590.75 149.529,3592.13 149.529,3593.67 C149.529,3595.74 148.816,3597.4 147.389,3598.64 C145.961,3599.88 144.05,3600.5 141.654,3600.5 C139.383,3600.5 137.534,3599.88 136.107,3598.64 C134.68,3597.4 133.967,3595.8 133.967,3593.84 C133.967,3592.48 134.295,3591.34 134.951,3590.42 C135.607,3589.5 137.014,3588.24 139.17,3586.62 C137.066,3584.79 135.714,3583.42 135.115,3582.51 C134.516,3581.61 134.217,3580.5 134.217,3579.2 C134.217,3577.37 134.935,3575.85 136.373,3574.64 C137.81,3573.43 139.623,3572.83 141.81,3572.83 C143.81,3572.83 145.456,3573.36 146.748,3574.44 C148.04,3575.52 148.685,3576.89 148.685,3578.56 C148.685,3579.91 148.287,3581.07 147.49,3582.03 C146.693,3582.99 145.305,3584 143.326,3585.06 M140.217,3587.42 C139.04,3588.35 138.211,3589.28 137.732,3590.21 C137.253,3591.14 137.014,3592.24 137.014,3593.51 C137.014,3595.24 137.48,3596.64 138.412,3597.7 C139.344,3598.76 140.571,3599.29 142.092,3599.29 C143.394,3599.29 144.451,3598.89 145.264,3598.08 C146.076,3597.26 146.482,3596.21 146.482,3594.9 C146.482,3594.49 146.438,3594.09 146.349,3593.72 C146.261,3593.34 146.17,3593.02 146.076,3592.74 C145.982,3592.46 145.795,3592.15 145.514,3591.8 C145.232,3591.45 145.006,3591.18 144.834,3590.98 C144.662,3590.78 144.349,3590.5 143.896,3590.12 C143.443,3589.75 143.102,3589.48 142.873,3589.33 C142.644,3589.17 142.217,3588.86 141.592,3588.41 C140.967,3587.96 140.508,3587.63 140.217,3587.42 M142.17,3584.34 C142.201,3584.32 142.383,3584.2 142.717,3583.97 C143.05,3583.74 143.29,3583.56 143.435,3583.43 C143.581,3583.3 143.808,3583.09 144.115,3582.81 C144.422,3582.53 144.654,3582.26 144.81,3582.01 C144.967,3581.76 145.146,3581.46 145.349,3581.1 C145.553,3580.74 145.701,3580.34 145.795,3579.9 C145.889,3579.47 145.935,3579.01 145.935,3578.53 C145.935,3577.14 145.534,3576.04 144.732,3575.23 C143.93,3574.42 142.852,3574.01 141.498,3574.01 C140.237,3574.01 139.201,3574.39 138.389,3575.13 C137.576,3575.88 137.17,3576.82 137.17,3577.97 C137.17,3579.08 137.558,3580.13 138.334,3581.11 C139.11,3582.1 140.389,3583.17 142.17,3584.34"
     id="path102" />
  <polyline
     class="BarLine"
     fill="none"
     stroke="#000000"
     stroke-width="4.00"
     stroke-linejoin="bevel"
     points="1106.28,3648.94 1106.28,3750.94"
     id="polyline118" />
  <polyline
     class="BarLine"
     fill="none"
     stroke="#000000"
     stroke-width="12.50"
     stroke-linejoin="bevel"
     points="1124.53,3648.94 1124.53,3750.94"
     id="polyline120" />
  <path
     class="Clef"
     d="M198.451,616.139 C198.451,616.139 198.649,616.139 199.045,616.139 C199.305,616.076 199.529,616.045 199.717,616.045 C207.008,616.045 212.998,618.618 217.685,623.764 C222.373,628.837 224.717,634.759 224.717,641.529 C224.717,649.936 221.238,656.774 214.279,662.045 C212.456,663.483 210.076,664.654 207.139,665.561 C207.472,669.79 207.639,673.207 207.639,675.811 C207.639,676.332 207.571,678.222 207.435,681.483 C207.175,687.535 205.092,692.774 201.185,697.201 C197.415,701.566 192.727,703.748 187.123,703.748 C181.852,703.748 177.363,701.894 173.654,698.186 C169.935,694.404 168.076,689.847 168.076,684.514 C168.076,681.712 169.154,679.332 171.31,677.373 C173.519,675.425 176.086,674.451 179.014,674.451 C181.618,674.451 183.8,675.462 185.56,677.483 C187.383,679.368 188.295,681.712 188.295,684.514 C188.295,687.045 187.383,689.222 185.56,691.045 C183.738,692.868 181.555,693.779 179.014,693.779 C177.972,693.779 176.967,693.587 175.998,693.201 C178.863,697.431 182.67,699.545 187.42,699.545 C191.909,699.545 195.586,697.722 198.451,694.076 C201.451,690.306 203.081,685.91 203.342,680.889 C203.467,677.764 203.529,675.977 203.529,675.529 C203.529,671.884 203.399,668.889 203.139,666.545 C199.889,667.066 196.993,667.326 194.451,667.326 C185.399,667.326 177.685,663.743 171.31,656.576 C165.06,649.347 161.935,640.753 161.935,630.795 C161.935,628.712 162.128,626.597 162.514,624.451 C162.909,622.691 163.399,620.769 163.982,618.686 C164.305,617.509 165.185,615.618 166.623,613.014 C167.144,612.233 167.73,611.256 168.381,610.084 C169.032,608.912 169.488,608.134 169.748,607.748 C170.394,606.446 171.659,604.686 173.545,602.467 C174.066,601.884 174.605,601.235 175.162,600.522 C175.719,599.808 176.193,599.222 176.584,598.764 C176.974,598.306 177.266,597.946 177.459,597.686 C177.652,597.425 179.118,595.701 181.857,592.514 C182.503,591.858 183.136,591.157 183.756,590.412 C184.376,589.667 184.881,589.082 185.271,588.654 C185.662,588.227 185.956,587.92 186.154,587.733 C183.81,579.983 182.342,573.795 181.748,569.17 C181.3,565.462 181.076,560.384 181.076,553.936 C181.076,548.269 182.378,542.962 184.982,538.014 C187.514,532.878 191.06,528.681 195.623,525.42 C195.883,525.222 196.206,525.123 196.592,525.123 C197.05,525.123 197.378,525.222 197.576,525.42 C201.086,529.649 204.113,535.149 206.654,541.92 C209.258,548.691 210.56,554.847 210.56,560.389 C210.56,566.639 209.066,572.498 206.076,577.967 C202.691,583.759 198.326,589.748 192.982,595.936 C194.347,600.227 196.17,606.962 198.451,616.139 M206.748,661.561 C210.133,660.321 212.774,658.207 214.67,655.217 C216.753,652.352 217.795,649.128 217.795,645.545 C217.795,640.92 216.232,636.816 213.107,633.233 C209.909,629.524 205.836,627.441 200.889,626.983 C203.691,640.722 205.644,652.248 206.748,661.561 M168.967,638.998 C168.967,645.446 171.571,651.113 176.779,655.998 C182.113,660.748 188.102,663.123 194.748,663.123 C197.477,663.123 200.144,662.925 202.748,662.529 C201.706,652.634 199.654,640.785 196.592,626.983 C192.883,627.378 189.925,628.681 187.717,630.889 C185.56,633.17 184.482,635.743 184.482,638.608 C184.482,643.556 187.123,647.561 192.404,650.623 C192.852,651.082 193.076,651.571 193.076,652.092 C193.076,652.613 192.852,653.097 192.404,653.545 C192.008,654.003 191.519,654.233 190.935,654.233 C190.873,654.233 190.581,654.17 190.06,654.045 C186.342,652.024 183.477,649.42 181.467,646.233 C179.571,642.837 178.623,639.415 178.623,635.967 C178.623,631.477 180.024,627.41 182.826,623.764 C185.753,620.118 189.56,617.774 194.248,616.733 C192.425,609.441 190.93,603.743 189.764,599.639 C188.722,600.816 187.469,602.233 186.006,603.889 C184.542,605.545 183.68,606.54 183.42,606.873 C181.076,609.925 179.284,612.3 178.045,613.998 C175.826,617.061 174.196,619.696 173.154,621.904 C172.05,624.384 171.076,627.087 170.232,630.014 C169.389,632.816 168.967,635.811 168.967,638.998 M201.576,539.686 C196.691,542.092 192.852,545.54 190.06,550.029 C187.196,554.654 185.764,559.634 185.764,564.967 C185.764,569.654 186.935,575.972 189.279,583.92 C193.967,578.253 197.482,573.014 199.826,568.201 C202.295,563.118 203.529,557.811 203.529,552.279 C203.529,548.113 202.878,543.915 201.576,539.686"
     id="path122" />
  <path
     class="Clef"
     d="M198.451,1056.6 C198.451,1056.6 198.649,1056.6 199.045,1056.6 C199.305,1056.53 199.529,1056.5 199.717,1056.5 C207.008,1056.5 212.998,1059.08 217.685,1064.22 C222.373,1069.29 224.717,1075.22 224.717,1081.99 C224.717,1090.39 221.238,1097.23 214.279,1102.5 C212.456,1103.94 210.076,1105.11 207.139,1106.02 C207.472,1110.25 207.639,1113.66 207.639,1116.27 C207.639,1116.79 207.571,1118.68 207.435,1121.94 C207.175,1127.99 205.092,1133.23 201.185,1137.66 C197.415,1142.02 192.727,1144.21 187.123,1144.21 C181.852,1144.21 177.363,1142.35 173.654,1138.64 C169.935,1134.86 168.076,1130.3 168.076,1124.97 C168.076,1122.17 169.154,1119.79 171.31,1117.83 C173.519,1115.88 176.086,1114.91 179.014,1114.91 C181.618,1114.91 183.8,1115.92 185.56,1117.94 C187.383,1119.83 188.295,1122.17 188.295,1124.97 C188.295,1127.5 187.383,1129.68 185.56,1131.5 C183.738,1133.33 181.555,1134.24 179.014,1134.24 C177.972,1134.24 176.967,1134.04 175.998,1133.66 C178.863,1137.89 182.67,1140 187.42,1140 C191.909,1140 195.586,1138.18 198.451,1134.53 C201.451,1130.76 203.081,1126.37 203.342,1121.35 C203.467,1118.22 203.529,1116.43 203.529,1115.99 C203.529,1112.34 203.399,1109.35 203.139,1107 C199.889,1107.52 196.993,1107.78 194.451,1107.78 C185.399,1107.78 177.685,1104.2 171.31,1097.03 C165.06,1089.8 161.935,1081.21 161.935,1071.25 C161.935,1069.17 162.128,1067.05 162.514,1064.91 C162.909,1063.15 163.399,1061.23 163.982,1059.14 C164.305,1057.97 165.185,1056.08 166.623,1053.47 C167.144,1052.69 167.73,1051.71 168.381,1050.54 C169.032,1049.37 169.488,1048.59 169.748,1048.21 C170.394,1046.9 171.659,1045.14 173.545,1042.92 C174.066,1042.34 174.605,1041.69 175.162,1040.98 C175.719,1040.27 176.193,1039.68 176.584,1039.22 C176.974,1038.76 177.266,1038.4 177.459,1038.14 C177.652,1037.88 179.118,1036.16 181.857,1032.97 C182.503,1032.32 183.136,1031.61 183.756,1030.87 C184.376,1030.13 184.881,1029.54 185.271,1029.11 C185.662,1028.68 185.956,1028.38 186.154,1028.19 C183.81,1020.44 182.342,1014.25 181.748,1009.63 C181.3,1005.92 181.076,1000.84 181.076,994.393 C181.076,988.727 182.378,983.419 184.982,978.471 C187.514,973.336 191.06,969.138 195.623,965.878 C195.883,965.68 196.206,965.581 196.592,965.581 C197.05,965.581 197.378,965.68 197.576,965.878 C201.086,970.107 204.113,975.607 206.654,982.378 C209.258,989.148 210.56,995.305 210.56,1000.85 C210.56,1007.1 209.066,1012.96 206.076,1018.42 C202.691,1024.22 198.326,1030.21 192.982,1036.39 C194.347,1040.68 196.17,1047.42 198.451,1056.6 M206.748,1102.02 C210.133,1100.78 212.774,1098.66 214.67,1095.67 C216.753,1092.81 217.795,1089.59 217.795,1086 C217.795,1081.38 216.232,1077.27 213.107,1073.69 C209.909,1069.98 205.836,1067.9 200.889,1067.44 C203.691,1081.18 205.644,1092.71 206.748,1102.02 M168.967,1079.46 C168.967,1085.9 171.571,1091.57 176.779,1096.46 C182.113,1101.21 188.102,1103.58 194.748,1103.58 C197.477,1103.58 200.144,1103.38 202.748,1102.99 C201.706,1093.09 199.654,1081.24 196.592,1067.44 C192.883,1067.84 189.925,1069.14 187.717,1071.35 C185.56,1073.63 184.482,1076.2 184.482,1079.07 C184.482,1084.01 187.123,1088.02 192.404,1091.08 C192.852,1091.54 193.076,1092.03 193.076,1092.55 C193.076,1093.07 192.852,1093.55 192.404,1094 C192.008,1094.46 191.519,1094.69 190.935,1094.69 C190.873,1094.69 190.581,1094.63 190.06,1094.5 C186.342,1092.48 183.477,1089.88 181.467,1086.69 C179.571,1083.29 178.623,1079.87 178.623,1076.42 C178.623,1071.93 180.024,1067.87 182.826,1064.22 C185.753,1060.58 189.56,1058.23 194.248,1057.19 C192.425,1049.9 190.93,1044.2 189.764,1040.1 C188.722,1041.27 187.469,1042.69 186.006,1044.35 C184.542,1046 183.68,1047 183.42,1047.33 C181.076,1050.38 179.284,1052.76 178.045,1054.46 C175.826,1057.52 174.196,1060.15 173.154,1062.36 C172.05,1064.84 171.076,1067.54 170.232,1070.47 C169.389,1073.27 168.967,1076.27 168.967,1079.46 M201.576,980.143 C196.691,982.55 192.852,985.997 190.06,990.487 C187.196,995.112 185.764,1000.09 185.764,1005.42 C185.764,1010.11 186.935,1016.43 189.279,1024.38 C193.967,1018.71 197.482,1013.47 199.826,1008.66 C202.295,1003.58 203.529,998.268 203.529,992.737 C203.529,988.57 202.878,984.372 201.576,980.143"
     id="path124" />
  <path
     class="Clef"
     d="M198.451,1497.05 C198.451,1497.05 198.649,1497.05 199.045,1497.05 C199.305,1496.99 199.529,1496.96 199.717,1496.96 C207.008,1496.96 212.998,1499.53 217.685,1504.68 C222.373,1509.75 224.717,1515.67 224.717,1522.44 C224.717,1530.85 221.238,1537.69 214.279,1542.96 C212.456,1544.4 210.076,1545.57 207.139,1546.48 C207.472,1550.7 207.639,1554.12 207.639,1556.73 C207.639,1557.25 207.571,1559.14 207.435,1562.4 C207.175,1568.45 205.092,1573.69 201.185,1578.12 C197.415,1582.48 192.727,1584.66 187.123,1584.66 C181.852,1584.66 177.363,1582.81 173.654,1579.1 C169.935,1575.32 168.076,1570.76 168.076,1565.43 C168.076,1562.63 169.154,1560.25 171.31,1558.29 C173.519,1556.34 176.086,1555.37 179.014,1555.37 C181.618,1555.37 183.8,1556.38 185.56,1558.4 C187.383,1560.28 188.295,1562.63 188.295,1565.43 C188.295,1567.96 187.383,1570.14 185.56,1571.96 C183.738,1573.78 181.555,1574.69 179.014,1574.69 C177.972,1574.69 176.967,1574.5 175.998,1574.12 C178.863,1578.35 182.67,1580.46 187.42,1580.46 C191.909,1580.46 195.586,1578.64 198.451,1574.99 C201.451,1571.22 203.081,1566.82 203.342,1561.8 C203.467,1558.68 203.529,1556.89 203.529,1556.44 C203.529,1552.8 203.399,1549.8 203.139,1547.46 C199.889,1547.98 196.993,1548.24 194.451,1548.24 C185.399,1548.24 177.685,1544.66 171.31,1537.49 C165.06,1530.26 161.935,1521.67 161.935,1511.71 C161.935,1509.63 162.128,1507.51 162.514,1505.37 C162.909,1503.61 163.399,1501.68 163.982,1499.6 C164.305,1498.42 165.185,1496.53 166.623,1493.93 C167.144,1493.15 167.73,1492.17 168.381,1491 C169.032,1489.83 169.488,1489.05 169.748,1488.66 C170.394,1487.36 171.659,1485.6 173.545,1483.38 C174.066,1482.8 174.605,1482.15 175.162,1481.44 C175.719,1480.72 176.193,1480.14 176.584,1479.68 C176.974,1479.22 177.266,1478.86 177.459,1478.6 C177.652,1478.34 179.118,1476.62 181.857,1473.43 C182.503,1472.77 183.136,1472.07 183.756,1471.33 C184.376,1470.58 184.881,1470 185.271,1469.57 C185.662,1469.14 185.956,1468.84 186.154,1468.65 C183.81,1460.9 182.342,1454.71 181.748,1450.09 C181.3,1446.38 181.076,1441.3 181.076,1434.85 C181.076,1429.18 182.378,1423.88 184.982,1418.93 C187.514,1413.79 191.06,1409.6 195.623,1406.34 C195.883,1406.14 196.206,1406.04 196.592,1406.04 C197.05,1406.04 197.378,1406.14 197.576,1406.34 C201.086,1410.56 204.113,1416.06 206.654,1422.84 C209.258,1429.61 210.56,1435.76 210.56,1441.3 C210.56,1447.55 209.066,1453.41 206.076,1458.88 C202.691,1464.67 198.326,1470.66 192.982,1476.85 C194.347,1481.14 196.17,1487.88 198.451,1497.05 M206.748,1542.48 C210.133,1541.24 212.774,1539.12 214.67,1536.13 C216.753,1533.27 217.795,1530.04 217.795,1526.46 C217.795,1521.84 216.232,1517.73 213.107,1514.15 C209.909,1510.44 205.836,1508.36 200.889,1507.9 C203.691,1521.64 205.644,1533.16 206.748,1542.48 M168.967,1519.91 C168.967,1526.36 171.571,1532.03 176.779,1536.91 C182.113,1541.66 188.102,1544.04 194.748,1544.04 C197.477,1544.04 200.144,1543.84 202.748,1543.44 C201.706,1533.55 199.654,1521.7 196.592,1507.9 C192.883,1508.29 189.925,1509.6 187.717,1511.8 C185.56,1514.09 184.482,1516.66 184.482,1519.52 C184.482,1524.47 187.123,1528.48 192.404,1531.54 C192.852,1532 193.076,1532.49 193.076,1533.01 C193.076,1533.53 192.852,1534.01 192.404,1534.46 C192.008,1534.92 191.519,1535.15 190.935,1535.15 C190.873,1535.15 190.581,1535.09 190.06,1534.96 C186.342,1532.94 183.477,1530.34 181.467,1527.15 C179.571,1523.75 178.623,1520.33 178.623,1516.88 C178.623,1512.39 180.024,1508.32 182.826,1504.68 C185.753,1501.03 189.56,1498.69 194.248,1497.65 C192.425,1490.36 190.93,1484.66 189.764,1480.55 C188.722,1481.73 187.469,1483.15 186.006,1484.8 C184.542,1486.46 183.68,1487.45 183.42,1487.79 C181.076,1490.84 179.284,1493.22 178.045,1494.91 C175.826,1497.98 174.196,1500.61 173.154,1502.82 C172.05,1505.3 171.076,1508 170.232,1510.93 C169.389,1513.73 168.967,1516.73 168.967,1519.91 M201.576,1420.6 C196.691,1423.01 192.852,1426.45 190.06,1430.94 C187.196,1435.57 185.764,1440.55 185.764,1445.88 C185.764,1450.57 186.935,1456.89 189.279,1464.84 C193.967,1459.17 197.482,1453.93 199.826,1449.12 C202.295,1444.03 203.529,1438.73 203.529,1433.19 C203.529,1429.03 202.878,1424.83 201.576,1420.6"
     id="path126" />
  <path
     class="Clef"
     d="M198.451,1937.51 C198.451,1937.51 198.649,1937.51 199.045,1937.51 C199.305,1937.45 199.529,1937.42 199.717,1937.42 C207.008,1937.42 212.998,1939.99 217.685,1945.14 C222.373,1950.21 224.717,1956.13 224.717,1962.9 C224.717,1971.31 221.238,1978.15 214.279,1983.42 C212.456,1984.86 210.076,1986.03 207.139,1986.93 C207.472,1991.16 207.639,1994.58 207.639,1997.18 C207.639,1997.7 207.571,1999.59 207.435,2002.86 C207.175,2008.91 205.092,2014.15 201.185,2018.57 C197.415,2022.94 192.727,2025.12 187.123,2025.12 C181.852,2025.12 177.363,2023.27 173.654,2019.56 C169.935,2015.78 168.076,2011.22 168.076,2005.89 C168.076,2003.08 169.154,2000.7 171.31,1998.75 C173.519,1996.8 176.086,1995.82 179.014,1995.82 C181.618,1995.82 183.8,1996.83 185.56,1998.86 C187.383,2000.74 188.295,2003.08 188.295,2005.89 C188.295,2008.42 187.383,2010.59 185.56,2012.42 C183.738,2014.24 181.555,2015.15 179.014,2015.15 C177.972,2015.15 176.967,2014.96 175.998,2014.57 C178.863,2018.8 182.67,2020.92 187.42,2020.92 C191.909,2020.92 195.586,2019.09 198.451,2015.45 C201.451,2011.68 203.081,2007.28 203.342,2002.26 C203.467,1999.14 203.529,1997.35 203.529,1996.9 C203.529,1993.26 203.399,1990.26 203.139,1987.92 C199.889,1988.44 196.993,1988.7 194.451,1988.7 C185.399,1988.7 177.685,1985.12 171.31,1977.95 C165.06,1970.72 161.935,1962.13 161.935,1952.17 C161.935,1950.08 162.128,1947.97 162.514,1945.82 C162.909,1944.06 163.399,1942.14 163.982,1940.06 C164.305,1938.88 165.185,1936.99 166.623,1934.39 C167.144,1933.61 167.73,1932.63 168.381,1931.46 C169.032,1930.28 169.488,1929.51 169.748,1929.12 C170.394,1927.82 171.659,1926.06 173.545,1923.84 C174.066,1923.26 174.605,1922.61 175.162,1921.89 C175.719,1921.18 176.193,1920.59 176.584,1920.14 C176.974,1919.68 177.266,1919.32 177.459,1919.06 C177.652,1918.8 179.118,1917.07 181.857,1913.89 C182.503,1913.23 183.136,1912.53 183.756,1911.78 C184.376,1911.04 184.881,1910.45 185.271,1910.03 C185.662,1909.6 185.956,1909.29 186.154,1909.11 C183.81,1901.36 182.342,1895.17 181.748,1890.54 C181.3,1886.83 181.076,1881.76 181.076,1875.31 C181.076,1869.64 182.378,1864.33 184.982,1859.39 C187.514,1854.25 191.06,1850.05 195.623,1846.79 C195.883,1846.59 196.206,1846.5 196.592,1846.5 C197.05,1846.5 197.378,1846.59 197.576,1846.79 C201.086,1851.02 204.113,1856.52 206.654,1863.29 C209.258,1870.06 210.56,1876.22 210.56,1881.76 C210.56,1888.01 209.066,1893.87 206.076,1899.34 C202.691,1905.13 198.326,1911.12 192.982,1917.31 C194.347,1921.6 196.17,1928.33 198.451,1937.51 M206.748,1982.93 C210.133,1981.69 212.774,1979.58 214.67,1976.59 C216.753,1973.72 217.795,1970.5 217.795,1966.92 C217.795,1962.29 216.232,1958.19 213.107,1954.61 C209.909,1950.9 205.836,1948.81 200.889,1948.36 C203.691,1962.09 205.644,1973.62 206.748,1982.93 M168.967,1960.37 C168.967,1966.82 171.571,1972.49 176.779,1977.37 C182.113,1982.12 188.102,1984.5 194.748,1984.5 C197.477,1984.5 200.144,1984.3 202.748,1983.9 C201.706,1974.01 199.654,1962.16 196.592,1948.36 C192.883,1948.75 189.925,1950.05 187.717,1952.26 C185.56,1954.54 184.482,1957.12 184.482,1959.98 C184.482,1964.93 187.123,1968.93 192.404,1972 C192.852,1972.45 193.076,1972.94 193.076,1973.46 C193.076,1973.99 192.852,1974.47 192.404,1974.92 C192.008,1975.38 191.519,1975.61 190.935,1975.61 C190.873,1975.61 190.581,1975.54 190.06,1975.42 C186.342,1973.4 183.477,1970.79 181.467,1967.61 C179.571,1964.21 178.623,1960.79 178.623,1957.34 C178.623,1952.85 180.024,1948.78 182.826,1945.14 C185.753,1941.49 189.56,1939.15 194.248,1938.11 C192.425,1930.81 190.93,1925.12 189.764,1921.01 C188.722,1922.19 187.469,1923.61 186.006,1925.26 C184.542,1926.92 183.68,1927.91 183.42,1928.25 C181.076,1931.3 179.284,1933.67 178.045,1935.37 C175.826,1938.43 174.196,1941.07 173.154,1943.28 C172.05,1945.76 171.076,1948.46 170.232,1951.39 C169.389,1954.19 168.967,1957.18 168.967,1960.37 M201.576,1861.06 C196.691,1863.46 192.852,1866.91 190.06,1871.4 C187.196,1876.03 185.764,1881.01 185.764,1886.34 C185.764,1891.03 186.935,1897.34 189.279,1905.29 C193.967,1899.63 197.482,1894.39 199.826,1889.57 C202.295,1884.49 203.529,1879.18 203.529,1873.65 C203.529,1869.49 202.878,1865.29 201.576,1861.06"
     id="path128" />
  <path
     class="Clef"
     d="M198.451,2377.97 C198.451,2377.97 198.649,2377.97 199.045,2377.97 C199.305,2377.91 199.529,2377.88 199.717,2377.88 C207.008,2377.88 212.998,2380.45 217.685,2385.59 C222.373,2390.67 224.717,2396.59 224.717,2403.36 C224.717,2411.77 221.238,2418.6 214.279,2423.88 C212.456,2425.31 210.076,2426.48 207.139,2427.39 C207.472,2431.62 207.639,2435.04 207.639,2437.64 C207.639,2438.16 207.571,2440.05 207.435,2443.31 C207.175,2449.36 205.092,2454.6 201.185,2459.03 C197.415,2463.4 192.727,2465.58 187.123,2465.58 C181.852,2465.58 177.363,2463.72 173.654,2460.02 C169.935,2456.23 168.076,2451.68 168.076,2446.34 C168.076,2443.54 169.154,2441.16 171.31,2439.2 C173.519,2437.26 176.086,2436.28 179.014,2436.28 C181.618,2436.28 183.8,2437.29 185.56,2439.31 C187.383,2441.2 188.295,2443.54 188.295,2446.34 C188.295,2448.88 187.383,2451.05 185.56,2452.88 C183.738,2454.7 181.555,2455.61 179.014,2455.61 C177.972,2455.61 176.967,2455.42 175.998,2455.03 C178.863,2459.26 182.67,2461.38 187.42,2461.38 C191.909,2461.38 195.586,2459.55 198.451,2455.91 C201.451,2452.14 203.081,2447.74 203.342,2442.72 C203.467,2439.59 203.529,2437.81 203.529,2437.36 C203.529,2433.71 203.399,2430.72 203.139,2428.38 C199.889,2428.9 196.993,2429.16 194.451,2429.16 C185.399,2429.16 177.685,2425.57 171.31,2418.41 C165.06,2411.18 161.935,2402.58 161.935,2392.63 C161.935,2390.54 162.128,2388.43 162.514,2386.28 C162.909,2384.52 163.399,2382.6 163.982,2380.52 C164.305,2379.34 165.185,2377.45 166.623,2374.84 C167.144,2374.06 167.73,2373.09 168.381,2371.91 C169.032,2370.74 169.488,2369.96 169.748,2369.58 C170.394,2368.28 171.659,2366.52 173.545,2364.3 C174.066,2363.71 174.605,2363.07 175.162,2362.35 C175.719,2361.64 176.193,2361.05 176.584,2360.59 C176.974,2360.14 177.266,2359.78 177.459,2359.52 C177.652,2359.26 179.118,2357.53 181.857,2354.34 C182.503,2353.69 183.136,2352.99 183.756,2352.24 C184.376,2351.5 184.881,2350.91 185.271,2350.48 C185.662,2350.06 185.956,2349.75 186.154,2349.56 C183.81,2341.81 182.342,2335.63 181.748,2331 C181.3,2327.29 181.076,2322.21 181.076,2315.77 C181.076,2310.1 182.378,2304.79 184.982,2299.84 C187.514,2294.71 191.06,2290.51 195.623,2287.25 C195.883,2287.05 196.206,2286.95 196.592,2286.95 C197.05,2286.95 197.378,2287.05 197.576,2287.25 C201.086,2291.48 204.113,2296.98 206.654,2303.75 C209.258,2310.52 210.56,2316.68 210.56,2322.22 C210.56,2328.47 209.066,2334.33 206.076,2339.8 C202.691,2345.59 198.326,2351.58 192.982,2357.77 C194.347,2362.06 196.17,2368.79 198.451,2377.97 M206.748,2423.39 C210.133,2422.15 212.774,2420.04 214.67,2417.05 C216.753,2414.18 217.795,2410.96 217.795,2407.38 C217.795,2402.75 216.232,2398.65 213.107,2395.06 C209.909,2391.35 205.836,2389.27 200.889,2388.81 C203.691,2402.55 205.644,2414.08 206.748,2423.39 M168.967,2400.83 C168.967,2407.28 171.571,2412.94 176.779,2417.83 C182.113,2422.58 188.102,2424.95 194.748,2424.95 C197.477,2424.95 200.144,2424.76 202.748,2424.36 C201.706,2414.46 199.654,2402.61 196.592,2388.81 C192.883,2389.21 189.925,2390.51 187.717,2392.72 C185.56,2395 184.482,2397.57 184.482,2400.44 C184.482,2405.39 187.123,2409.39 192.404,2412.45 C192.852,2412.91 193.076,2413.4 193.076,2413.92 C193.076,2414.44 192.852,2414.93 192.404,2415.38 C192.008,2415.83 191.519,2416.06 190.935,2416.06 C190.873,2416.06 190.581,2416 190.06,2415.88 C186.342,2413.85 183.477,2411.25 181.467,2408.06 C179.571,2404.67 178.623,2401.25 178.623,2397.8 C178.623,2393.31 180.024,2389.24 182.826,2385.59 C185.753,2381.95 189.56,2379.6 194.248,2378.56 C192.425,2371.27 190.93,2365.57 189.764,2361.47 C188.722,2362.65 187.469,2364.06 186.006,2365.72 C184.542,2367.38 183.68,2368.37 183.42,2368.7 C181.076,2371.76 179.284,2374.13 178.045,2375.83 C175.826,2378.89 174.196,2381.53 173.154,2383.73 C172.05,2386.21 171.076,2388.92 170.232,2391.84 C169.389,2394.65 168.967,2397.64 168.967,2400.83 M201.576,2301.52 C196.691,2303.92 192.852,2307.37 190.06,2311.86 C187.196,2316.48 185.764,2321.46 185.764,2326.8 C185.764,2331.48 186.935,2337.8 189.279,2345.75 C193.967,2340.08 197.482,2334.84 199.826,2330.03 C202.295,2324.95 203.529,2319.64 203.529,2314.11 C203.529,2309.94 202.878,2305.75 201.576,2301.52"
     id="path130" />
  <path
     class="Clef"
     d="M198.451,2818.43 C198.451,2818.43 198.649,2818.43 199.045,2818.43 C199.305,2818.36 199.529,2818.33 199.717,2818.33 C207.008,2818.33 212.998,2820.91 217.685,2826.05 C222.373,2831.12 224.717,2837.05 224.717,2843.82 C224.717,2852.22 221.238,2859.06 214.279,2864.33 C212.456,2865.77 210.076,2866.94 207.139,2867.85 C207.472,2872.08 207.639,2875.49 207.639,2878.1 C207.639,2878.62 207.571,2880.51 207.435,2883.77 C207.175,2889.82 205.092,2895.06 201.185,2899.49 C197.415,2903.85 192.727,2906.04 187.123,2906.04 C181.852,2906.04 177.363,2904.18 173.654,2900.47 C169.935,2896.69 168.076,2892.13 168.076,2886.8 C168.076,2884 169.154,2881.62 171.31,2879.66 C173.519,2877.71 176.086,2876.74 179.014,2876.74 C181.618,2876.74 183.8,2877.75 185.56,2879.77 C187.383,2881.66 188.295,2884 188.295,2886.8 C188.295,2889.33 187.383,2891.51 185.56,2893.33 C183.738,2895.16 181.555,2896.07 179.014,2896.07 C177.972,2896.07 176.967,2895.87 175.998,2895.49 C178.863,2899.72 182.67,2901.83 187.42,2901.83 C191.909,2901.83 195.586,2900.01 198.451,2896.36 C201.451,2892.59 203.081,2888.2 203.342,2883.18 C203.467,2880.05 203.529,2878.27 203.529,2877.82 C203.529,2874.17 203.399,2871.18 203.139,2868.83 C199.889,2869.35 196.993,2869.61 194.451,2869.61 C185.399,2869.61 177.685,2866.03 171.31,2858.86 C165.06,2851.63 161.935,2843.04 161.935,2833.08 C161.935,2831 162.128,2828.88 162.514,2826.74 C162.909,2824.98 163.399,2823.06 163.982,2820.97 C164.305,2819.8 165.185,2817.91 166.623,2815.3 C167.144,2814.52 167.73,2813.54 168.381,2812.37 C169.032,2811.2 169.488,2810.42 169.748,2810.04 C170.394,2808.73 171.659,2806.97 173.545,2804.75 C174.066,2804.17 174.605,2803.52 175.162,2802.81 C175.719,2802.1 176.193,2801.51 176.584,2801.05 C176.974,2800.59 177.266,2800.23 177.459,2799.97 C177.652,2799.71 179.118,2797.99 181.857,2794.8 C182.503,2794.15 183.136,2793.44 183.756,2792.7 C184.376,2791.96 184.881,2791.37 185.271,2790.94 C185.662,2790.52 185.956,2790.21 186.154,2790.02 C183.81,2782.27 182.342,2776.08 181.748,2771.46 C181.3,2767.75 181.076,2762.67 181.076,2756.22 C181.076,2750.56 182.378,2745.25 184.982,2740.3 C187.514,2735.17 191.06,2730.97 195.623,2727.71 C195.883,2727.51 196.206,2727.41 196.592,2727.41 C197.05,2727.41 197.378,2727.51 197.576,2727.71 C201.086,2731.94 204.113,2737.44 206.654,2744.21 C209.258,2750.98 210.56,2757.13 210.56,2762.68 C210.56,2768.93 209.066,2774.79 206.076,2780.25 C202.691,2786.05 198.326,2792.04 192.982,2798.22 C194.347,2802.52 196.17,2809.25 198.451,2818.43 M206.748,2863.85 C210.133,2862.61 212.774,2860.49 214.67,2857.5 C216.753,2854.64 217.795,2851.42 217.795,2847.83 C217.795,2843.21 216.232,2839.1 213.107,2835.52 C209.909,2831.81 205.836,2829.73 200.889,2829.27 C203.691,2843.01 205.644,2854.54 206.748,2863.85 M168.967,2841.29 C168.967,2847.73 171.571,2853.4 176.779,2858.29 C182.113,2863.04 188.102,2865.41 194.748,2865.41 C197.477,2865.41 200.144,2865.21 202.748,2864.82 C201.706,2854.92 199.654,2843.07 196.592,2829.27 C192.883,2829.67 189.925,2830.97 187.717,2833.18 C185.56,2835.46 184.482,2838.03 184.482,2840.9 C184.482,2845.84 187.123,2849.85 192.404,2852.91 C192.852,2853.37 193.076,2853.86 193.076,2854.38 C193.076,2854.9 192.852,2855.38 192.404,2855.83 C192.008,2856.29 191.519,2856.52 190.935,2856.52 C190.873,2856.52 190.581,2856.46 190.06,2856.33 C186.342,2854.31 183.477,2851.71 181.467,2848.52 C179.571,2845.12 178.623,2841.7 178.623,2838.25 C178.623,2833.77 180.024,2829.7 182.826,2826.05 C185.753,2822.41 189.56,2820.06 194.248,2819.02 C192.425,2811.73 190.93,2806.03 189.764,2801.93 C188.722,2803.1 187.469,2804.52 186.006,2806.18 C184.542,2807.83 183.68,2808.83 183.42,2809.16 C181.076,2812.21 179.284,2814.59 178.045,2816.29 C175.826,2819.35 174.196,2821.98 173.154,2824.19 C172.05,2826.67 171.076,2829.37 170.232,2832.3 C169.389,2835.1 168.967,2838.1 168.967,2841.29 M201.576,2741.97 C196.691,2744.38 192.852,2747.83 190.06,2752.32 C187.196,2756.94 185.764,2761.92 185.764,2767.25 C185.764,2771.94 186.935,2778.26 189.279,2786.21 C193.967,2780.54 197.482,2775.3 199.826,2770.49 C202.295,2765.41 203.529,2760.1 203.529,2754.57 C203.529,2750.4 202.878,2746.2 201.576,2741.97"
     id="path132" />
  <path
     class="Clef"
     d="M198.451,3258.88 C198.451,3258.88 198.649,3258.88 199.045,3258.88 C199.305,3258.82 199.529,3258.79 199.717,3258.79 C207.008,3258.79 212.998,3261.36 217.685,3266.51 C222.373,3271.58 224.717,3277.5 224.717,3284.27 C224.717,3292.68 221.238,3299.52 214.279,3304.79 C212.456,3306.23 210.076,3307.4 207.139,3308.31 C207.472,3312.54 207.639,3315.95 207.639,3318.56 C207.639,3319.08 207.571,3320.97 207.435,3324.23 C207.175,3330.28 205.092,3335.52 201.185,3339.95 C197.415,3344.31 192.727,3346.49 187.123,3346.49 C181.852,3346.49 177.363,3344.64 173.654,3340.93 C169.935,3337.15 168.076,3332.59 168.076,3327.26 C168.076,3324.46 169.154,3322.08 171.31,3320.12 C173.519,3318.17 176.086,3317.2 179.014,3317.2 C181.618,3317.2 183.8,3318.21 185.56,3320.23 C187.383,3322.11 188.295,3324.46 188.295,3327.26 C188.295,3329.79 187.383,3331.97 185.56,3333.79 C183.738,3335.61 181.555,3336.52 179.014,3336.52 C177.972,3336.52 176.967,3336.33 175.998,3335.95 C178.863,3340.18 182.67,3342.29 187.42,3342.29 C191.909,3342.29 195.586,3340.47 198.451,3336.82 C201.451,3333.05 203.081,3328.65 203.342,3323.63 C203.467,3320.51 203.529,3318.72 203.529,3318.27 C203.529,3314.63 203.399,3311.63 203.139,3309.29 C199.889,3309.81 196.993,3310.07 194.451,3310.07 C185.399,3310.07 177.685,3306.49 171.31,3299.32 C165.06,3292.09 161.935,3283.5 161.935,3273.54 C161.935,3271.46 162.128,3269.34 162.514,3267.2 C162.909,3265.44 163.399,3263.51 163.982,3261.43 C164.305,3260.25 165.185,3258.36 166.623,3255.76 C167.144,3254.98 167.73,3254 168.381,3252.83 C169.032,3251.66 169.488,3250.88 169.748,3250.49 C170.394,3249.19 171.659,3247.43 173.545,3245.21 C174.066,3244.63 174.605,3243.98 175.162,3243.27 C175.719,3242.55 176.193,3241.97 176.584,3241.51 C176.974,3241.05 177.266,3240.69 177.459,3240.43 C177.652,3240.17 179.118,3238.45 181.857,3235.26 C182.503,3234.6 183.136,3233.9 183.756,3233.16 C184.376,3232.41 184.881,3231.83 185.271,3231.4 C185.662,3230.97 185.956,3230.67 186.154,3230.48 C183.81,3222.73 182.342,3216.54 181.748,3211.92 C181.3,3208.21 181.076,3203.13 181.076,3196.68 C181.076,3191.01 182.378,3185.71 184.982,3180.76 C187.514,3175.62 191.06,3171.43 195.623,3168.17 C195.883,3167.97 196.206,3167.87 196.592,3167.87 C197.05,3167.87 197.378,3167.97 197.576,3168.17 C201.086,3172.39 204.113,3177.89 206.654,3184.67 C209.258,3191.44 210.56,3197.59 210.56,3203.13 C210.56,3209.38 209.066,3215.24 206.076,3220.71 C202.691,3226.5 198.326,3232.49 192.982,3238.68 C194.347,3242.97 196.17,3249.71 198.451,3258.88 M206.748,3304.31 C210.133,3303.07 212.774,3300.95 214.67,3297.96 C216.753,3295.1 217.795,3291.87 217.795,3288.29 C217.795,3283.67 216.232,3279.56 213.107,3275.98 C209.909,3272.27 205.836,3270.19 200.889,3269.73 C203.691,3283.47 205.644,3294.99 206.748,3304.31 M168.967,3281.74 C168.967,3288.19 171.571,3293.86 176.779,3298.74 C182.113,3303.49 188.102,3305.87 194.748,3305.87 C197.477,3305.87 200.144,3305.67 202.748,3305.27 C201.706,3295.38 199.654,3283.53 196.592,3269.73 C192.883,3270.12 189.925,3271.43 187.717,3273.63 C185.56,3275.92 184.482,3278.49 184.482,3281.35 C184.482,3286.3 187.123,3290.31 192.404,3293.37 C192.852,3293.83 193.076,3294.32 193.076,3294.84 C193.076,3295.36 192.852,3295.84 192.404,3296.29 C192.008,3296.75 191.519,3296.98 190.935,3296.98 C190.873,3296.98 190.581,3296.92 190.06,3296.79 C186.342,3294.77 183.477,3292.17 181.467,3288.98 C179.571,3285.58 178.623,3282.16 178.623,3278.71 C178.623,3274.22 180.024,3270.15 182.826,3266.51 C185.753,3262.86 189.56,3260.52 194.248,3259.48 C192.425,3252.19 190.93,3246.49 189.764,3242.38 C188.722,3243.56 187.469,3244.98 186.006,3246.63 C184.542,3248.29 183.68,3249.29 183.42,3249.62 C181.076,3252.67 179.284,3255.05 178.045,3256.74 C175.826,3259.81 174.196,3262.44 173.154,3264.65 C172.05,3267.13 171.076,3269.83 170.232,3272.76 C169.389,3275.56 168.967,3278.56 168.967,3281.74 M201.576,3182.43 C196.691,3184.84 192.852,3188.29 190.06,3192.77 C187.196,3197.4 185.764,3202.38 185.764,3207.71 C185.764,3212.4 186.935,3218.72 189.279,3226.67 C193.967,3221 197.482,3215.76 199.826,3210.95 C202.295,3205.86 203.529,3200.56 203.529,3195.02 C203.529,3190.86 202.878,3186.66 201.576,3182.43"
     id="path134" />
  <path
     class="Clef"
     d="M198.451,3699.34 C198.451,3699.34 198.649,3699.34 199.045,3699.34 C199.305,3699.28 199.529,3699.25 199.717,3699.25 C207.008,3699.25 212.998,3701.82 217.685,3706.97 C222.373,3712.04 224.717,3717.96 224.717,3724.73 C224.717,3733.14 221.238,3739.98 214.279,3745.25 C212.456,3746.69 210.076,3747.86 207.139,3748.76 C207.472,3752.99 207.639,3756.41 207.639,3759.01 C207.639,3759.53 207.571,3761.42 207.435,3764.69 C207.175,3770.74 205.092,3775.98 201.185,3780.4 C197.415,3784.77 192.727,3786.95 187.123,3786.95 C181.852,3786.95 177.363,3785.1 173.654,3781.39 C169.935,3777.61 168.076,3773.05 168.076,3767.72 C168.076,3764.91 169.154,3762.53 171.31,3760.58 C173.519,3758.63 176.086,3757.65 179.014,3757.65 C181.618,3757.65 183.8,3758.66 185.56,3760.69 C187.383,3762.57 188.295,3764.91 188.295,3767.72 C188.295,3770.25 187.383,3772.42 185.56,3774.25 C183.738,3776.07 181.555,3776.98 179.014,3776.98 C177.972,3776.98 176.967,3776.79 175.998,3776.4 C178.863,3780.63 182.67,3782.75 187.42,3782.75 C191.909,3782.75 195.586,3780.92 198.451,3777.28 C201.451,3773.51 203.081,3769.11 203.342,3764.09 C203.467,3760.97 203.529,3759.18 203.529,3758.73 C203.529,3755.09 203.399,3752.09 203.139,3749.75 C199.889,3750.27 196.993,3750.53 194.451,3750.53 C185.399,3750.53 177.685,3746.95 171.31,3739.78 C165.06,3732.55 161.935,3723.96 161.935,3714 C161.935,3711.91 162.128,3709.8 162.514,3707.65 C162.909,3705.89 163.399,3703.97 163.982,3701.89 C164.305,3700.71 165.185,3698.82 166.623,3696.22 C167.144,3695.44 167.73,3694.46 168.381,3693.29 C169.032,3692.11 169.488,3691.34 169.748,3690.95 C170.394,3689.65 171.659,3687.89 173.545,3685.67 C174.066,3685.09 174.605,3684.44 175.162,3683.72 C175.719,3683.01 176.193,3682.42 176.584,3681.97 C176.974,3681.51 177.266,3681.15 177.459,3680.89 C177.652,3680.63 179.118,3678.9 181.857,3675.72 C182.503,3675.06 183.136,3674.36 183.756,3673.61 C184.376,3672.87 184.881,3672.28 185.271,3671.86 C185.662,3671.43 185.956,3671.12 186.154,3670.94 C183.81,3663.19 182.342,3657 181.748,3652.37 C181.3,3648.66 181.076,3643.59 181.076,3637.14 C181.076,3631.47 182.378,3626.16 184.982,3621.22 C187.514,3616.08 191.06,3611.88 195.623,3608.62 C195.883,3608.42 196.206,3608.33 196.592,3608.33 C197.05,3608.33 197.378,3608.42 197.576,3608.62 C201.086,3612.85 204.113,3618.35 206.654,3625.12 C209.258,3631.89 210.56,3638.05 210.56,3643.59 C210.56,3649.84 209.066,3655.7 206.076,3661.17 C202.691,3666.96 198.326,3672.95 192.982,3679.14 C194.347,3683.43 196.17,3690.16 198.451,3699.34 M206.748,3744.76 C210.133,3743.52 212.774,3741.41 214.67,3738.42 C216.753,3735.56 217.795,3732.33 217.795,3728.75 C217.795,3724.12 216.232,3720.02 213.107,3716.44 C209.909,3712.73 205.836,3710.64 200.889,3710.19 C203.691,3723.92 205.644,3735.45 206.748,3744.76 M168.967,3722.2 C168.967,3728.65 171.571,3734.32 176.779,3739.2 C182.113,3743.95 188.102,3746.33 194.748,3746.33 C197.477,3746.33 200.144,3746.13 202.748,3745.73 C201.706,3735.84 199.654,3723.99 196.592,3710.19 C192.883,3710.58 189.925,3711.88 187.717,3714.09 C185.56,3716.37 184.482,3718.95 184.482,3721.81 C184.482,3726.76 187.123,3730.76 192.404,3733.83 C192.852,3734.28 193.076,3734.77 193.076,3735.29 C193.076,3735.82 192.852,3736.3 192.404,3736.75 C192.008,3737.21 191.519,3737.44 190.935,3737.44 C190.873,3737.44 190.581,3737.37 190.06,3737.25 C186.342,3735.23 183.477,3732.62 181.467,3729.44 C179.571,3726.04 178.623,3722.62 178.623,3719.17 C178.623,3714.68 180.024,3710.61 182.826,3706.97 C185.753,3703.32 189.56,3700.98 194.248,3699.94 C192.425,3692.64 190.93,3686.95 189.764,3682.84 C188.722,3684.02 187.469,3685.44 186.006,3687.09 C184.542,3688.75 183.68,3689.74 183.42,3690.08 C181.076,3693.13 179.284,3695.5 178.045,3697.2 C175.826,3700.26 174.196,3702.9 173.154,3705.11 C172.05,3707.59 171.076,3710.29 170.232,3713.22 C169.389,3716.02 168.967,3719.01 168.967,3722.2 M201.576,3622.89 C196.691,3625.29 192.852,3628.74 190.06,3633.23 C187.196,3637.86 185.764,3642.84 185.764,3648.17 C185.764,3652.86 186.935,3659.17 189.279,3667.12 C193.967,3661.46 197.482,3656.22 199.826,3651.4 C202.295,3646.32 203.529,3641.01 203.529,3635.48 C203.529,3631.32 202.878,3627.12 201.576,3622.89"
     id="path136" />
  <path
     class="Rest"
     d="M486.295,571.217 C488.18,571.217 489.613,571.738 490.592,572.779 C491.634,573.894 492.186,575.003 492.248,576.108 C492.446,577.41 492.774,578.514 493.232,579.42 C493.68,580.462 494.394,580.983 495.373,580.983 C496.217,580.983 497.618,578.899 499.576,574.733 C499.899,574.087 500.352,573.764 500.936,573.764 L501.045,573.764 C501.691,573.826 502.144,574.149 502.404,574.733 L478.67,716.733 C478.024,717.389 477.113,717.717 475.936,717.717 C474.831,717.717 473.92,717.389 473.201,716.733 L479.264,683.826 C474.576,685.514 470.701,686.358 467.639,686.358 C465.295,686.358 463.274,685.613 461.576,684.123 C459.826,682.686 458.951,680.795 458.951,678.451 C458.951,676.431 459.634,674.738 460.998,673.373 C462.425,671.946 464.118,671.233 466.076,671.233 C467.962,671.233 469.394,671.753 470.373,672.795 C471.352,673.899 471.941,675.003 472.139,676.108 C472.201,677.347 472.493,678.457 473.014,679.436 C473.472,680.477 474.186,680.998 475.154,680.998 C476.009,680.998 477.217,680.019 478.779,678.061 C480.342,675.915 481.154,674.384 481.217,673.467 L483.951,658.92 C479.462,660.545 475.686,661.358 472.623,661.358 C470.342,661.358 468.29,660.613 466.467,659.123 C464.769,657.623 463.92,655.733 463.92,653.451 C463.92,651.431 464.639,649.738 466.076,648.373 C467.441,646.946 469.102,646.233 471.061,646.233 C472.946,646.233 474.378,646.753 475.357,647.795 C476.399,648.899 476.951,650.003 477.014,651.108 C477.212,652.41 477.54,653.519 477.998,654.436 C478.446,655.477 479.191,655.998 480.232,655.998 C481.014,655.998 482.092,655.019 483.467,653.061 C484.831,651.238 485.613,649.806 485.811,648.764 L488.545,634.014 C484.441,635.576 480.826,636.358 477.701,636.358 C475.42,636.358 473.368,635.608 471.545,634.108 C469.857,632.618 469.014,630.733 469.014,628.451 C469.014,626.431 469.727,624.738 471.154,623.373 C472.519,621.936 474.212,621.217 476.232,621.217 C478.118,621.217 479.55,621.738 480.529,622.779 C481.509,623.957 482.029,625.066 482.092,626.108 C482.227,627.087 482.555,628.191 483.076,629.42 C483.66,630.462 484.404,630.983 485.311,630.983 C485.967,630.983 486.946,630.071 488.248,628.248 C489.488,626.363 490.201,624.931 490.389,623.951 L493.232,609.108 C489.066,610.608 485.55,611.358 482.686,611.358 C480.342,611.358 478.321,610.608 476.623,609.108 C474.863,607.681 473.982,605.795 473.982,603.451 C473.982,601.431 474.67,599.738 476.045,598.373 C477.472,596.936 479.196,596.217 481.217,596.217 C483.165,596.217 484.566,596.738 485.42,597.779 C486.389,598.894 486.972,600.003 487.17,601.108 C487.232,602.212 487.561,603.316 488.154,604.42 C488.54,605.462 489.253,605.983 490.295,605.983 C490.951,605.983 491.863,605.071 493.029,603.248 C494.134,601.425 494.785,600.092 494.982,599.248 L497.811,584.108 C493.842,585.608 490.493,586.358 487.764,586.358 C485.42,586.358 483.399,585.608 481.701,584.108 C479.941,582.681 479.061,580.795 479.061,578.451 C479.061,576.431 479.748,574.738 481.123,573.373 C482.55,571.936 484.274,571.217 486.295,571.217"
     id="path150" />
  <path
     class="Rest"
     d="M430.529,1011.67 C432.415,1011.67 433.847,1012.2 434.826,1013.24 C435.805,1014.35 436.394,1015.46 436.592,1016.57 C436.654,1017.8 436.946,1018.91 437.467,1019.88 C437.925,1020.92 438.675,1021.44 439.717,1021.44 C440.238,1021.44 441.05,1020.66 442.154,1019.1 C443.061,1017.73 443.811,1016.43 444.404,1015.19 C444.727,1014.54 445.18,1014.22 445.764,1014.22 C446.347,1014.22 446.805,1014.54 447.139,1015.19 L423.701,1132.19 C423.045,1132.85 422.097,1133.17 420.857,1133.17 C419.753,1133.17 418.842,1132.85 418.123,1132.19 L425.451,1099.38 C421.16,1101 417.383,1101.82 414.123,1101.82 C411.779,1101.82 409.758,1101.07 408.061,1099.58 C406.311,1098.14 405.436,1096.25 405.436,1093.91 C405.436,1091.89 406.149,1090.2 407.576,1088.83 C409.014,1087.4 410.743,1086.69 412.764,1086.69 C414.712,1086.69 416.107,1087.21 416.951,1088.25 C417.868,1089.36 418.425,1090.46 418.623,1091.57 C418.811,1092.87 419.133,1093.98 419.592,1094.89 C420.05,1095.93 420.769,1096.46 421.748,1096.46 C422.529,1096.46 423.701,1095.48 425.264,1093.52 C426.753,1091.63 427.597,1090.2 427.795,1089.22 L431.123,1074.47 C427.019,1076.03 423.373,1076.82 420.186,1076.82 C417.842,1076.82 415.821,1076.07 414.123,1074.58 C412.363,1073.14 411.482,1071.25 411.482,1068.91 C411.482,1066.89 412.17,1065.2 413.545,1063.83 C414.972,1062.4 416.696,1061.69 418.717,1061.69 C420.665,1061.69 422.066,1062.21 422.92,1063.25 C423.889,1064.36 424.472,1065.46 424.67,1066.57 C424.732,1067.8 425.024,1068.91 425.545,1069.89 C426.003,1070.93 426.753,1071.46 427.795,1071.46 C428.451,1071.46 429.493,1070.54 430.92,1068.72 C432.285,1066.76 433.066,1065.33 433.264,1064.42 L436.686,1049.47 C432.321,1051.03 428.774,1051.82 426.045,1051.82 C423.701,1051.82 421.68,1051.07 419.982,1049.57 C418.222,1048.14 417.342,1046.25 417.342,1043.91 C417.342,1041.89 418.061,1040.2 419.498,1038.83 C420.925,1037.39 422.649,1036.67 424.67,1036.67 C426.628,1036.67 428.029,1037.2 428.873,1038.24 C429.779,1039.35 430.331,1040.46 430.529,1041.57 C430.592,1042.67 430.92,1043.77 431.514,1044.88 C431.899,1045.92 432.613,1046.44 433.654,1046.44 C434.373,1046.44 435.35,1045.53 436.584,1043.71 C437.818,1041.88 438.566,1040.55 438.826,1039.71 L442.248,1024.57 C438.144,1026.07 434.758,1026.82 432.092,1026.82 C429.748,1026.82 427.732,1026.07 426.045,1024.57 C424.285,1023.14 423.404,1021.25 423.404,1018.91 C423.404,1016.89 424.087,1015.2 425.451,1013.83 C426.816,1012.39 428.508,1011.67 430.529,1011.67"
     id="path160" />
  <path
     class="Rest"
     d="M427.607,1452.13 C429.493,1452.13 430.925,1452.65 431.904,1453.69 C432.873,1454.87 433.394,1455.98 433.467,1457.02 C433.592,1458 433.915,1459.11 434.436,1460.34 C435.019,1461.38 435.769,1461.9 436.686,1461.9 C437.269,1461.9 438.212,1461.12 439.514,1459.55 C440.691,1457.87 441.472,1456.56 441.857,1455.65 C442.18,1455 442.639,1454.68 443.232,1454.68 L443.326,1454.68 C443.972,1454.74 444.425,1455.06 444.686,1455.65 L423.107,1547.65 C422.462,1548.3 421.519,1548.63 420.279,1548.63 C419.175,1548.63 418.264,1548.3 417.545,1547.65 L426.139,1514.93 C422.035,1516.49 418.451,1517.27 415.389,1517.27 C413.107,1517.27 411.055,1516.53 409.232,1515.04 C407.545,1513.54 406.701,1511.65 406.701,1509.37 C406.701,1507.35 407.415,1505.65 408.842,1504.29 C410.217,1502.86 411.878,1502.15 413.826,1502.15 C415.722,1502.15 417.154,1502.67 418.123,1503.71 C419.165,1504.81 419.722,1505.92 419.795,1507.02 C419.982,1508.32 420.305,1509.43 420.764,1510.35 C421.222,1511.39 421.972,1511.91 423.014,1511.91 C423.732,1511.91 424.837,1511 426.326,1509.18 C427.701,1507.36 428.55,1505.92 428.873,1504.88 L432.779,1489.93 C428.415,1491.49 424.868,1492.27 422.139,1492.27 C419.795,1492.27 417.774,1491.52 416.076,1490.02 C414.316,1488.6 413.436,1486.71 413.436,1484.37 C413.436,1482.35 414.154,1480.65 415.592,1479.29 C417.019,1477.85 418.743,1477.13 420.764,1477.13 C422.722,1477.13 424.123,1477.65 424.967,1478.69 C425.873,1479.81 426.425,1480.92 426.623,1482.02 C426.821,1483.32 427.149,1484.43 427.607,1485.34 C428.055,1486.38 428.769,1486.9 429.748,1486.9 C430.467,1486.9 431.508,1485.99 432.873,1484.16 C434.238,1482.54 435.087,1481.2 435.42,1480.16 L439.42,1465.02 C435.316,1466.52 431.863,1467.27 429.061,1467.27 C426.79,1467.27 424.743,1466.52 422.92,1465.02 C421.222,1463.53 420.373,1461.65 420.373,1459.37 C420.373,1457.35 421.092,1455.65 422.529,1454.29 C423.894,1452.85 425.587,1452.13 427.607,1452.13"
     id="path168" />
  <path
     class="Rest"
     d="M423.732,1917.28 C425.691,1917.28 427.092,1917.8 427.936,1918.84 C428.842,1919.95 429.394,1921.06 429.592,1922.17 C429.654,1923.27 429.982,1924.38 430.576,1925.48 C430.962,1926.52 431.675,1927.04 432.717,1927.04 C433.373,1927.04 434.352,1926.26 435.654,1924.7 C437.144,1922.88 438.087,1921.57 438.482,1920.79 C438.805,1920.15 439.258,1919.82 439.842,1919.82 C439.842,1919.82 439.878,1919.82 439.951,1919.82 C440.535,1919.89 440.956,1920.21 441.217,1920.79 L423.342,1987.79 C422.696,1988.45 421.787,1988.78 420.615,1988.78 C419.443,1988.78 418.529,1988.45 417.873,1987.79 L427.936,1955.07 C423.571,1956.64 420.024,1957.42 417.295,1957.42 C414.951,1957.42 412.93,1956.67 411.232,1955.18 C409.472,1953.75 408.592,1951.86 408.592,1949.51 C408.592,1947.49 409.274,1945.8 410.639,1944.43 C412.076,1943.01 413.805,1942.29 415.826,1942.29 C417.774,1942.29 419.175,1942.81 420.029,1943.86 C420.998,1944.96 421.581,1946.06 421.779,1947.17 C421.977,1948.47 422.305,1949.58 422.764,1950.5 C423.212,1951.54 423.925,1952.06 424.904,1952.06 C425.686,1952.06 426.795,1951.15 428.232,1949.32 C429.722,1947.63 430.633,1946.29 430.967,1945.31 L435.545,1930.17 C431.378,1931.67 427.899,1932.42 425.107,1932.42 C422.764,1932.42 420.743,1931.67 419.045,1930.17 C417.285,1928.74 416.404,1926.86 416.404,1924.51 C416.404,1922.49 417.123,1920.8 418.561,1919.43 C419.988,1918 421.712,1917.28 423.732,1917.28"
     id="path176" />
  <path
     class="Rest"
     d="M411.576,2811.21 C411.576,2810.03 412.232,2808.73 413.545,2807.3 C414.514,2806.26 415.946,2805.02 417.842,2803.58 C419.269,2802.61 420.665,2801.15 422.029,2799.19 C423.331,2797.31 423.982,2795.25 423.982,2793.04 C423.982,2790.43 423.139,2788.12 421.451,2786.11 L417.936,2781.91 C417.675,2781.65 417.545,2781.32 417.545,2780.93 C417.545,2780.54 417.738,2780.19 418.123,2779.86 C418.581,2779.53 418.972,2779.36 419.295,2779.36 C419.753,2779.36 420.113,2779.56 420.373,2779.96 L435.514,2797.93 C436.16,2798.77 436.482,2799.61 436.482,2800.46 C436.482,2801.63 435.831,2802.94 434.529,2804.36 C433.686,2805.28 432.29,2806.52 430.342,2808.08 C428.842,2808.99 427.41,2810.45 426.045,2812.47 C424.743,2814.36 424.092,2816.41 424.092,2818.63 C424.092,2821.37 424.873,2823.68 426.436,2825.57 L434.826,2835.43 C435.024,2835.62 435.186,2835.95 435.311,2836.41 C435.311,2836.86 435.149,2837.25 434.826,2837.58 C434.368,2837.91 433.977,2838.07 433.654,2838.07 C433.529,2838.07 433.008,2837.71 432.092,2836.99 C431.113,2836.21 429.811,2835.46 428.186,2834.74 C426.363,2834.03 424.571,2833.68 422.811,2833.68 C421.186,2833.68 419.852,2834.13 418.811,2835.04 C417.904,2835.95 417.451,2837.71 417.451,2840.32 C417.451,2844.29 418.394,2847.41 420.279,2849.69 C420.477,2849.95 420.508,2850.28 420.373,2850.66 C420.248,2850.92 420.019,2851.05 419.686,2851.05 C419.238,2851.05 418.232,2849.88 416.67,2847.54 C415.035,2845.07 413.503,2842.23 412.076,2839.04 C410.576,2835.65 409.826,2832.85 409.826,2830.65 C409.826,2827.84 411.16,2826.44 413.826,2826.44 C416.889,2826.44 420.863,2827.48 425.748,2829.57 L412.561,2813.74 C411.904,2812.9 411.576,2812.05 411.576,2811.21"
     id="path186" />
  <path
     class="Rest"
     d="M448.701,3259.48 L413.154,3259.48 C412.498,3259.48 412.17,3259.15 412.17,3258.49 L412.17,3244.82 C412.17,3244.18 412.498,3243.85 413.154,3243.85 L448.701,3243.85 C449.347,3243.85 449.67,3244.18 449.67,3244.82 L449.67,3258.49 C449.67,3259.15 449.347,3259.48 448.701,3259.48"
     id="path192" />
  <path
     class="Rest"
     d="M501.436,3690.56 L465.889,3690.56 C465.232,3690.56 464.904,3690.24 464.904,3689.59 L464.904,3675.92 C464.904,3675.26 465.232,3674.94 465.889,3674.94 L501.436,3674.94 C502.081,3674.94 502.404,3675.26 502.404,3675.92 L502.404,3689.59 C502.404,3690.24 502.081,3690.56 501.436,3690.56"
     id="path196" />
  <path
     class="Rest"
     d="M419.201,2358.67 C421.087,2358.67 422.519,2359.19 423.498,2360.23 C424.477,2361.41 424.998,2362.52 425.061,2363.56 C425.196,2364.54 425.524,2365.65 426.045,2366.88 C426.628,2367.92 427.373,2368.44 428.279,2368.44 C428.998,2368.44 430.076,2367.63 431.514,2366 C432.816,2364.57 433.758,2363.3 434.342,2362.19 C434.665,2361.54 435.118,2361.22 435.701,2361.22 L435.811,2361.22 C436.456,2361.28 436.91,2361.6 437.17,2362.19 L424.873,2404.19 C424.217,2404.84 423.303,2405.17 422.131,2405.17 C420.959,2405.17 420.05,2404.84 419.404,2404.19 L431.123,2371.56 C426.956,2373.06 423.441,2373.81 420.576,2373.81 C418.232,2373.81 416.212,2373.06 414.514,2371.56 C412.753,2370.14 411.873,2368.25 411.873,2365.91 C411.873,2363.89 412.592,2362.19 414.029,2360.83 C415.456,2359.39 417.18,2358.67 419.201,2358.67"
     id="path198" />
  <path
     class="NoteDot"
     d="M518.733,583.24 C517.623,582.131 517.068,580.795 517.068,579.233 C517.068,577.67 517.623,576.334 518.733,575.225 C519.842,574.115 521.178,573.561 522.74,573.561 C524.303,573.561 525.636,574.115 526.74,575.225 C527.844,576.334 528.397,577.67 528.397,579.233 C528.397,580.795 527.844,582.131 526.74,583.24 C525.636,584.35 524.303,584.904 522.74,584.904 C521.178,584.904 519.842,584.35 518.733,583.24"
     id="path200" />
  <path
     class="NoteDot"
     d="M464.287,1023.7 C463.178,1022.59 462.623,1021.25 462.623,1019.69 C462.623,1018.13 463.178,1016.79 464.287,1015.68 C465.397,1014.57 466.732,1014.02 468.295,1014.02 C469.857,1014.02 471.191,1014.57 472.295,1015.68 C473.399,1016.79 473.951,1018.13 473.951,1019.69 C473.951,1021.25 473.399,1022.59 472.295,1023.7 C471.191,1024.81 469.857,1025.36 468.295,1025.36 C466.732,1025.36 465.397,1024.81 464.287,1023.7"
     id="path202" />
  <path
     class="NoteDot"
     d="M460.404,1464.16 C459.295,1463.05 458.74,1461.71 458.74,1460.15 C458.74,1458.59 459.295,1457.25 460.404,1456.14 C461.514,1455.03 462.85,1454.48 464.412,1454.48 C465.975,1454.48 467.308,1455.03 468.412,1456.14 C469.516,1457.25 470.068,1458.59 470.068,1460.15 C470.068,1461.71 469.516,1463.05 468.412,1464.16 C467.308,1465.26 465.975,1465.82 464.412,1465.82 C462.85,1465.82 461.514,1465.26 460.404,1464.16"
     id="path204" />
  <path
     class="NoteDot"
     d="M454.272,1929.3 C453.162,1928.19 452.607,1926.86 452.607,1925.29 C452.607,1923.73 453.162,1922.39 454.272,1921.28 C455.381,1920.18 456.717,1919.62 458.279,1919.62 C459.842,1919.62 461.175,1920.18 462.279,1921.28 C463.384,1922.39 463.936,1923.73 463.936,1925.29 C463.936,1926.86 463.384,1928.19 462.279,1929.3 C461.175,1930.41 459.842,1930.96 458.279,1930.96 C456.717,1930.96 455.381,1930.41 454.272,1929.3"
     id="path206" />
  <path
     class="NoteDot"
     d="M447.881,2370.7 C446.772,2369.59 446.217,2368.25 446.217,2366.69 C446.217,2365.13 446.772,2363.79 447.881,2362.68 C448.99,2361.57 450.326,2361.02 451.889,2361.02 C453.451,2361.02 454.785,2361.57 455.889,2362.68 C456.993,2363.79 457.545,2365.13 457.545,2366.69 C457.545,2368.25 456.993,2369.59 455.889,2370.7 C454.785,2371.8 453.451,2372.36 451.889,2372.36 C450.326,2372.36 448.99,2371.8 447.881,2370.7"
     id="path208" />
  <path
     class="NoteDot"
     d="M449.248,2810.53 C448.139,2809.42 447.584,2808.08 447.584,2806.52 C447.584,2804.96 448.139,2803.62 449.248,2802.51 C450.357,2801.4 451.693,2800.85 453.256,2800.85 C454.818,2800.85 456.152,2801.4 457.256,2802.51 C458.36,2803.62 458.912,2804.96 458.912,2806.52 C458.912,2808.08 458.36,2809.42 457.256,2810.53 C456.152,2811.64 454.818,2812.19 453.256,2812.19 C451.693,2812.19 450.357,2811.64 449.248,2810.53"
     id="path210" />
  <path
     class="NoteDot"
     d="M460.084,3250.99 C458.975,3249.88 458.42,3248.54 458.42,3246.98 C458.42,3245.42 458.975,3244.08 460.084,3242.97 C461.193,3241.86 462.529,3241.31 464.092,3241.31 C465.654,3241.31 466.988,3241.86 468.092,3242.97 C469.196,3244.08 469.748,3245.42 469.748,3246.98 C469.748,3248.54 469.196,3249.88 468.092,3250.99 C466.988,3252.09 465.654,3252.65 464.092,3252.65 C462.529,3252.65 461.193,3252.09 460.084,3250.99"
     id="path212" />
  <path
     class="NoteDot"
     d="M512.818,3691.44 C511.709,3690.33 511.154,3689 511.154,3687.44 C511.154,3685.87 511.709,3684.54 512.818,3683.43 C513.928,3682.32 515.264,3681.76 516.826,3681.76 C518.389,3681.76 519.722,3682.32 520.826,3683.43 C521.93,3684.54 522.483,3685.87 522.483,3687.44 C522.483,3689 521.93,3690.33 520.826,3691.44 C519.722,3692.55 518.389,3693.11 516.826,3693.11 C515.264,3693.11 513.928,3692.55 512.818,3691.44"
     id="path214" />
</svg>
